<svg xmlns="http://www.w3.org/2000/svg" viewBox="0 0 439 320"><defs/><g fill="none" fill-rule="evenodd"><path fill="#E0DED8" d="M110.55 27.877C157.848-18.89 197.083.05 240.435 34.483l-.591 30.251-72.265 48.069L189 203.749l-91.92 20.207c11.715 28.539 21.532 52.196 29.45 70.972-52.699 1.376-95.171-2.277-107.99-14.206-39.324-36.597 50.019-214.548 92.01-252.845zm134.414 10.245c33.184 26.947 68.993 61.839 112.778 82.618C461.122 169.8 449 225.333 412.64 250.678c-24.08 16.786-171.87 40.566-280.373 44.084-6.65-17.684-15.059-39.69-25.221-66.017l86.15-21.438-21.028-92.721 71.248-47.27z"/><path fill="#EA6868" fill-rule="nonzero" d="M45.392 60.691l-42 68.412a22.957 22.957 0 0019.565 34.966h83.989a22.957 22.957 0 0019.566-34.966L84.518 60.688a22.958 22.958 0 00-39.126.003z"/><g fill="#FFF" fill-rule="nonzero" transform="translate(56.892 75.303)"><circle cx="8.234" cy="67.217" r="7.361"/><path d="M2.523 53.193H14.58l3.261-46.725S9.234-6.442.048 6.677l2.475 46.516z"/></g><path fill="#EA6868" fill-rule="nonzero" d="M296.873 92.694l-27.481 44.77a22.957 22.957 0 0019.565 34.966h54.96a22.957 22.957 0 0019.566-34.966l-27.48-44.77a22.956 22.956 0 00-39.13 0z"/><g fill="#FFF" fill-rule="nonzero" transform="translate(309.418 99.22)"><circle cx="7.163" cy="55.425" r="6.074"/><path d="M2.45 43.852h9.95l2.69-38.556S7.99-5.358.408 5.468L2.45 43.852z"/></g><path fill="#EA6868" fill-rule="nonzero" d="M149.872 239.695l-27.48 44.767a22.957 22.957 0 0019.565 34.966h54.96a22.957 22.957 0 0019.566-34.966l-27.48-44.77a22.958 22.958 0 00-39.131.003z"/><g fill="#FFF" fill-rule="nonzero" transform="translate(162.306 246.462)"><circle cx="7.275" cy="55.185" r="6.074"/><path d="M2.562 43.612h9.949l2.691-38.556S8.102-5.597.52 5.228l2.042 38.384z"/></g></g></svg>