<svg xmlns="http://www.w3.org/2000/svg" xmlns:xlink="http://www.w3.org/1999/xlink" viewBox="0 0 703 220"><defs/><defs><path id="a" d="M.064.128h673.488v138.347H.064z"/></defs><g fill="none" fill-rule="evenodd"><path fill="#E0DED8" d="M167.77 24.624C96.941 58.147 36.17 121.701 13.33 166.321 2.704 187.73-.028 204.565 6.554 219h670.77c21.712-21.568 29.258-40.677 24.134-54.443-8.268-25.4-52.49-33.816-116.736-58.647C451.936 61.242 310.966-48.85 167.77 24.624z"/><path fill="#FD8838" d="M241.788 114s-23.563-19.1-16.45-43.087c6.873-23.178 26.23-27.095 51.57-23.985 25.823 3.168 29.786 15.102 27.562 27.094-2.222 11.994-8.002 15.991-18.227 16.88-10.225.888-34.675 2.22-40.011 7.55-5.334 5.33-6.668 9.773-4.444 15.548"/><path fill="#FFF" d="M237.779 82.108c.007.055.135.57.183.704.004.028.052.161.055.19.087-.011.384-.018.445-.025 1.963-.227 3.311-1.304 4.138-2.934l.044-.117a6.271 6.271 0 00-.012-1.672c-.215-1.621-1.179-3.741-3.133-4.1a3.614 3.614 0 01-.543-.05l-.252-.11c-.03.004-.139.072-.135.1-.328.01-.577-.073-.87-.04-.03.004-.114.042-.144.045l-.084.038c-.208-.004-.384-.206-.619-.18l-.06.008c-.01 1.033.126 2.078.261 3.094.057.44.077.577.203 1.092l.523 3.957zm-2.04-14.326c.335 1.412.498 2.871.72 4.324.025.193.175 1.096.2 1.288.47-.054.848-.349 1.202-.585 1.483-.953 2.05-2.526 1.833-4.174-.098-.742-.588-2.191-1.378-2.546-.606-.293-1.46-.222-2.077-.15l-.38.043c-.216.165-.46.138-.415.467.057.44.237.893.295 1.333zm-1.721-1.53c-.007-.056-.014-.333-.018-.36l.007-.17c-.003-.027.281-.143.393-.184.17-.075.815-.15.964-.363.03-.004.407-.075.466-.082 1.878-.217 3.523-.157 4.76 1.317.246.28.49 1.673.534 2.004.053.412-.105.793-.112 1.184-.012 1.034-.318 2.101-1.081 2.86-.107.096-.786.593-.768.73.007.055.524.135.556.159 2.797.429 3.902 2.477 4.225 4.922.203 1.539-.119 2.943-1.472 3.965-1.08.85-2.634 1.254-3.939 1.516-.059.007-.532.034-.587.068-.03.004-.22.137-.249.14l-.265.032c-.645.074-.688-.256-.754-.75l-.018-.137-2.642-16.851zM251.958 72.69c.027-.003.013-.113-.015-.11-.027.004-.01.142.015.11zm-.055-.44c.026-.003.003-.196-.024-.192-.057.006-.033.199.024.192zm-.398-1.181c.027-.004.017-.086-.01-.082-.055.006-.043.117.01.082zm-.227-.699c.017.138.103.379.103.379l.084-.01-.062-.496-.09-.045c-.052.034-.045.09-.038.145l.003.027zm-.18-1.236c.03.249.167.679.17.706l.159.149-.03-.249c-.007-.054-.234-.754-.261-.75l-.055.007.016.137zm-.4-1.18c.055.216.204.73.23.726l.07.103-.106-.854-.199-.255-.083.01c.005.028.082.214.088.27zm-1.944 13.885c.354.152.79.293 1.176.246 1.18-.174 1.602-2.435 1.63-3.557l-.006-.055c.006-.393.01-1.959 0-2.489-.007-.055-.014-.557-.02-.613.025-.03.006-.392 0-.446l-.238-1.705c.049-.285.03-.423.004-.644-.014-.11-.034-.275-.134-.403-.102-1.273-.404-2.578-.812-3.842-.124-.096-.172-.482-.212-.588-.289-.748-1.595-2.935-2.339-2.843-1.512.214-2.499 4.223-2.465 5.841.031 1.395.14 2.723.334 4.069.31 2.282.905 5.956 3.082 7.029zm-3.176-17.055c.34-.434 1.592-.7 2.005-.752 3.77-.521 4.619 5.44 5.063 8.574l.27 1.951-.031 2.018c.003.027.13.599.113.685.01.082-.096.571-.09.626l-.021.283c-.154 1.695-.325 3.255-1.676 4.317-.334.014-.7.45-1.03.49-.659.11-1.45-.184-2.042-.446-2.499-1.201-3.087-4.372-3.662-7.209-.015-.11-.051-.19-.065-.3-.008-.055-.078-.409-.097-.547-.452-3.215-.693-7.184 1.263-9.69zM260.374 69.712l.057-.006-.012-.08-.045.086zm-.017-.133l-.066-.507c-.048.06-.035.167-.023.247.013.106.023.187.089.26zm-.177-.928c.016.107.078.154.162.144-.108-.828-.324-1.642-.403-2.473-.146.18-.09.39-.066.577.02.16.03.458.158.578l.15 1.174zm-.34-3.103c.02-.056.01-.137-.02-.16-.032-.023-.007.164.02.16zm-4.749 12.735l-.003-.027c-.003-.026-.121-.066-.124-.093l-.093-.721.037-.14-.223-1.735c-.003-.027.028-.22.028-.22-.003-.027-.078-.18-.078-.18s-.036-.05-.04-.077c-.063-.507.026-1.114-.041-1.648l-.09-.694c-.248-.405-.113-.881-.306-1.292l-.422-3.283c-.017-.133-.148-.714-.164-.848l-.57-4.431c-.04-.32.42-.456.642-.483.166-.02.63.088.705.241.652.899 1.23 1.914 1.724 2.912.267.537.538 1.128.69 1.652.032.023.036.266.04.294.092.07.323.34.35.554.056.21.056.427.166.63.111.204.311.451.397.685.035.05.079.398.114.447.6 1.392 1.308 2.744 1.988 4.1.074.126.153.307.225.433.075.154.156.334.231.488.04.103.306.64.377.74.006.054.035.268.154.334 0 0 .045-.086.042-.113l-.003-.027c-.12-.934-.437-2.088-.556-3.023-.197-1.521-.388-3.016-.747-4.491l-.719-5.606c-.037-.293.68-.623.846-.642.222-.027.526-.063.643.194l.165 1.281c.181 1.415.304 2.81.485 4.224.029.214.035.267.014.541l1.714 9.633c.007.487.24.784.299 1.238.065.507-.131.937-.658 1-.165.02-.52-.1-.655-.274-.33-.394-.465-1.002-.752-1.482-.743-1.186-1.33-2.47-1.995-3.72a46.589 46.589 0 01-1.52-3.287l-.124-.094-.866-1.93s-.066-.073-.07-.1c-.47-1.028-.914-2.086-1.522-3.097l1.197 9.316-.035.166.537 4.192c.062.263.076.37.106.61.049.373-.045.52-.35.557-.97.115-.94-.538-1.07-1.336-.009-.053-.148-.714-.155-.768l-.029-.213c-.03-.24.081-.254.064-.387z"/><path fill="#FFF" d="M267.01 72.434l.052-.007-.01-.083-.041.09zm-.065-1.476c-.003-.028.039-.118.006-.17l-.01-.083c.024-.03-.048-.19-.054-.245-.042.09-.036.146-.025.229-.014.113.019.164.083.269zm-.603-4.993c.026-.003.018-.059-.007-.055-.026.003-.015.086.007.055zm.533 4.385l-.01-.306c-.006-.056-.044-.836-.098-1.08-.044-.387-.172-1.491-.19-1.657-.01-.082-.143-.766-.15-.821-.046-.19.066-.12-.056-.272-.048.035-.084.179-.101.265.004.028.039-.117.042-.09.016.138.152 1.073.173 1.267l.283 2.456.107.238zm-.635-5.268l.052.442c-.01-.083.03-.173.051-.231l-.039-.107c-.026.003-.058-.049-.064-.104zm-.126.493a.868.868 0 00-.041-.359c-.033-.051.055.47.04.359zm-.047-1.535l.053-.007-.008-.055-.052.007.007.055zm-.052.68c.025-.004.022-.031.019-.059-.025.003-.044.062-.019.058zm-3.505 9.991c.767-.157.898.077.99.878.043.358.03.696.068 1.027l.003.028c.21.673.331 1.498.487 2.177.174.594.813 1.378 1.423 1.437.184.004.467-.258.58-.413.706-.906.68-2.276.635-3.335-.034-.751-.304-4.218-.367-4.995.022-.03-.058-.72-.058-.945-.03-.276-.147-1.045-.153-1.1-.117-.797-.139-1.664-.38-2.388l-.54-3.768-1.444.192-.155.02c-.714.15-2.516.418-2.599-.3 0-.224.081-.431.283-.486l.053-.006s.058.047.083.044c1.367-.181 2.707-.359 4.093-.598l1.475-.14.078-.01c.31-.04.85-.113.932.354.012.334-.485.568-.64.588l-.078.01-.567.076-.051.007.046.638c.075.635.42 3.167.49 3.774l.023.194c.108.938.553 5.474.663 6.413.157 1.38.18 2.694-.08 4.073l-.175.976c-.114.603-.622.951-.963 1.417-.128.017-.617.305-.772.326 0 0-.148.076-.2.083-.462.089-.861.03-1.299-.137-1.73-.695-1.795-2.395-2.205-4.36l-.003-.027c-.042-.359-.086-1.641.324-1.724zM277.958 69.69c.026-.003.013-.113-.015-.11-.027.004-.01.142.015.11zm-.055-.44c.026-.003.003-.196-.024-.193-.055.007-.032.2.024.193zm-.398-1.181c.027-.003.017-.086-.01-.083-.055.007-.042.118.01.083zm-.226-.699c.017.138.102.379.102.379l.084-.01-.062-.496-.09-.045c-.05.034-.045.09-.039.145l.005.027zm-.182-1.235c.03.247.167.678.17.705l.161.149-.032-.248c-.006-.056-.234-.754-.26-.751l-.055.007.016.138zm-.397-1.181c.053.216.202.73.229.726l.07.103-.107-.853-.199-.256-.083.01c.005.028.083.215.09.27zm-1.946 13.885c.354.152.79.293 1.177.246 1.18-.174 1.6-2.435 1.63-3.557l-.008-.055c.009-.393.01-1.959 0-2.489-.006-.055-.011-.558-.02-.613.025-.03.009-.391 0-.447l-.237-1.704c.049-.285.03-.423.003-.644-.013-.11-.035-.275-.133-.403-.102-1.273-.404-2.578-.81-3.842-.126-.096-.172-.482-.214-.588-.29-.748-1.594-2.935-2.337-2.843-1.516.215-2.501 4.224-2.468 5.841.032 1.395.14 2.723.336 4.069.31 2.282.904 5.956 3.08 7.029zm-3.175-17.055c.338-.434 1.59-.7 2.005-.752 3.769-.521 4.618 5.441 5.062 8.574l.27 1.951-.03 2.018c.004.027.13.599.112.685.01.082-.096.571-.09.626l-.021.282c-.152 1.696-.325 3.256-1.676 4.318-.334.013-.698.45-1.03.49-.659.11-1.45-.184-2.042-.446-2.5-1.201-3.088-4.372-3.662-7.209-.015-.11-.052-.189-.065-.299-.007-.056-.079-.41-.097-.548-.453-3.215-.692-7.184 1.264-9.69zM287.08 69.381c.08-.036.034-.164.031-.19l-.02-.157a.456.456 0 00-.081.249c.005.026.07.098.07.098zm-.021-.583l-.037-.076-.056.007.093.069zm-.101 1.156l.082-.01a.149.149 0 00-.1-.121l.018.131zm-.07-.95l.085-.01-.007-.053-.086.01.009.053zm-.016.294c.027-.002.02-.055-.007-.051-.029.002-.019.081.007.051zm-.05-.579c.053-.033.046-.086-.01-.079-.026.003-.016.082.01.079zm.011-2.291c-.052.033-.076-.15-.02-.157.033.05.044.128.02.157zm-.216.292c.026-.03.015-.109-.017-.131-.055.007-.035.164.017.13zm.385 1.845c.128-.308.042-.538.025-.881-.032-.236.042-.538-.02-.797-.014-.104-.098-.094-.105-.147-.007-.053-.013-.105.066-.141l-.015-.557-.166-1.259c-.19-1.229-.515-2.415-.621-3.653l-.125-.093c-.024.03-.044.299-.042.325.011.079.163.593.17.645l.037.29c.194 1.254.271 2.496.496 3.774l-.04.138c.102.547.056.845.15 1.34.02.157.088.256.104.36.027.21-.159.312-.137.469.017.131.05.18.223.187zm-6.555 3.187l-.007-.053c-.039-.075-.101-.334-.131-.357l-.253-1.7c-.398-2.616-.545-5.234-.973-7.846l.012-.135s-.02-.583-.054-.844l-.039-.289c-.01-.08.014-.535.03-.642-.011-.079.156-.099.183-.102.334-.039.809.146.937.476l.283 1.937c.437 2.903.684 5.856 1.124 8.786.06.446.273 1.006.283 1.511l.707 2.153c.168.22.276.607.472.797.522.764 1.707.973 2.486.882 0 0 .104-.066.1-.092.762-.861 1.004-1.82.97-2.935-.106-3.607-.521-7.206-.993-10.797-.116-.892-.342-1.744-.458-2.635l-.034-.262c.108-.253.827-.576 1.05-.603a.35.35 0 01.329.149c.124.943.38 1.819.505 2.762.265 2.02.418 4.05.762 6.034l.261 4.36c.005.027-.018 1.148-.044 1.603-.072.728-.379 1.402-.685 2.077-.739.406-.683.825-1.765.977-1.386.189-3.265-.364-4.059-1.682-.177-.272-.177-.485-.308-.843-.263-.714-.597-1.528-.73-2.336-.013-.106.056-.22.039-.351zM293.062 66.37c.053-.007.081-.01.102-.067-.03-.024-.062-.048-.065-.075l-.053.007.016.134m-3.537 2.1c2.334-.697 4.274-2.818 3.894-5.417-.172-1.152-.925-2.342-1.854-2.938-.013.002-.06-.034-.105-.07-.046-.035-.09-.07-.105-.068-.515-.155-1.348-.217-1.89-.15a3.487 3.487 0 00-.343.124c-.102.066-.475.167-.583.18-.152.1-.176.13-.157.292.02.161.122.313.139.447.013.108-.058.198-.048.279.102.588.31 1.162.41 1.75 0 0-.012.11-.039.114l.13 1.048c.048.376.273 2.177.296 2.584.003.027-.034.167-.031.194l.006.054.061.047.194 1.34s-.04.115-.033.168l.058.021m2.548 4.98l-.102-.151c-.102-.151-.174-.306-.245-.434-.034-.05-.038-.077-.072-.127-.004-.027-.074-.155-.078-.182l-.632-.877c-.208-.33-1.107-1.583-1.215-1.57l.302 2.419c.036.077.142.473.153.554l.546 3.944c.034.05.172.497.182.577l.004.028c.034.269-.428.325-.59.345l-.027.004c-.215.052-.685.028-.718-.24l-.46-3.245c.108-.014.023-.25.02-.276-.02-.16-.12-.312-.142-.473-.023-.189.057-.199.05-.28l-.006-.026a2.652 2.652 0 01-.136-.447l-.294-1.901s-.056-.02-.061-.048l-.007-.053c-.003-.027.041-.115.038-.141l-.276-1.986.072-.09-.154-1.018a.795.795 0 01-.097-.125l-.009-.053c-.016-.134.055-.225.028-.44-.024-.188-.128-.367-.157-.608-.022-.161.01-.356-.017-.571l-.034-.269c-.004-.027-.129-.366-.132-.394-.006-.053.003-.41.026-.44l-.006-.053c-.07-.346-.188-.632-.235-1.008l-.063-.51.08-.01-.009-.081c-.362-.692-.378-1.7-.498-2.449-.046-.377-.07-.565-.102-1.024.09-.175.225-.192.334-.205a.263.263 0 01.189.035c.033.022.056.044.095.04.16-.048.329-.232.492-.252.27-.033 1.394-.307 1.637-.337.19.06.48.058.779.057.288-.002.582-.004.804.05.307.043.93.185 1.169.32 1 .532 2.112 2.142 2.278 3.267.302 2.2-.814 4.493-2.653 5.646l-.807.371c-.05.034-.467.222-.523.229-.023.03-.186.05-.182.077l.006.053c.755 1.19 1.62 2.394 2.344 3.56.003.027.07.127.074.155.518.837 1.169 1.63 1.55 2.484.244.406 1.345 1.28 1.414 1.627l-.02.057c-.018.084-.184.295-.204.353l-.189.023c-.299.037-.618-.088-.922-.106-.91-1.116-1.8-2.507-2.592-3.775"/><path fill="#67B0FA" d="M359.736 80s5.011-11.184-6.605-11.184c-.802 0-1.683.053-2.649.167-12.107 1.424-25.606 5.112-36.656 5.113-2.63 0-5.116-.209-7.416-.706a17.309 17.309 0 01-2.171-.625c1.845-10.246-.919-20.416-18.22-24.991-.365-8.939 4.571-18.371 19.068-25.062 8.842-4.08 17.042-5.712 24.421-5.712 17.751 0 30.747 9.44 36.486 16.946l-.089.224C360.3 48.68 363.985 59.137 371 66.582c-1.686 5.527-5.126 10.428-11.264 13.418"/><path fill="#4D96A3" d="M305.5 74c-3.72-1.31-7.468-3.901-10.61-7.296.699-1.127 1.032-2.489.847-3.817-.168-1.133-1.294-2.755-2.308-3.29-.242-.136-.873-.279-1.185-.323a3.017 3.017 0 00-.654-.05h-.315c-.246 0-.474-.007-.634-.057-.129.016-.498.098-.861.178-1.61-3.227-2.63-6.747-2.78-10.345 17.567 4.577 20.373 14.75 18.5 25m-11.487-8.283a31.818 31.818 0 01-3.86-5.65c.081-.032.173-.065.201-.068.15-.018.32-.027.5-.027.483 0 1.036.064 1.415.177h.002c.015 0 .06.035.105.07s.09.07.105.07h.002c.94.6 1.703 1.798 1.878 2.958a4.357 4.357 0 01-.348 2.47"/><path fill="#70B8FB" d="M294.105 66c-.298-.341-.59-.691-.877-1.047a4.886 4.886 0 00.348-2.622c-.175-1.232-.937-2.503-1.876-3.14h-.002c-.015 0-.06-.037-.105-.074s-.09-.074-.105-.074h-.001c-.38-.121-.932-.189-1.414-.189-.18 0-.35.01-.5.029-.027.004-.119.039-.2.072a39.768 39.768 0 01-.373-.767c.363-.084.732-.171.86-.188.16.053.387.061.634.061h.154l.16-.001c.238 0 .47.007.654.053.31.048.941.199 1.182.343 1.013.569 2.138 2.29 2.306 3.492.184 1.41-.148 2.855-.845 4.052"/><path fill="#FFF" d="M308 40.412L307.449 54l-1.687-.074.489-12.116-6.074-.265-.489 12.116-1.688-.073.551-13.588 9.449.412M313.094 47.449c.39.111.883.169 1.484.192 2.17.085 3.536-.843 3.616-2.63.08-1.71-1.186-2.587-3.172-2.664-.783-.03-1.385.004-1.7.068l-.228 5.034zm-1.515-6.314c.875-.1 2.016-.171 3.462-.115 1.779.07 3.064.504 3.857 1.228.74.645 1.15 1.604 1.097 2.757-.052 1.172-.465 2.08-1.199 2.724-.993.905-2.564 1.324-4.322 1.256-.537-.022-1.03-.06-1.441-.172L312.798 54 311 53.93l.58-12.795zM323.065 41.069l-.224 5.718c-.083 2.155-.191 3.926-.374 5.733l.037.022c.691-1.38 1.534-2.815 2.514-4.385l4.354-6.803 1.628.074L330.47 55l-1.535-.07.226-5.779c.084-2.195.167-3.805.364-5.51l-.056-.023c-.675 1.462-1.597 2.993-2.516 4.466l-4.212 6.567-1.741-.079.53-13.572 1.535.069M335.146 47.458l1.64.062c1.912.073 3.077-.794 3.133-2.026.069-1.498-1.15-2.134-2.98-2.204-.829-.031-1.31.007-1.604.052l-.189 4.116zm-.284 6.124c.351.07.872.11 1.515.134 1.869.072 3.623-.488 3.708-2.346.081-1.745-1.527-2.528-3.502-2.604l-1.495-.057-.226 4.873zm-1.283-11.428c.796-.12 2.05-.187 3.315-.138 1.809.07 2.958.398 3.802 1.076.704.52 1.106 1.296 1.06 2.301-.056 1.233-1 2.28-2.499 2.716l-.002.038c1.317.354 2.828 1.419 2.741 3.316-.049 1.099-.566 1.915-1.3 2.514-1.015.778-2.613 1.097-4.9 1.009a23 23 0 01-2.796-.26l.579-12.572zM351.389 49.022l-5.344-.207-.207 4.579 5.954.231-.064 1.375-7.728-.3.578-12.7 7.422.288-.064 1.376-5.648-.22-.182 4.014 5.343.207-.06 1.357M357.084 43.565L353 43.401l.063-1.401 9.937.397-.061 1.402-4.102-.164L358.334 55l-1.753-.07.503-11.365"/><path fill="#F9761E" d="M529.293 84s5.05-11.184-6.655-11.184c-.809 0-1.694.053-2.67.167-4.044.472-8.241 1.193-12.452 1.946-17.391-7.716-34.898-15.723-52.509-23.508-.223-8.833 4.808-18.107 19.224-24.71 8.908-4.08 17.171-5.711 24.605-5.711 21.471 0 36.04 13.607 39.338 21.136 4.44 10.135 8.437 33.492-8.881 41.864"/><path fill="#E48037" d="M482.756 78c-2.622 0-5.105-.211-7.4-.714C465.859 75.203 455.31 63.54 455 51c17.44 7.88 34.777 15.985 52 23.795C498.592 76.331 490.128 78 482.756 78"/><path fill="#FFF" d="M475.89 53.236l-1.772-.069c-1.647-.064-3.094.023-4.338.26-1.575.299-2.378.785-2.41 1.458a6.388 6.388 0 00.25 1.963c.19.7.388 1.41.588 2.129.202.719.288 1.373.262 1.963-.017.35-.056.668-.124.951-.068.284-.183.653-.342 1.109-.224-.776-.442-1.55-.655-2.325a176.36 176.36 0 01-.908-3.346c-.304-1.194-.451-1.911-.44-2.151.053-1.18.36-2.075.92-2.686.558-.61 1.396-1.047 2.514-1.308.884-.206 2.209-.357 3.974-.455-.6-.614-.97-.98-1.115-1.096-.489-.388-.992-.593-1.51-.614a1.768 1.768 0 00-.95.24c-.245.139-.544.381-.897.728l-.668-.428c.33-.68.693-1.22 1.089-1.62.655-.658 1.41-.97 2.264-.937.616.024 1.222.26 1.818.708.492.37.986.88 1.484 1.527.243.314.603.845 1.076 1.593l-.11 2.406M488.855 54.464c-.043 1.046-.513 2.11-1.416 3.194a10.585 10.585 0 01-2.884 2.428c-1.083.638-1.965.942-2.647.912a8.083 8.083 0 01-2.021-.374c-.55-.167-1.205-.42-1.966-.757-.645-.285-1.285-.57-1.921-.855l.257-.56c.594.15 1.214.303 1.86.46a9.257 9.257 0 001.758.27c1.165.05 2.395-.286 3.69-1.01a10.53 10.53 0 003.041-2.571c.853-1.053 1.3-2.016 1.334-2.89.03-.751-.148-1.549-.532-2.393-.31-.68-.756-1.385-1.336-2.115l.867-2.203c.715.754 1.239 1.5 1.563 2.238.368.835.532 1.756.492 2.763l-.14 3.463M496.442 49.595a11.91 11.91 0 01-.818-.073 11.717 11.717 0 00-.802-.073 14.409 14.409 0 00-2.038.08c-.492.053-1.165.143-2.018.27.42-.999.802-1.644 1.144-1.936.735-.636 1.935-.92 3.599-.854.62.025 1.884.202 3.794.53.886.152 1.656.241 2.306.267.271.011.671-.004 1.2-.045.531-.042.928-.058 1.191-.048l-.622 2.255c-1.998.243-3.702.543-5.113.9-2.096.528-3.741 1.208-4.937 2.04-1.487 1.038-2.264 2.301-2.33 3.79-.085 1.93.906 3.42 2.968 4.475 1.797.916 4.23 1.436 7.295 1.56l2.597.104.078.15L500.652 65l-.819-.033c-2.03-.081-3.71-.328-5.04-.74-1.589-.496-2.776-1.236-3.563-2.22-.892-1.124-1.299-2.578-1.22-4.364.067-1.507.498-2.848 1.293-4.02.606-.893 1.466-1.726 2.583-2.499.34-.238 1.192-.748 2.556-1.53M516.927 59.01l-1.14 1.99-2.146-1.276 1.085-2.007 2.2 1.293zm7.903-3.076l-12.928-.563c-1.734-.075-3.103-.45-4.108-1.122-1.26-.843-1.856-2.102-1.789-3.78.036-.87.262-1.752.68-2.644.146-.321.498-.93 1.05-1.825l.396.284c-.217.423-.427.845-.636 1.267-.29.654-.443 1.243-.464 1.767-.045 1.106.48 1.987 1.575 2.644.981.587 2.238.914 3.776.981l11.476.5.016-.38c.042-1.048-.044-1.908-.262-2.58-.217-.67-.611-1.252-1.178-1.746l1.135-2.245c.377.532.605.866.68 1 .571 1.077.817 2.617.736 4.62l-.155 3.822zM529.975 52.219a4.536 4.536 0 01-.666 2.091c-.21.357-.651.92-1.322 1.69l-.33-.146c.052-.262.102-.564.156-.908.05-.344.08-.574.086-.691.054-.944.03-2.263-.081-3.961a153.376 153.376 0 00-.818-8.75c.273-.392.583-.813.928-1.266.346-.453.676-.879.988-1.278.142 1.04.314 2.462.515 4.266.203 1.804.35 3.43.442 4.876.122 1.803.156 3.161.102 4.077"/><path fill="#FFDB67" d="M444.998 47c-21.85-9.499-43.861-18.504-65.998-26.023C386.573 16.92 396.08 15 405.046 15c6.706 0 13.108 1.074 18.173 3.134C433.265 22.22 445.18 36.907 444.998 47"/><path fill="#EAD267" d="M406.476 84s-22.992-3.697-35.468-16.88c3.036-9.913.384-21.848-2.451-28.34-.547-1.252-1.407-2.674-2.557-4.174 2.37-5.917 7.112-10.418 13.038-13.606 22.125 7.549 44.125 16.589 65.962 26.125-.01.601-.062 1.187-.162 1.753-2.388 13.678-11.906 21.951-29.984 23.269-18.078 1.317-16.753 7.024-8.378 11.853"/><path fill="#8CA78B" d="M371.531 68c-7.648-7.528-11.666-18.102-5.554-32.773.03-.075.064-.152.096-.227 1.254 1.522 2.191 2.965 2.787 4.237 3.09 6.588 5.98 18.702 2.671 28.763"/><path fill="#FFF" d="M389.683 50.793l.035-.005-.048-.108.013.113zm-.039-.34l.036-.005-.044-.07.008.075zm-.159-.476l.104-.014-.118-.1.014.114zm-4.624 4.03c.626-.084 1.267-.361 1.892-.445.973-.13 1.842-.248 2.763-.524l.091-.127-.005-.038c-.077-.68-.495-1.888-.718-2.586-.123-.48-.46-2.505-.695-2.703-.003-.958-.381-1.482-.553-2.378-.316-1.222-.557-2.415-.908-3.633-.24-.236-.264-.769-.377-1.137-.052-.146-.203-.854-.251-.963-.008-.075-.147-.67-.156-.745l-.405-1.4c-.014-.114-.143-.633-.157-.746l-.14.019c-.033.004-.03.349-.047.504.09 1.406.34 2.981-.036 4.334l-.216 9.876.023.188-.125 2.316.02.188zm-.25-15.214c.07-.01.052-.16-.019-.15-.068.008-.05.159.019.15zm-.451 14.62c.063-.048.06-.086-.014-.113-.034.004-.022.117.014.112zm-.057-.491l.114.061.374-12.195c.184-.255.1-.665.066-.968l-.007-.074-.096.089-.27 3.522c-.204.373-.314 8.395-.207 9.339l.026.226zm-1.02 6.228c.014-.5-.081-1.024.072-1.542.34-4.145.426-8.333.37-12.54l1.047-10.638c.036-.311.379-.395.587-.423.626-.085.782.661 1.199.911.854 1.916 1.354 4.148 1.804 6.233.36.373.554 2.378.792 2.92.276 1.19 1.617 6.756 1.963 7.936.151.708 1.129 4.024 1.383 4.718.08.066.66 1.75.699 2.09.024.226-.275.381-.41.438l-.035.005c-1.807.243-1.401-1.153-1.838-2.512a1.432 1.432 0 00-.178-.32c-.265-.463-.367-1.982-.784-2.233-.07.01-.352.01-.422.018-1.042.14-2.202.488-3.203.699-.16.136-.333.16-.508.183-.242.033-.451.06-.707-.02-.196.142-.129.746-.146.9-.07.93-.006 1.802-.007 2.722-.023 1.037-.284 2.146-1.467 2.304-.138.02-.265-.462-.281-.613-.047-.416.049-.811.07-1.236zM394.625 53.122l-.056-.412c-.036-.262.03-.383.007-.57l-.005-.038c-.005-.037-.101-.14-.106-.178-.09-.978-.383-1.933-.51-2.869-.224-1.685-.243-3.355-1.862-14.195l-.09-1.283c-.035-.262.26-.523.463-.546.365-.042 1.676-.116 1.739.371.346 2.584.76 13.029 1.612 15.707.36 2.696.925 5.368 1.248 8.069.074.257.135.402.431.445 1.317.001 2.698-.156 3.988-.38.218.09.481.212.512.436.049.375-.36.384-.357.725-.518.136-.722.159-1.127.205-.527.06-1.064.045-1.593.106-.445.05-.878.213-1.365.269-.689.08-1.421-.142-2.049-.526-.146-.782-.77-4.512-.88-5.336M409.61 43.435c.038-.004.018-.149-.018-.145-.037.005-.014.186.018.145zm-.072-.58c.036-.004.004-.257-.032-.253-.074.009-.041.262.032.253zm-.532-1.554c.038-.004.023-.113-.013-.108-.073.008-.055.154.013.108zm-.302-.92c.023.182.139.5.139.5l.11-.014-.082-.653-.12-.059c-.068.045-.06.118-.052.19l.005.036zm-.24-1.626c.041.327.224.893.229.93l.21.194-.04-.326c-.01-.072-.312-.992-.35-.988l-.072.01.023.18zm-.53-1.554c.073.286.27.96.305.956l.093.136-.142-1.123-.266-.336-.11.014c.004.036.11.28.12.353zm-2.596 18.271c.472.2 1.055.387 1.57.324 1.576-.229 2.136-3.204 2.173-4.68l-.01-.073c.01-.516.014-2.577 0-3.274-.008-.073-.016-.734-.026-.807.033-.04.01-.516 0-.588l-.318-2.243c.065-.375.043-.556.005-.846-.016-.145-.044-.363-.176-.53-.136-1.676-.537-3.393-1.083-5.056-.165-.127-.228-.634-.284-.775-.385-.983-2.125-3.861-3.116-3.74-2.018.283-3.334 5.557-3.291 7.686.044 1.834.19 3.582.449 5.353.413 3.004 1.206 7.837 4.107 9.25zm-4.233-22.441c.45-.57 2.122-.922 2.674-.989 5.025-.687 6.158 7.159 6.75 11.281l.36 2.568-.041 2.654c.005.037.173.789.15.902.015.109-.13.751-.12.824l-.027.371c-.207 2.233-.433 4.284-2.235 5.681-.446.018-.934.593-1.374.646-.879.144-1.933-.242-2.722-.587-3.333-1.58-4.117-5.753-4.884-9.486-.018-.145-.067-.249-.087-.394-.008-.073-.104-.539-.129-.72-.604-4.23-.924-9.454 1.685-12.751zM419.951 45.91c.07-.01.048-.198-.021-.189-.072.01-.05.199.021.19zm-6.584 5.022c-.014-.113-.196-1.086-.21-1.2-.008-.075-.172-1.203-.223-1.656-.027-.227-.13-1.44-.157-1.666-.004-.038.045-.236.04-.274a1.683 1.683 0 00-.096-.217c-.004-.038.05-.198.05-.198l-.039-.34c-.022-.189-.004-.344-.132-.52l-.992-8.684c-.031-.265-.399-2.554-.433-2.856l-.022-.189a63.51 63.51 0 00-.114-2.553c-.013-.42-.183-.973.307-1.038.628-.084 1.329.167 1.416.922l.046.416.137 3.355.946 8.27c.279-.038 1.715-.191 1.994-.229.727-.135 2.494-.487 2.56-.534l.202-.103.014-.808c-.022-.189-.113-.368.014-.5l-.12-1.057c-.308-2.681-.928-5.32-1.131-8.015-.126-.175-.143-.326-.16-.477l-.017-.15c.021-.733-.278-1.497.56-1.61.558-.074 1.347.012 1.434.767l.008.075c-.174.637-.154 1.44-.08 2.081l.004.038c.043.071.077.373.118.407l1.425 12.46c.06.222.233 1.426.262 1.69.123.751.503 4.074.554 4.834.201.51.39 2.17.46 2.775.06.53-.23.798-.612.85-.385.05-.965-.063-1.13-.579-.159-1.704-.514-4.186-.7-5.81-.047-.415-.02-.802-.072-1.255l-.07-.605c-.004-.037-.122-.443-.13-.519l.053-.16s-.096-.217-.1-.255c-.004-.038.018-.463.01-.538l-.166-1.435c-.386-.6.211-.948-.73-.822l-1.083.144c-.14.019-1.1.301-1.234.357-.07.01-1.018.098-1.153.154-.035.005-.873.117-.812.339l.298 2.606c.268 2.341.8 5.759 1.073 8.137.017.152.042.685.063.873-.113.246-.387.32-.668.358-.28.038-.566 0-.814-.312-.314-1.185-.467-3.465-.648-4.744zM430.684 45.793l.035-.004-.047-.109.012.113zm-.039-.34l.034-.004-.043-.071.01.075zm-.16-.476l.105-.014-.118-.1.013.114zm-4.623 4.03c.626-.084 1.265-.361 1.89-.445.973-.13 1.843-.247 2.764-.524l.09-.127-.002-.038c-.08-.68-.498-1.887-.719-2.586-.125-.481-.461-2.505-.696-2.704-.003-.956-.382-1.48-.553-2.377-.317-1.222-.558-2.415-.908-3.632-.24-.237-.264-.77-.377-1.138-.053-.146-.204-.854-.252-.962-.008-.075-.147-.67-.154-.746l-.407-1.4c-.013-.114-.143-.633-.156-.746l-.14.019c-.034.005-.03.349-.046.504.088 1.406.34 2.981-.036 4.335l-.216 9.875.021.189-.125 2.315.022.189zm-.252-15.214c.07-.01.053-.16-.017-.15-.07.008-.052.159.017.15zm-.45 14.62c.064-.048.06-.086-.015-.114-.034.005-.021.118.014.113zm-.058-.491l.114.061.376-12.195c.182-.255.1-.665.066-.967l-.01-.075-.095.089-.269 3.522c-.205.373-.315 8.395-.207 9.338l.025.227zm-1.02 6.228c.015-.5-.081-1.024.072-1.542.34-4.145.428-8.333.372-12.54l1.046-10.638c.035-.311.38-.395.588-.423.624-.085.782.661 1.197.912.854 1.916 1.355 4.147 1.804 6.232.361.373.555 2.378.792 2.92.277 1.19 1.617 6.756 1.963 7.936.152.707 1.131 4.024 1.384 4.718.079.066.66 1.75.698 2.09.027.227-.273.381-.409.438l-.035.005c-1.807.243-1.401-1.153-1.838-2.512a1.422 1.422 0 00-.178-.321c-.266-.462-.368-1.98-.785-2.232-.07.01-.352.01-.421.018-1.043.141-2.203.488-3.204.699-.16.136-.335.16-.508.183-.242.033-.45.06-.709-.02-.194.142-.125.745-.143.9-.07.93-.006 1.802-.006 2.722-.025 1.037-.286 2.146-1.468 2.305-.139.018-.265-.463-.28-.614-.049-.415.047-.811.069-1.236z"/><path fill="#FC524C" d="M17.67 104S-5.738 84.9 1.33 60.913C6.86 42.137 20.531 36 38.904 36c4.308 0 8.871.337 13.653.928 8.998 1.111 15.324 3.3 19.65 6.193-.246.52-.475 1.053-.683 1.595C66.359 58.163 69.066 68.158 75 75.514c-3.08 3.384-7.416 4.885-13.168 5.388-10.158.888-34.447 2.22-39.747 7.551-5.299 5.33-6.623 9.772-4.416 15.547"/><path fill="#FFF" d="M17.845 74.549c.04-.005.03-.079-.01-.075-.08-.027-.066.084.01.075zm-.09-.704l-.004-.038c-.006-.037-.09-.102-.13-.097l.014.111c.04-.004.082.028.12.024zm-.176-.469c.071-.046.039-.305-.043-.333-.047-.07.01.375.043.333zm-.065-1.421l-.01-.075-.115.014.125.06zm-.063.42c.115-.013.092-.198-.024-.184-.076.009-.052.194.024.185zm-.156-1.222c.077-.01.066-.084-.01-.075-.042-.032-.023.116.01.075zm.015-.793l-.056-.444c-.067-.52-.095-.742-.281-1.283l-.062.12.052.407c.057.445.095.742.347 1.2zm-.484-2.274c.076-.01.056-.158-.02-.148-.076.009-.057.156.02.148zm8.2 7.296c-.247-1.927-.383-3.905-.634-5.87l-.388-3.039c-.02-.148-.328-1.654-.352-1.84-.033-.259.006-.564-.185-.842l-.268.031c-.957.115-1.862.337-2.818.451l-1.455.174c-.32-.075-.474-.056-.78-.02-.153.02-.306.038-.445.167l.615 4.819c.298 2.334.635 4.665.934 7 .004.037-.02.153-.02.153l-.12.277-.68.157c-.153-.283-.315-.038-.554-.084 0 0-.18-.204-.22-.2-.043-.032-.167-.092-.205-.088l-.147-1.149a.913.913 0 01.053-.194l-.015-.111c-.005-.038-.123-.362-.128-.4l-.01-.073c-.01-.074-.019-.148.048-.232l-.284-2.223c-.1-.177-.118-.325-.147-.547-.015-.111-.024-.186.038-.306l-.104-.815c-.28-2.187-.755-4.388-1.072-6.57l-1.552-10.012-.005-.037c-.009-.074.05-.532.04-.607L14 52.055c-.009-.375.384-.347.613-.375.345-.041 1.076-.091 1.358.289l.047.371c.152 1.186.261 2.34.412 3.525.17 1.335.384 2.701.554 4.036.02.148.081.33.015.412l.108.853c.09.704.11 1.153.275 1.848.197.315 1.067.136 1.378.136.076-.009.617-.036.695-.045l1.224-.147c.038-.005.148-.056.148-.056l.077-.008a.881.881 0 01.157.018l.537-.064c.344-.041 1.54-.109 1.78-.364l-.063-.482c-.23-1.816-.73-3.6-.891-5.462-.33-.45.017-1.093-.348-1.502l-.411-3.224s-.053-.106-.096-.139c-.033-.26.058-.458.278-.56.039-.005.302-.074.34-.079.345-.04 1.46-.137 1.522.345.33 2.896.838 5.657 1.212 8.585.086.667.047 1.274.123 1.867.213 1.668.56 3.169.734 4.841.139.172.115.288.134.436.061.482-.068.986.127 1.603l.583 4.559c.004.037.1.176.105.213l.018.148c.005.038-.01.528 0 .602.009.075.142.51.152.585l.075.593c.057.445.09 1.004-.56 1.083-.23.027-1.163-.275-1.301-.447l-.086-.667zM28.1 71.335l-.018-.148c-.024-.185.07-.346.052-.494l-.005-.037c-.004-.037-.095-.138-.136-.17l-.125-1c.032-.04.094-.16.089-.198a.803.803 0 00-.145-.245l-.014-.11c-.07-.554-.027-1.123-.097-1.678l-.107-.85a.336.336 0 01-.145-.245c-.015-.11.014-.19.085-.235l-.079-.628c-.08-.629-.342-1.198-.416-1.79-.014-.11.09-.198.07-.345-.023-.185-.154-.32-.172-.467-.028-.222.07-.346.051-.494-.134-1.072-.4-1.978-.498-3.055-.408-.513-.28-1.316-.435-1.936l-.574-2.445c-.088-.401.033-.641-.207-1.025-.022-.185-.143-.846-.166-1.03-.038-.297-.093-1.04-.098-1.077-.089-.703.43-1.14 1.247-1.315.222-.064.686-.009.926-.225 1.926.14 3.91-.176 5.831-.071.423.023.685.291.732.66.033.26-.424.578-.687.61-.488.06-.92-.038-1.376-.02-.386-.029-1.753.025-1.946.011l-2.443.297c-.038.606.054 1.345.12 1.862.144 1.146.424 2.163.602 3.267.047.07.116.924.126.998.055.143.167.73.22.836l.083.065.113-.014c.037-.004.367-.12.442-.128l.075-.01c.771.057 1.42.053 2.138.004l.902-.11c.188-.023.799-.023.954-.004.113-.013.361.144.384.329.07.554-.761.918-1.25.978-1.203.146-2.378.213-3.619.364.103.814.238 1.585.33 2.325.014.11-.055.157-.046.23l.005.037.084.065.349 2.772c.155.02.15.282.15.282.037.296-.062.42-.035.642l.028.222c.048.07.165.393.17.43.004.037-.052.194-.09.198l.004.037c.042.333.188.578.23.91.079.63.045 1.272.12 1.863.167 1.33.353 2.509.61 3.941.014.11.14.509.154.62l.301-.037c1.73-.21 3.421-.716 5.113-.922.263-.032.893.116.935.45.084.664-1.138.663-1.492.894-1.132.1-2.48.301-3.594.55-.597.11-1.059.391-1.66.464-.45.055-1.198-.117-1.503-.417-.112-.588-.53-3.614-.647-4.238M38.716 73.42c-.06-.488-.068-1.48-.147-2.118-.014-.112-.019-.15-.108-.254.016-.192-.077-.944-.139-1.127-.004-.038-.074-.296-.08-.333l-.003-.038c-.047-.376-.126-1.015-.06-1.405-.255-1.761-.15-3.377-.364-5.105l-.005-.038a.545.545 0 00-.093-.14l-.01-.076c-.036-.3.04-.615-.007-.991-.014-.112-.113-.597-.117-.634-.019-.15-.256-1.456-.27-1.57-.014-.112-.037-.91-.046-.985-.01-.076-.106-1.17-.156-1.583-.028-.225-.202-1.311-.234-1.574-.13-.137-.116-.328-.14-.517-.046-.376.035-.652-.012-1.028a5.41 5.41 0 00-.089-.41l-.107-.253c-.005-.037.046-.235.046-.235l-.005-.038c-.013-.112-.097-.177-.116-.328-.037-.3.085-.545.048-.846-.037-.3-.234-.657-.27-.958l.046-.235L36 48.346l.065-.084c.034-.042.203-.216.24-.22.338-.042 1.657-.167 1.726.397l.214 1.728-.052.197c.135.785.082 1.593.222 2.415l-.057.16.112.901c.133 2.31.359 4.763.728 7.12-.128.208-.057.466-.035.654l.051.413.132.136a.652.652 0 01-.085.24c.078.334.25 1.724.246 1.992.06.488.134 1.09.002 1.564l.813 6.576c.009.075.107.254.225.277.113-.013.605-.036.718-.05.976-.121 1.806-.491 2.82-.617.187-.023.863-.107.914.306.027.226-.344.31-.348.578-1.436.407-2.877.776-4.378.962-.338.041-1.492-.044-1.547-.495l-.01-.075M46.717 73.42c-.06-.488-.068-1.48-.148-2.118-.014-.113-.019-.15-.108-.254.015-.193-.078-.944-.139-1.127-.004-.038-.074-.296-.08-.334l-.003-.037c-.047-.376-.126-1.015-.06-1.405-.256-1.762-.15-3.377-.364-5.105l-.005-.038c-.004-.038-.092-.141-.092-.141l-.01-.075c-.037-.301.038-.615-.009-.992-.014-.112-.112-.596-.116-.633-.019-.15-.256-1.457-.27-1.57-.014-.113-.037-.91-.046-.986-.009-.075-.106-1.17-.157-1.583-.028-.225-.2-1.31-.232-1.573-.132-.136-.117-.329-.14-.517-.047-.376.033-.653-.014-1.028a5.3 5.3 0 00-.088-.41l-.108-.253c-.004-.038.047-.235.047-.235l-.004-.038c-.014-.112-.098-.178-.117-.328-.036-.301.085-.545.048-.846-.037-.3-.233-.657-.27-.958l.046-.235L44 48.346l.065-.084c.034-.042.203-.216.24-.22.338-.042 1.657-.167 1.726.396l.214 1.729-.052.197c.134.785.082 1.592.221 2.414l-.056.16.112.902c.133 2.31.359 4.763.727 7.12-.127.208-.057.466-.034.653l.05.414.132.136a.64.64 0 01-.085.24c.08.334.252 1.724.247 1.991.06.489.134 1.09.002 1.564l.812 6.577c.01.075.108.253.225.277.113-.014.606-.037.719-.05.976-.12 1.805-.492 2.82-.617.186-.023.863-.107.914.306.027.226-.343.31-.348.577-1.437.407-2.877.777-4.378.963-.338.041-1.491-.045-1.547-.496l-.01-.075"/><path fill="#FFF" d="M60.218 62.246l-.023-.185-.095.125.118.06zm-.121-.699c.036-.004.022-.115-.019-.147-.08-.066-.05.194.019.147zm.035.296l-.008-.073c-.037.005-.078-.028-.113-.024l.005.037c.035-.004.08.065.116.06zm-.792-5.947c-.072.01-.117-.06-.044-.069.035-.004.08.065.044.07zm.11 1.827l.074-.01c-.01-.374.135-.392.091-.762l-.557-2.784-.303.226.005.037c.027.222.378.704.386.777l.018.148c-.08-.064-.121-.097-.23-.083.14.846.379 1.605.517 2.451zm-.595-3.718l-.049-.407-.11.014a.877.877 0 00.159.393zm-.136.092c.036-.005.026-.078-.009-.074-.036.005-.022.116.01.074zm-.22-.91l.181-.024c-.018-.148-.108-.287-.234-.42-.037.004-.06.12-.06.12.014.11.077.328.113.323zm-.162-.732l.072-.009-.008-.074-.073.01.009.073zm-.395-1.151c.072-.01.059-.12-.014-.111-.072.009-.059.12.014.11zm-.022-.185c.03-.042-.019-.148-.06-.18-.036.004.023.184.06.18zm-.263-.644c.073-.009.056-.157-.017-.148-.072.01-.054.157.017.148zm-.53-.758a.075.075 0 00-.019-.148c-.072.009-.054.157.018.148zm-1.893 20.785c.645.782 1.48 1.615 2.383 1.5 2.53-.32 1.757-10.663 1.376-13.207l-.139-.846c-.053-.444-.51-2.715-.6-3.154-.154-.357-.722-1.411-.699-1.828l-.598-1.614c-.005-.337-1.293-3.103-1.763-3.044-.542.068-1.126.705-1.41 1.08-2.232 2.799-2.113 6.502-1.857 10.15.01.074-.018.453-.008.528l.3 1.877c.473 3.32.954 6.077 3.015 8.558zM50 55.126c.06-.42.006-.864.025-1.318.01-.526.158-.508.236-1.081.309-1.391.563-2.625 1.432-3.637.063-.083.691-.651.791-.739l.063-.083c.805-.628 1.85-1.098 2.906-1.156-.014-.111.136-.093.208-.102 1.085-.137 1.978 1.177 2.351 2.144.527 1.322 1.212 3.039 1.72 4.514.446 1.26.574 2.632.768 3.923.523 3.426.55 6.99.46 10.495.005.037-.018.153-.018.153-.41 2.982-1.434 4.538-2.878 4.721-4.952.627-6.782-6.315-7.41-10.592A60.918 60.918 0 0150 55.126z"/><path fill="#FC524C" d="M595.787 106s-23.563-19.1-16.448-43.087C584.906 44.137 598.669 38 617.164 38c4.337 0 8.93.337 13.743.928 25.824 3.168 29.785 15.102 27.563 27.095-2.223 11.993-8.003 15.99-18.226 16.879-10.226.888-34.677 2.22-40.011 7.55-5.335 5.33-6.668 9.773-4.446 15.548"/><path fill="#FFF" d="M615.305 71.268c-.852-2.57-2.957-6.408-4.99-9.2l1.566-.794c2.116 2.782 4.24 6.532 5.119 9.098l-1.695.896zm-11.24-8.192c-.059.207-.24.343-.573.385-.467 3.56-1.544 7.425-3.02 9.887-.397-.264-1.116-.6-1.588-.77 1.434-2.343 2.434-6.14 2.855-9.838l2.327.336zm8.775-2.035c.095-1.066.18-2.672.245-4.217l-5.528.69 2.006 16.379c.248 2.019-.43 2.474-4.317 2.96-.182-.548-.557-1.326-.932-1.85a46.592 46.592 0 001.89-.207l1.113-.139c.361-.045.458-.17.414-.535l-2.008-16.378-4.47.558c-.583 2.152-1.328 4.124-2.212 5.657-.374-.294-1.082-.775-1.556-.972 1.679-2.858 2.779-7.466 3.183-11.987l2.381.33c-.03.202-.212.34-.577.356a43.762 43.762 0 01-.77 4.766l12.277-1.534.975-.092c.058.476-.157 4.233-.494 6.325l-1.62-.11zm-19.109 1.703c-.717 1.741-1.506 3.349-2.351 4.735-.3-.361-.97-1.017-1.38-1.365 2.225-3.467 4.073-9.108 5.02-14.494l2.391.414c-.076.294-.319.381-.63.391a63.107 63.107 0 01-1.823 6.977l.833.123c-.034.175-.158.333-.514.406l2.185 17.836-1.861.233-1.87-15.256zM643.776 58.108l.224 1.85-6.748.85 1.146 9.425c.266 2.192-.531 2.64-5.495 3.206-.174-.498-.586-1.286-.934-1.82 1.348-.14 2.583-.267 3.368-.365.953-.12 1.232-.156 1.16-.754l-1.15-9.453-6.861.863-.226-1.851 6.863-.863-.589-4.84.93-.06c1.304-1.436 2.627-3.424 3.58-5.162l-10.782 1.356-.22-1.794 12.213-1.536.35-.16 1.598.753c-.067.153-.252.264-.413.34-1.2 2.292-3.28 5.3-5.193 7.333l.43 3.53 6.75-.848zm-21.964-2.21c-.267 2.722-.586 5.48-.889 7.889 1.255.506 2.557 1.152 3.83 1.802.798-2.79 1.207-6.195 1.12-10.202l-4.061.51zm4.811-2.514l1.1.151-.121.42c.222 5.09-.183 9.245-1.199 12.583 1.506.909 2.809 1.814 3.684 2.687l-.958 1.711c-.811-.823-2-1.714-3.358-2.585-1.106 2.828-2.746 5-4.821 6.649-.31-.452-.927-1.07-1.367-1.418 1.962-1.404 3.502-3.476 4.59-6.215a37.692 37.692 0 00-3.459-1.791l-.184 1.295-1.7-.653c.395-2.594.823-6.32 1.19-10.095l-2.803.352-.217-1.794 3.192-.401c.189-2.192.331-4.292.446-6.157l2.331-.004c-.003.204-.157.339-.519.413a200.336 200.336 0 01-.464 5.522l4.313-.542.324-.128z"/><path fill="#00C2B4" d="M215.398 102s5.044-11.184-6.65-11.184c-.808 0-1.693.053-2.667.167-12.187 1.424-25.78 5.112-36.905 5.113-2.645 0-5.15-.209-7.465-.706-8.117-1.743-16.995-10.272-19.711-20.37 4.7-3.928 7.55-9.308 8.716-15.964.408-2.33.044-4.991-.887-7.758 2.746-2.38 6.224-4.603 10.55-6.586C169.28 40.632 177.538 39 184.966 39c21.454 0 36.01 13.607 39.307 21.136 1.017 2.322 2.01 5.338 2.728 8.709-.139.424-.274.853-.405 1.291-2 6.706-1.57 13.026.081 18.646-1.719 5.445-5.173 10.264-11.278 13.218"/><path fill="#9E6900" d="M226.5 89c-1.749-5.638-2.203-11.978-.086-18.705.138-.439.28-.87.428-1.295 1.39 6.17 1.812 13.527-.343 20"/><path fill="#FFF" d="M165.558 73.735s.042-.072.044-.11c.005-.11-.027-.259-.185-.228l-.001.036c-.005.111.104.263.142.302zm.716 4.871c.045-.146-.653-1.911-.636-2.28-.176-1.301-.469-2.57-.566-3.904-.03-.186-.022-2.145-.072-2.776l.05-1.994c.008-.185.017-.369.022-.517.008-.184.056-.367.063-.552.009-.184.057-.367.063-.551-.03-.186.018-.37.024-.517.206-2.025.416-4.123 1.039-5.947.001-.037.084-.145.085-.181.455-.61.613-1.528 1.179-2.06.564-.495 1.286-.984 2.032-1.213 1.025-.292 1.551.062 2.675.107l.079.003c.192.045 1.114.267 1.303.348.941.703 1.405 1.646 1.348 2.9l.038.039c-.238.988.147 1.928-1.108 2.248-.118.032-.625.049-.662.047l-.264-.195.017-.406c-.015-.519.09-1.106.113-1.66.005-.997-.325-2.341-1.565-2.39-2.83-.114-3.9 3.947-4.104 5.898l-.59 5.447c-.008.221.058 1.333.05 1.518l-.01 1.995c.018.444.314 2.564.367 3.083-.005.148.493 2.053.616 2.76.298 1.195 1.151 2.966 2.586 3.024.31.012.66-.01.87-.335.162-.178.711-1.19.798-1.41.25-.36.573-2.416.922-2.402l.04.001c.039.002.308.05.347.051l.775.03c-.002.038.037.04.036.076.142.265.248.528.232.86-.024.554-.279 1.06-.455 1.534-.69 1.562-1.483 2.788-3.382 2.712-.581-.023-.773-.068-1.459-.354-.458-.167-1.406-.722-1.66-1.065-.26-.307-.849-1.032-.847-1.069l.003-.074-.392-.829zM176.003 82.342c.154-.961.232-1.888.272-2.854.006-.149.008-.186-.063-.3.096-.48.11-.777.13-1.297.02-.445-.036-.894-.016-1.377.058-1.374.192-2.746.254-4.194l.079-1.857-.074-.04.07-1.635c.069-1.633.21-3.19.282-4.9.091-2.116-.119-4.283-.031-6.363.025-.557.55-.535.924-.52l.15.007c.525.022 1.049.118 1.019.824l-.172 4.048c.034.075.05.597.084.673l-.003.075c-.11.813-.01 2.008-.341 2.738l-.194 4.532c0 .037-.081.145-.083.183l-.005.111c-.002.037.068.188.068.188l-.005.112s-.08.108-.081.145l-.002.038c-.003.073.057.448.053.522l-.271 6.426c-.083.145-.088.257-.095.405l-.01.26c-.006.149.009 1.563.004 1.712l-.004.037c-.006.185-.087.33-.096.517-.023.52.067 1.082.048 1.527-.005.112-.054.407-.058.482-.003.074-.205.4-.32.433l-.15-.006c-.449-.019-1.12-.159-1.366-.578l.003-.074M189.334 78.497c.11.004.116-.184.007-.19-.07-.002-.079.186-.007.19zm-1.622-11.11c.074.003.082-.186.008-.19-.072-.002-.08.187-.008.19zM183 70.771c-.072-.003-.069-.116.005-.113.035.001.034.077-.005.113zm.1 3.86l.107.005c.036.002.656-.046.764-.042.51-.015 2.975.092 3.517.154l.366-.097.004-.076c.043-1.057-.418-2.249-.559-3.238-.333-2.548-.667-5.095-1.073-7.608-.178-1.028-.31-2.244-.67-3.205-.334.174-.516 1.981-.609 2.507-.144.862-.473 1.793-.726 2.69-.344 1.308-.654 2.693-1 4.077-.19.218.016.492-.315.629-.051.338-.18.824-.197 1.239l-.003.075c-.002.038.067.154.067.154-.04.074-.275.517-.349.552l.17.272c.019.455-.331 1.006-.352 1.535-.002.038-.045.224.099.269.107.004.648.104.758.108zm-4.095 6.929c.091-.45.319-1.574.355-1.61l.08-.186 3.183-14.945c.198-.445.22-.973.347-1.421.237-1.35.472-2.664.744-4.013.038-.036.118-.26.12-.297.006-.15.325-1.725.416-2.212l.005-.076c0-.038-.103-.194-.103-.194.125-.372.463-.622.824-.606l.109.005.214.085c.143.044.76.07.906.04l.38.47c.036.039-.012.34-.014.377.085.609.349 1.225.543 1.838.222.804.292 1.752.475 2.63.366 1.717.733 3.472.843 5.216.064 1.099.35 2.094.38 3.192l.07.08.37 2.472s.031.153.066.193c.258.805.332 1.677.407 2.512-.002.075.06.305.059.343.355 1.112.414 2.325.586 3.466.027.266.41 2.437.566 3.087.03.153.065.192.064.23l-.01.226c-.016.415-.385.55-.712.536-.361-.016-.9-.153-1.104-.54-.088-.533-.116-1.593-.312-2.168l-.633-4.073c-.029-.19-.135-.27-.28-.277-.507-.022-.983.032-1.491.01a7.534 7.534 0 01-1.264-.13c-.383.436-2.931-.28-3.242.236-.42.51-.256.934-.355 1.573 0 0-.158.332-.198.444-.322.742-.727 4.467-1.27 4.443-.29-.012-1.148-.352-1.129-.806l.005-.15zM202.14 67.39c-.068-.003-.1-.079-.032-.076.035.002.067.078.032.076zm-.152 5.698c.035.002.04-.11.006-.148-.068-.078-.077.182-.006.148zm.007.709l.006-.186-.108.107.102.079zm-.021-8.353l.015-.41-.104-.004a.913.913 0 00.089.414zm.001 7.942l.003-.074c-.035-.002-.067-.04-.1-.042l-.004.037c.036.002.068.077.101.08zm-.009-4.177l.069.004c.049-.371.188-.365.201-.737l-.097-2.839-.318.173-.003.037c-.008.223.249.757.246.831l-.006.15c-.066-.078-.1-.117-.203-.122.001.858.11 1.645.111 2.503zm-.134-3.697c.035.002.038-.073.003-.075-.034 0-.038.11-.003.075zm-.107-1.683l.069.004.003-.075-.07-.003-.002.074zm.041.748l.173.008c.004-.15-.058-.302-.156-.455-.035-.002-.075.108-.075.108-.003.112.023.337.058.339zm-.229-2.136c.035-.036.005-.149-.028-.188-.035-.001-.007.187.028.188zm-.008.186c.07.003.074-.109.005-.111-.07-.004-.073.108-.005.111zm-.14-.864c.07.003.076-.146.006-.149-.069-.003-.075.146-.006.15zm-.384-.838c.104.005.11-.144.007-.148-.07-.004-.075.145-.007.148zm-4.946 20.173c.485.88 1.14 1.841 2.007 1.88 2.422.11 3.275-10.217 3.306-12.788v-.858c.017-.447-.066-2.763-.084-3.21-.089-.377-.46-1.513-.374-1.92l-.316-1.692c.047-.333-.74-3.277-1.188-3.298-.52-.023-1.166.507-1.49.828-2.52 2.385-2.975 6.056-3.29 9.696-.004.074-.086.443-.09.517l-.005 1.902c-.062 3.353-.033 6.151 1.524 8.943zm-2.565-16.037c.121-.405.138-.852.225-1.295.09-.518.226-.475.386-1.027.503-1.32.93-2.494 1.9-3.344.072-.072.749-.526.856-.596l.071-.071c.851-.484 1.902-.772 2.902-.653.005-.11.142-.067.21-.064 1.04.047 1.676 1.492 1.88 2.508.291 1.393.673 3.2.923 4.74.226 1.315.14 2.691.123 3.996-.033 3.466-.552 6.985-1.17 10.425-.002.037-.042.147-.042.147-.84 2.87-2.037 4.234-3.42 4.17-4.741-.213-5.4-7.365-5.334-11.687.026-2.46.187-4.765.49-7.249z"/><path fill="#70B8FB" d="M82.8 82c-2.598-1.922-5.005-4.121-7.032-6.63 2.34-2.567 3.948-6.229 4.897-11.38 1.422-7.712.276-15.398-7.665-20.7C78.966 30.73 95.888 25 111.216 25c6.657 0 13.012 1.08 18.04 3.153 4.271 1.76 8.883 5.476 12.744 9.947C120.62 50.846 100.592 66 82.8 82"/><path fill="#67B0FA" d="M112.24 94S94.823 91.217 82 81.87c18.047-15.987 38.361-31.132 60.048-43.87 3.546 4.043 6.467 8.702 7.952 13.092-8.37 7.23-9.931 15.912-7.838 23.665-5.001 4.165-12.097 6.695-21.481 7.374-18.213 1.319-16.88 7.034-8.44 11.869"/><path fill="#6F3B4B" d="M74.852 76c-5.59-7.267-8.141-17.14-3.274-30.424.196-.536.411-1.063.644-1.576 7.544 5.289 8.633 12.956 7.282 20.648-.902 5.139-2.43 8.791-4.652 11.352"/><path fill="#2D94AE" d="M141.86 75c-2.152-7.535-.548-15.973 8.057-23 .958 2.683 1.332 5.262.912 7.522-1.2 6.453-4.133 11.67-8.97 15.478"/><path fill="#FFF" d="M90.845 67.548c.039-.004.03-.079-.01-.074-.08-.028-.066.084.01.074zm-.09-.704l-.005-.037c-.005-.037-.09-.102-.129-.098l.015.112c.038-.005.082.028.12.023zm-.176-.468c.072-.046.039-.306-.043-.334-.047-.069.01.376.043.334zm-.066-1.422l-.01-.074-.114.013.124.06zm-.062.421c.115-.014.09-.2-.024-.185-.076.01-.052.194.024.185zm-.156-1.223c.077-.009.067-.083-.01-.074-.042-.033-.023.116.01.074zm.015-.792l-.057-.445c-.066-.519-.094-.74-.28-1.283l-.062.12.052.408c.056.445.095.741.347 1.2zm-.484-2.275c.076-.009.056-.157-.02-.148-.076.01-.057.157.02.148zm8.2 7.297c-.247-1.928-.384-3.906-.634-5.87l-.389-3.039c-.019-.148-.328-1.654-.35-1.84-.034-.259.005-.565-.187-.843l-.267.032c-.958.115-1.862.336-2.818.45l-1.456.175c-.32-.075-.473-.057-.78-.02-.153.018-.305.037-.445.166l.616 4.819c.298 2.335.635 4.665.934 7a.863.863 0 01-.02.153l-.12.278-.68.157c-.151-.283-.315-.038-.554-.084 0 0-.18-.204-.22-.2-.042-.033-.167-.093-.205-.088l-.147-1.15c-.005-.036.052-.194.052-.194l-.014-.111c-.005-.037-.123-.362-.128-.399l-.01-.073c-.01-.075-.018-.15.048-.232l-.284-2.224c-.1-.176-.119-.324-.147-.547-.015-.111-.024-.185.038-.306l-.104-.815c-.28-2.186-.755-4.387-1.072-6.57l-1.55-10.011-.006-.038c-.01-.074.048-.533.039-.607L87 45.054c-.009-.375.384-.347.614-.374.344-.042 1.075-.092 1.358.289l.046.37c.153 1.187.261 2.34.412 3.526.17 1.334.384 2.7.555 4.035.019.149.08.33.014.412l.108.853c.09.704.11 1.153.276 1.849.196.315 1.066.135 1.377.135.076-.009.618-.036.695-.045l1.225-.147c.037-.004.147-.055.147-.055l.077-.01a.916.916 0 01.158.02l.536-.065c.344-.041 1.54-.109 1.78-.363l-.062-.482c-.233-1.816-.732-3.6-.892-5.462-.33-.45.016-1.094-.348-1.501l-.411-3.225s-.052-.107-.096-.14c-.033-.259.058-.458.278-.56.04-.004.302-.073.34-.077.345-.042 1.46-.138 1.522.343.33 2.896.838 5.657 1.212 8.586.085.667.046 1.274.123 1.866.212 1.669.56 3.17.734 4.842.138.172.114.288.133.436.063.481-.068.986.13 1.603l.581 4.559c.005.036.1.176.104.213l.018.148c.006.037-.008.528 0 .602.01.075.143.51.152.584l.076.593c.056.445.09 1.005-.56 1.084-.23.027-1.162-.276-1.302-.447l-.085-.667zM109.217 57.246l-.022-.185-.095.125.117.06zm-.12-.698c.035-.005.022-.116-.018-.149-.082-.064-.05.195.018.149zm.035.295l-.008-.073c-.037.004-.077-.028-.114-.024l.005.037c.037-.005.08.065.117.06zm-.791-5.946c-.074.009-.118-.06-.045-.07.037-.004.08.065.045.07zm.11 1.826l.073-.01c-.01-.373.135-.392.09-.762l-.558-2.784-.301.226.004.037c.026.222.38.704.387.777l.02.149c-.082-.065-.122-.098-.232-.084.14.846.378 1.605.517 2.45zm-.595-3.718l-.05-.407-.11.014a.847.847 0 00.16.393zm-.137.093c.036-.005.028-.08-.01-.074-.035.004-.02.115.01.074zm-.22-.912l.182-.023c-.02-.147-.11-.286-.235-.42-.037.004-.06.12-.06.12.014.11.078.328.113.323zm-.162-.73l.072-.01-.008-.074-.074.01.01.073zm-.395-1.152c.072-.01.058-.12-.014-.111-.073.009-.058.12.014.11zm-.024-.185c.032-.042-.016-.148-.056-.18-.037.004.02.184.056.18zm-.26-.643c.072-.01.054-.158-.018-.148-.072.009-.054.157.018.148zm-.533-.76c.109-.013.091-.161-.018-.148-.072.01-.055.158.018.149zm-1.89 20.785c.644.783 1.479 1.616 2.383 1.502 2.53-.32 1.756-10.665 1.374-13.208l-.138-.846c-.053-.445-.512-2.715-.6-3.154-.153-.356-.721-1.411-.699-1.827l-.599-1.614c-.003-.338-1.293-3.105-1.761-3.045-.543.068-1.128.705-1.412 1.08-2.23 2.798-2.113 6.502-1.856 10.15.01.074-.018.454-.008.527l.3 1.878c.474 3.32.954 6.076 3.016 8.557zM99 50.126c.06-.42.006-.865.024-1.318.01-.527.16-.508.236-1.081.31-1.392.564-2.626 1.432-3.637.065-.083.69-.651.792-.739l.063-.083c.806-.628 1.85-1.098 2.906-1.157-.014-.11.137-.092.209-.101 1.084-.137 1.977 1.177 2.35 2.144.527 1.323 1.211 3.04 1.719 4.514.446 1.259.575 2.632.769 3.922.524 3.427.55 6.992.46 10.496.004.037-.018.153-.018.153-.41 2.981-1.433 4.538-2.878 4.721-4.952.627-6.783-6.315-7.409-10.593a60.553 60.553 0 01-.655-7.24zM112.718 67.42c-.062-.489-.07-1.48-.149-2.118-.013-.113-.018-.15-.106-.254.013-.193-.08-.944-.14-1.128-.005-.037-.075-.296-.079-.333l-.005-.038c-.046-.375-.127-1.014-.058-1.403-.257-1.763-.152-3.378-.365-5.106l-.005-.038c-.005-.038-.094-.141-.094-.141l-.008-.075c-.038-.3.038-.615-.008-.991-.014-.113-.114-.597-.119-.634-.016-.15-.255-1.457-.268-1.57-.013-.112-.037-.91-.047-.985-.008-.076-.105-1.17-.155-1.584-.028-.225-.202-1.31-.235-1.573-.13-.137-.115-.33-.138-.517-.047-.376.033-.653-.014-1.029-.013-.112-.09-.408-.09-.408l-.105-.254a1.552 1.552 0 01.047-.235l-.005-.037c-.015-.113-.098-.179-.117-.33-.037-.3.085-.544.047-.845-.037-.3-.232-.658-.27-.958l.046-.235-.278-2.254.067-.085c.031-.042.201-.216.238-.22.339-.042 1.657-.167 1.727.396l.212 1.729-.051.197c.135.785.083 1.593.223 2.415l-.058.16.113.9c.132 2.312.358 4.764.725 7.122-.125.206-.055.465-.031.653l.05.413.131.136a.69.69 0 01-.085.24c.079.333.25 1.724.245 1.991.062.489.135 1.09.004 1.564l.812 6.576c.01.076.108.254.225.278.111-.014.605-.037.718-.051.976-.12 1.806-.49 2.82-.616.187-.024.863-.107.913.306.029.226-.343.31-.346.577-1.438.407-2.878.776-4.379.963-.338.041-1.49-.045-1.547-.496l-.008-.075M129.729 61.47c.109-.015.086-.201-.023-.187-.072.009-.05.196.023.187zm-3.36-10.653c.071-.01.049-.196-.023-.188-.074.01-.052.197.022.188zm-4.126 4.134c-.073.01-.087-.103-.013-.112.035-.005.045.07.013.112zm.709 3.78l.107-.013c.035-.005.642-.158.75-.171.5-.102 2.955-.417 3.502-.45l.347-.158-.008-.075c-.127-1.046-.77-2.14-1.067-3.09-.733-2.449-1.464-4.898-2.265-7.301-.337-.982-.66-2.155-1.17-3.039-.3.229-.196 2.037-.204 2.57-.007.874-.185 1.845-.294 2.77-.133 1.345-.22 2.762-.343 4.181-.154.248.094.482-.212.673.003.342-.048.841.002 1.252l.01.075c.002.038.089.14.089.14-.027.08-.19.556-.258.603l.21.239c.091.444-.167 1.046-.104 1.57.004.037-.01.229.14.247.108-.013.658-.008.768-.022zM120 66.247c.018-.458.064-1.603.096-1.644l.05-.197.781-15.245c.127-.472.064-.996.119-1.458.02-1.37.045-2.7.1-4.074.031-.042.078-.276.073-.313-.018-.15.047-1.752.061-2.247l-.008-.075c-.005-.037-.131-.173-.131-.173.064-.388.357-.691.718-.738l.11-.013.224.047c.149.018.763-.06.903-.116l.45.397c.04.033.04.338.046.375.18.584.539 1.145.827 1.716.345.753.567 1.673.886 2.505.635 1.627 1.273 3.291 1.658 4.988.24 1.07.68 2 .881 3.076l.082.065.76 2.37s.053.145.093.178c.384.748.595 1.594.8 2.402.01.076.11.29.115.328.524 1.034.776 2.216 1.126 3.31.069.257.792 2.327 1.049 2.94.054.145.094.177.1.215l.026.224c.049.412-.295.608-.62.65-.36.045-.915.002-1.178-.344-.17-.51-.367-1.547-.65-2.08l-1.273-3.898c-.058-.183-.177-.244-.32-.225-.505.064-.965.2-1.47.264-.47.06-.724.093-1.274.087-.308.495-2.942.226-3.168.786-.335.574-.106.963-.103 1.607 0 0-.102.355-.126.472-.2.784-.01 4.518-.552 4.587-.289.037-1.19-.15-1.243-.6l-.018-.149z"/><path fill="#212A54" d="M120.453 161.307s22.262 3.397 29.684.567c7.42-2.835-2.855-6.8 0-16.432 2.854-9.631 6.279-35.693-4.567-23.796-10.847 11.898-5.708 19.83-3.425 13.032 2.284-6.799 13.13-23.23-6.85-28.329-19.979-5.099-30.824 5.1-16.554 16.43 14.27 11.332-13.699-23.228-17.124-10.197-3.425 13.03 8.562 15.297 12.557 16.43 3.997 1.133-12.557-14.73-14.84-.567-2.285 14.165 7.42 23.796 21.119 32.862"/><path fill="#EC9568" d="M133 166.627s-4.875 2.698-5.318 19.34c0 .018-10.195.898-13.662-7.625 1.028-2.268 1.517-5.06.364-8.567-3.546-10.793 18.616-3.148 18.616-3.148"/><path fill="#F7B68B" d="M115.732 128s-6.558 8.667-9.16 24.854c-2.603 16.188 3.76 22.817 17.4 24.072 13.64 1.256 19.617-13.836 20.355-17.753.738-3.918 12.098 2.312 11.66-7.242-.438-9.554-6.63-7.58-8.149-4.263-1.52 3.317-4.933 7.173-6.952 3.631-2.018-3.543 7.006-15.797.197-15.295-6.81.502-18.454.53-25.351-8.004"/><path fill="#212A54" d="M119.488 149c-.92 1.871-2.078 3.53-3.488 4.56l.342.44c1.521-1.116 2.714-2.845 3.658-4.762l-.512-.238M123.55 162c-.012.02-.387.627-1.09 1.22-.704.593-1.727 1.171-3.061 1.171-.898 0-1.945-.26-3.142-.977l-.257.537c1.267.756 2.405 1.049 3.399 1.049 1.502 0 2.655-.666 3.424-1.326.77-.66 1.166-1.317 1.177-1.334l-.45-.34M118.799 147.286l-.245-.127a7.942 7.942 0 01-10.714 3.397 7.948 7.948 0 117.319-14.11 7.945 7.945 0 014.29 7.06 7.907 7.907 0 01-.895 3.653l.245.127.245.127a8.495 8.495 0 00-3.632-11.456A8.498 8.498 0 00103 143.493a8.498 8.498 0 004.588 7.551 8.497 8.497 0 0011.457-3.632l-.245-.126M136.799 152.286l-.245-.127a7.95 7.95 0 01-10.714 3.397 7.95 7.95 0 01-4.29-7.062c0-1.232.288-2.482.896-3.653a7.944 7.944 0 0110.713-3.396 7.946 7.946 0 013.395 10.714l.245.127.244.127c.65-1.25.957-2.589.957-3.906a8.498 8.498 0 00-4.587-7.55 8.497 8.497 0 00-11.457 3.631 8.498 8.498 0 003.632 11.457 8.498 8.498 0 0011.455-3.632l-.244-.127"/><path fill="#212A54" d="M120 146.549l3.839 1.451.161-.549-3.839-1.451"/><g transform="translate(17 81)"><mask id="b" fill="#fff"><use xlink:href="#a"/></mask><path fill="#F7B68B" d="M633.901 86.852s-5.304 5.28 2.123 20.058c7.427 14.78 23.34 14.252 9.55 53.841-13.794 39.588-42.44-4.222-52.52-8.446-10.08-4.223-4.243-24.281 2.123-33.783 6.365-9.5 20.69-6.86 24.933-15.834 4.244-8.972 3.183-11.083-1.062-17.419-4.244-6.334 14.853 1.583 14.853 1.583" mask="url(#b)"/><path fill="#EC9568" d="M636.183 107.218c-5.453-1.79-10.43-4.367-14.742-7.558 2.6-6.53 1.327-8.839-2.393-14.39-4.244-6.335 14.853 1.582 14.853 1.582s-5.304 5.28 2.123 20.058c.053.105.107.205.16.308" mask="url(#b)"/><path fill="#FF7167" d="M595.177 118.522c3.946-5.888 10.95-7.115 16.715-9.331-.624 5.356 1.308 10.377 5.493 12.863 6.164 3.66 14.873.44 19.453-7.195a19.814 19.814 0 001.752-3.752c7.867 10.91 19.333 14.196 6.983 49.644-13.793 39.588-42.44-4.222-52.519-8.446-10.08-4.223-4.243-24.281 2.123-33.783" mask="url(#b)"/><path fill="#FF8900" d="M623.823 83.687s4.774 7.39 13.262 8.972c8.488 1.584 15.915-5.278 11.672-12.667-4.244-7.39-7.959 13.724.53 14.779 8.487 1.055 12.2-7.39 10.61-19.003-1.593-11.612 17.506-12.14 14.853-27.975-2.651-15.835-13.262-21.113-22.28-14.252-9.02 6.863 9.018 13.724 9.548 8.974.53-4.75 6.898-34.838-25.464-33.782-32.36 1.056-51.987 12.14-32.36 32.726 19.63 20.586 16.977-11.085 6.367-5.806-10.61 5.278-21.75 10.029-12.203 24.28 9.55 14.252 2.123 6.335-1.59 12.67-3.714 6.332 2.122 22.168 27.055 11.084" mask="url(#b)"/><path fill="#F7B68B" d="M654.06 56.766s-10.079 4.75-16.445-8.445l-6.366-13.196s-11.139 4.75-14.854-1.056c-3.712-5.806-12.2 19.002-10.61 38.004 1.593 19.003 18.703 30.373 36.605 17.419 5.835-4.223 9.85-4.419 15.384-6.333 12.202-4.224 6.366-15.836.53-13.724-5.834 2.11-5.834 6.333-7.957 3.695-2.122-2.64-1.83-11.788 3.714-16.364" mask="url(#b)"/><path fill="#FC524C" d="M615.287 171.136c5.233-11.77 8.76-18.933 20.737-37.305 3.717-5.702 7.932-8.927 12.038-10.639 3.768 6.702 4.884 16.401-2.489 37.56-7.497 21.515-19.38 18.395-30.286 10.384M595.177 118.522c1.919-2.865 4.567-4.624 7.441-5.932-3.314 5.828-8.927 18.103-11.92 38.194-6.658-6.253-1.311-23.62 4.479-32.262" mask="url(#b)"/><path fill="#212A54" d="M622.545 49.418l.003.022c.028.234.26 2.256.26 5.084 0 3.015-.267 6.948-1.314 10.595l.642.183c1.073-3.74 1.34-7.724 1.34-10.778 0-3.055-.267-5.18-.268-5.189l-.663.083M637.884 65.09c.202-1.209.432-2.708.432-4.207 0-1.22-.151-2.443-.616-3.51a4.911 4.911 0 00-.957-1.451 4.627 4.627 0 00-1.533-1.045 2.971 2.971 0 00-1.174-.245c-.492 0-.97.126-1.418.336-.785.37-1.493.993-2.126 1.712-.95 1.08-1.732 2.385-2.282 3.423-.55 1.038-.865 1.81-.869 1.817l.62.251.008-.02c.08-.195.825-1.946 1.955-3.627.564-.84 1.224-1.663 1.932-2.262.353-.3.717-.543 1.082-.709a2.647 2.647 0 011.098-.256c.297 0 .598.059.91.191a3.95 3.95 0 011.314.894c.524.543.872 1.225 1.089 1.997.215.771.299 1.63.299 2.504 0 1.43-.224 2.899-.424 4.098l.66.109M617.365 60.538c.002-.006.204-.862.407-2.095.202-1.234.406-2.843.406-4.364 0-.951-.079-1.867-.297-2.647a4.018 4.018 0 00-.448-1.057 2.272 2.272 0 00-.75-.756 2.051 2.051 0 00-1.066-.295c-.388 0-.775.103-1.15.28-.662.312-1.303.852-1.905 1.547-.901 1.042-1.717 2.438-2.313 3.974-.595 1.535-.969 3.209-.97 4.808h.67c-.004-2.28.827-4.806 1.974-6.738.572-.965 1.223-1.782 1.873-2.345.324-.282.647-.5.956-.644.307-.145.597-.217.865-.217.254.001.49.063.722.2.202.121.376.3.527.54.227.357.393.852.496 1.43.105.577.148 1.235.148 1.92 0 1.462-.199 3.045-.398 4.256a36.816 36.816 0 01-.364 1.903l-.025.11-.008.037.65.153M635.81 73.589v.005c-.019.094-.421 1.927-1.39 3.704-.482.889-1.108 1.761-1.88 2.401a4.78 4.78 0 01-1.27.765 4.117 4.117 0 01-1.519.286c-.775 0-1.654-.205-2.657-.703l-.3.595c1.078.536 2.063.772 2.957.772.649 0 1.248-.125 1.79-.343.952-.382 1.73-1.043 2.364-1.806.95-1.145 1.584-2.525 1.986-3.62.402-1.096.571-1.91.575-1.92l-.655-.136" mask="url(#b)"/><path fill="#212A54" d="M639.68 60.704a3.516 3.516 0 01-1.57.48h-.027l.001.067v-.066h-.001l.001.066v-.066.664c.017 0 .258 0 .618-.072a4.21 4.21 0 001.323-.503l-.345-.57M641.07 62.48c-.86.62-1.618.772-2.186.774a2.8 2.8 0 01-.752-.1 1.74 1.74 0 01-.199-.065l-.046-.018-.008-.005h-.002l-.083.172.085-.172h-.002l-.083.172.085-.172-.299.595c.032.016.524.258 1.304.258.693.002 1.609-.198 2.579-.902l-.393-.537M640.847 65.601l-3.006-1.055-.223.627 3.008 1.056M608.111 54.33l1.768 2.288.531-.406-1.768-2.288M607.758 57.439l1.944.528.176-.642-1.944-.527M607.606 58.897h1.403v-.698h-1.403z" mask="url(#b)"/><path fill="#4D4D4D" d="M440.732 122.114c-2.732.557-12.79 3.95-20.73-5.267-7.94-9.216 0-19.31-17.644-26.77-17.644-7.462-22.936-18.434-9.703-35.111 13.231-16.678 2.204-17.116 3.088-31.16.881-14.045 29.11-34.233 51.606-17.117 13.91 10.583 19.406 13.605 10.145 44.327-9.42 31.246 12.79 21.504 17.643 35.549 4.851 14.044-17.203 32.037-34.405 35.55" mask="url(#b)"/><path fill="#F7B68B" d="M419.12 61.549s5.734 5.705 4.41 12.727c-1.322 7.022-14.556 10.095-21.613 21.067-7.058 10.971-4.851 52.664-4.851 52.664s44.99 2.635 59.104-1.756c14.114-4.387-.44-49.592-4.41-57.052-3.97-7.461-3.53-11.85-11.91-11.412-8.38.439-5.292-14.922-3.53-21.944 1.765-7.022-17.2 5.706-17.2 5.706" mask="url(#b)"/><path fill="#EC9568" d="M422.725 76.383a52.08 52.08 0 0011.585-8.358c.185-4.296 1.228-9.061 2.01-12.182 1.765-7.022-17.2 5.706-17.2 5.706s5.734 5.705 4.41 12.727a6.653 6.653 0 01-.805 2.107" mask="url(#b)"/><path fill="#F7B68B" d="M417.796 9.323s-35.495 58.32 4.851 53.982c16.322-1.756 17.645-8.779 19.41-13.606 1.763-4.827 7.497 3.072 8.82-6.583 1.323-9.656-1.765-9.217-6.174-4.828-4.411 4.389-6.176 2.195-6.618-4.828-.44-7.022 6.176-8.776-7.055-8.776-13.234 0-18.085-4.829-13.234-15.361" mask="url(#b)"/><path fill="#FFDC68" d="M406.328 105.517l37.933-3.014 3.97 49.932h-39.257l-2.646-46.918" mask="url(#b)"/><path fill="#FFDC68" d="M411.846 83.757c-.012.016-1.199 1.478-2.384 4.253-1.184 2.774-2.366 6.862-2.366 12.123 0 2.785.332 5.899 1.167 9.319l.54-.13c-.825-3.379-1.152-6.448-1.152-9.189.002-5.178 1.162-9.19 2.323-11.907a22.43 22.43 0 011.592-3.086c.215-.346.396-.606.52-.779l.144-.194.037-.048.009-.011.003-.003-.433-.348M437.84 77.66c-.017.032-1.76 3.374-1.76 9.934 0 4.92.98 11.646 4.394 20.14l.515-.206c-3.39-8.433-4.353-15.088-4.353-19.934 0-3.231.428-5.659.855-7.274.214-.809.425-1.415.583-1.815.08-.2.146-.35.19-.449l.053-.11.011-.024.004-.006h.001l-.494-.257" mask="url(#b)"/><path fill="#212A54" d="M420.19 42.553l-.007.015a24.139 24.139 0 01-1.712 2.807c-.466.65-.995 1.287-1.523 1.75-.263.232-.527.42-.777.546a1.568 1.568 0 01-.7.191 1.02 1.02 0 01-.633-.221c-.317-.237-.65-.716-.934-1.527-.286-.81-.524-1.944-.688-3.467l-.553.06c.225 2.066.58 3.457 1.044 4.363.233.452.496.786.795 1.012.298.226.635.334.97.333.336 0 .665-.102.98-.266.552-.288 1.078-.766 1.573-1.32.738-.83 1.4-1.833 1.88-2.632.482-.799.78-1.392.782-1.397l-.497-.247M430.793 44.615c.466-.534.788-1.308 1.005-2.204.215-.898.32-1.92.32-2.948 0-1.472-.213-2.953-.653-4.095-.222-.571-.5-1.06-.854-1.42a2.052 2.052 0 00-.593-.429 1.66 1.66 0 00-.709-.158c-.436 0-.894.166-1.369.496-.71.497-1.476 1.364-2.324 2.707-.848 1.343-1.775 3.163-2.788 5.567l.514.214c1.336-3.18 2.521-5.313 3.538-6.634.505-.66.97-1.116 1.379-1.4.41-.286.76-.397 1.05-.397.17 0 .324.036.473.106.261.121.51.354.734.69.335.502.602 1.227.78 2.057.177.83.267 1.766.267 2.696 0 .99-.102 1.975-.305 2.819-.202.844-.509 1.546-.883 1.968l.418.365M413.66 39.167c0-.022 0-2.213-.273-4.415-.138-1.102-.34-2.206-.657-3.059-.159-.427-.344-.794-.584-1.072a1.502 1.502 0 00-.41-.339 1.075 1.075 0 00-.513-.13c-.165 0-.333.037-.499.11-.29.126-.576.35-.878.679-.453.494-.946 1.23-1.499 2.27-.551 1.04-1.162 2.387-1.842 4.098l.517.203c1.028-2.587 1.893-4.32 2.609-5.387.358-.534.678-.9.95-1.124.135-.111.258-.187.365-.233a.7.7 0 01.277-.064c.087 0 .164.02.247.065.154.08.323.262.477.537.273.48.494 1.221.659 2.052.246 1.248.372 2.7.435 3.838.062 1.139.062 1.965.062 1.97h.557" mask="url(#b)"/><path fill="#212A54" d="M421.044 26.891v.006c.001.032.006.187.006.445 0 .962-.082 3.364-.778 6.274-.698 2.91-2.01 6.325-4.46 9.326l.431.348c2.52-3.086 3.858-6.58 4.57-9.546.71-2.967.794-5.409.794-6.402 0-.305-.009-.473-.009-.477l-.554.026" mask="url(#b)"/><path fill="#4D4D4D" d="M324.816 56.988s-22.937-5.559-16.763-19.603c6.176-14.044 6.764-4.973 7.057-10.825.296-5.852-2.94-19.019 5-17.263 7.94 1.756 13.82 1.17 22.055-3.51 8.232-4.682 12.35-7.9 14.996.877 2.646 8.778 2.352 7.607 11.762 8.485 9.41.877 12.056 2.633 8.822 7.607-3.234 4.975-7.94 6.73-3.527 11.703 4.409 4.974 5.292 9.948 1.763 13.459-3.528 3.511-19.262 10.095-19.262 10.095l-31.903-1.025" mask="url(#b)"/><path fill="#8A634A" d="M360.397 46.064s7.443-4.91 9.216-1.27c1.773 3.642.924 9.976-1.875 13.071-2.799 3.096-6.127 7.397-8.284.238-2.157-7.16.943-12.039.943-12.039M319.755 60.018s-3.467-9.32 3.836-8.435c4.037.49 8.973 4.544 10.111 8.55 1.14 4.006 3.02 9.101-4.216 7.098-7.236-2.002-9.731-7.213-9.731-7.213" mask="url(#b)"/><path fill="#A3775A" d="M338.783 73.08s4.853 16.239-1.323 21.506c-6.175 5.266-.442 2.194-15.878 2.633-15.438.438-15.619 37.58-9.005 49.869 6.618 12.29 44.551 16.677 55.138 10.971 10.585-5.704 23.116-34.947 23.556-47.674.441-12.728-2.205-16.677-11.025-14.482-8.823 2.194-23.819-6.584-24.26-21.506-.442-14.921-17.203-1.316-17.203-1.316" mask="url(#b)"/><path fill="#8A634A" d="M357.235 81.07a21.69 21.69 0 01-1.25-6.673c-.441-14.921-17.202-1.316-17.202-1.316s4.853 16.238-1.323 21.505c-.293.249-.557.479-.8.691 9.203-1.048 16.919-6.586 20.575-14.207" mask="url(#b)"/><path fill="#A3775A" d="M322.903 50.259s5.628 20.496 15.44 28.088c6.616 5.12 16.613 1.024 22.494-9.8 5.76-10.603 3.53-47.253-7.94-41.548-11.468 5.704-1.764-7.462-7.938-3.073-6.176 4.389 3.97 21.505-22.056 26.333" mask="url(#b)"/><path fill="#61AFF6" d="M380.246 95.903c-2.944.732-6.575.237-10.123-1.295-4.73 13.104-14.077 21.804-23.964 20.884-8.199-.762-14.8-7.96-18.075-18.237-1.602-.08-3.703-.116-6.502-.036-15.438.438-15.619 37.58-9.005 49.869 6.618 12.29 44.551 16.677 55.138 10.971 10.585-5.704 23.116-34.947 23.556-47.674.441-12.728-2.205-16.677-11.025-14.482" mask="url(#b)"/><path fill="#70B8FB" d="M325.04 97.177c-1.02-.007-2.161.005-3.458.042-15.438.438-15.619 37.58-9.005 49.869 2.634 4.888 10.221 8.524 19.071 10.775-8.152-17.373-7.568-51.89-6.609-60.686M380.246 95.903c-.137.033-.276.062-.414.091-3.255 8.053-9.244 39.686-9.228 60.28 29.341 2.444 20.266-34.299 20.667-45.89.441-12.727-2.205-16.676-11.025-14.481" mask="url(#b)"/><path fill="#212A54" d="M342.564 53.87h-.278a7.933 7.933 0 01-2.347 5.64 8.017 8.017 0 01-5.667 2.336 8.018 8.018 0 01-5.669-2.337 7.932 7.932 0 01-2.346-5.638c0-2.203.896-4.195 2.346-5.639a8.011 8.011 0 015.669-2.336 8.01 8.01 0 015.667 2.336 7.933 7.933 0 012.347 5.639h.555c0-4.71-3.837-8.527-8.57-8.527-4.734 0-8.57 3.817-8.57 8.527 0 4.71 3.836 8.527 8.57 8.527 4.733 0 8.57-3.818 8.57-8.527h-.277M361.22 50.158h-.277a7.926 7.926 0 01-2.347 5.639 8.007 8.007 0 01-5.667 2.336 8.007 8.007 0 01-5.667-2.336 7.926 7.926 0 01-2.348-5.639c0-2.203.897-4.195 2.348-5.639a8.007 8.007 0 015.667-2.335c2.214 0 4.216.892 5.667 2.335a7.926 7.926 0 012.347 5.639h.555c0-4.71-3.836-8.527-8.57-8.527-4.732 0-8.569 3.817-8.57 8.527.001 4.71 3.838 8.527 8.57 8.527 4.734 0 8.57-3.817 8.57-8.527h-.277" mask="url(#b)"/><path fill="#212A54" d="M341.941 52.85l4.357-.686-.087-.546-4.357.686M342.675 71.152c.018.005.777.225 1.991.225 1.338 0 3.231-.268 5.29-1.382 2.058-1.114 4.276-3.074 6.27-6.429l-.478-.28c-1.95 3.28-4.093 5.16-6.058 6.224-1.965 1.063-3.76 1.313-5.024 1.313-.572 0-1.037-.05-1.354-.103a5.183 5.183 0 01-.363-.07c-.04-.01-.072-.016-.092-.023l-.021-.005-.005-.001-.156.53" mask="url(#b)"/><path fill="#4D4D4D" d="M264.126 16.013S237.9 20.41 235.967 35.516c-1.934 15.108-.553 17.305-8.558 23.074-8.006 5.768-19.877 24.446 3.865 32.138 23.743 7.69 35.89-4.944 47.76-.274 11.87 4.668 31.196-.276 35.336-7.692 4.14-7.417 6.072-24.447-8.005-31.04-14.082-6.592-9.784-18.462-11.319-21.7-4.695-9.889-14.632-15.382-30.92-14.009" mask="url(#b)"/><path fill="#FD8838" d="M218.576 142.369s10.49-48.895 15.182-50.269c4.693-1.373 11.594-8.24 29.54.275 17.944 8.516 14.907 5.494 28.985 9.34 14.08 3.845 19.88 3.021 22.363 15.109 2.485 12.084 2.761 23.897 1.656 26.093-1.105 2.197-97.726-.548-97.726-.548" mask="url(#b)"/><path fill="#FFDC68" d="M283.936 99.751c-5.194-1.01-7.197-1.127-17.922-6.1-1.967.685-2.715 2.186-2.579 4.493 0 0 3.827 24.426 3.88 45.327 9.183.155 18.37.27 26.269.294 2.423-11.034 3.677-24.318-1.023-33.261a35.743 35.743 0 00-8.625-10.753" mask="url(#b)"/><path fill="#F7B68B" d="M263.988 86.058l-1.38 6.593 2.483 20.326s7.549 7.777 17.394 5.768c5.382-1.098 8.876-3.491 9.385-7.142.69-4.944-5.521-9.614-8.282-13.46-2.76-3.844-.828-10.438 2.21-17.305 3.035-6.867-5.523 6.32-21.81 5.22" mask="url(#b)"/><path fill="#EC9568" d="M285.797 80.838c6.232-14.34-5.522 6.32-21.809 5.22l-1.38 6.593.044.362c8.617-.872 16.434-4.813 22.568-10.836.185-.444.382-.89.577-1.34" mask="url(#b)"/><path fill="#FCCC42" d="M295.713 124.226a45.315 45.315 0 00-.26-3.546c-13.466 6.813-25.164 3.608-29.135 2.137.1 1.186.195 2.391.285 3.61 2.607.844 6.647 1.795 11.635 1.795 5.033 0 11.028-.972 17.475-3.996M295.035 135.693c.162-1.181.302-2.367.412-3.553-11.024 3.327-24.544 1.567-28.436.792.057 1.126.11 2.256.152 3.385 2.732.5 7.565 1.125 13.143 1.125 4.656 0 9.827-.44 14.729-1.75" mask="url(#b)"/><path fill="#F7B68B" d="M247.286 31.395s5.797 9.889-1.934 18.954c-7.728 9.064-4.691 5.493-4.691 5.493s9.662 31.316 25.122 30.765c15.459-.549 24.292-8.24 27.054-20.6 2.761-12.362-4.694-24.173-4.694-24.173s-18.496 7.142-24.844 5.768c-6.35-1.373-6.076-17.854-16.013-16.207" mask="url(#b)"/><path fill="#212A54" d="M266.61 49.84c0 .007.222 3.198.998 6.678.39 1.74.916 3.553 1.632 5.084.358.765.763 1.461 1.228 2.04.464.582.99 1.05 1.587 1.348l.25-.495c-.506-.251-.974-.661-1.402-1.197-.75-.936-1.37-2.252-1.867-3.697-.745-2.169-1.215-4.623-1.497-6.532a55.444 55.444 0 01-.294-2.352 36.004 36.004 0 01-.077-.855l-.005-.06-.553.037M260.442 71.395c.604 2.31 1.716 4.031 3.105 5.175a7.412 7.412 0 004.744 1.7c2.082 0 4.2-.843 5.92-2.457 1.72-1.612 3.04-3.997 3.536-7.077l-.549-.088c-.479 2.974-1.743 5.24-3.368 6.764-1.624 1.524-3.608 2.306-5.539 2.306a6.854 6.854 0 01-4.39-1.575c-1.288-1.06-2.34-2.672-2.922-4.888l-.537.14M260.006 54.293l.01.035c.057.18.313 1.028.556 2.146.243 1.118.471 2.507.471 3.758.002.953-.136 1.823-.464 2.418a1.78 1.78 0 01-.63.686c-.263.158-.585.251-1.002.251-1.048 0-2.11-.313-3.123-.813-1.52-.752-2.923-1.92-3.977-3.022-.529-.55-.97-1.084-1.297-1.536a7.278 7.278 0 01-.4-.606 2.432 2.432 0 01-.203-.416l-.527.175c.068.202.194.439.371.72.312.492.787 1.108 1.388 1.762.9.981 2.083 2.046 3.42 2.872 1.334.825 2.826 1.416 4.348 1.418.5 0 .934-.116 1.29-.333.268-.162.488-.38.665-.63.268-.38.438-.835.545-1.335.108-.5.151-1.047.151-1.611 0-1.403-.268-2.924-.532-4.099-.266-1.175-.53-2.003-.532-2.008l-.528.168M271.906 52.502c.003.012.318 1.78 1.111 3.57.396.895.911 1.797 1.584 2.491.337.347.713.641 1.136.85.422.21.892.33 1.4.33.554 0 1.15-.144 1.782-.46.48-.237.87-.567 1.182-.955.468-.583.76-1.293.937-2.042.178-.75.24-1.541.242-2.297-.002-2.015-.449-3.785-.45-3.797l-.54.134.005.018c.046.187.428 1.831.428 3.645 0 .967-.11 1.981-.425 2.84-.156.43-.365.822-.63 1.154a2.956 2.956 0 01-.997.806c-.57.283-1.079.401-1.535.402a2.57 2.57 0 01-1.152-.273c-.62-.305-1.16-.855-1.616-1.523-.683-1-1.167-2.254-1.474-3.253a17.43 17.43 0 01-.415-1.61c-.01-.042-.015-.074-.02-.096l-.005-.024-.001-.007-.547.097" mask="url(#b)"/><path fill="#F7B68B" d="M114.466 85.808s-4.85 13.166-2.204 18.433c4.872 9.695-.882 28.526-24.259 8.777-3.922-3.313 13.673-12.728 10.144-23.26-3.53-10.532 16.32-3.95 16.32-3.95" mask="url(#b)"/><path fill="#70B8FB" d="M142.256 139.352s0-15.8-9.264-21.945c-9.262-6.144-14.54-8.33-19.847-10.972-.883-.44-.883 15.36-14.115 13.167-13.233-2.195-5.734-14.044-6.176-15.36-.197-.59-24.7-1.756-26.906 21.503-2.622 27.652 43.667 15.361 76.308 13.607" mask="url(#b)"/><path fill="#61AFF6" d="M112.912 142.205c5.192-16.391 11.078-24.01 15.958-27.438 1.289.796 2.65 1.663 4.122 2.64 9.264 6.145 9.264 21.945 9.264 21.945-9.167.491-19.41 1.816-29.344 2.853M73.084 140.294c-5.06-2.652-7.834-7.182-7.136-14.549 1.427-15.05 12.19-19.872 19.663-21.242-2.643 4.132-9.497 16.337-12.527 35.791" mask="url(#b)"/><path fill="#4D4D4D" d="M51.189 85.882s1.166 3.482 8.167 3.482c7.001 0 14.585-9.287 11.668-26.121-2.917-16.834 7.584-16.834 5.25-29.605C73.94 20.867 66.94 13.901 59.356 22.03c-7.585 8.126-14.002 10.448-10.5 14.512 3.499 4.063 13.417 3.483 12.25-2.322-1.167-5.805-29.636-29.203-44.34-19.737C6.85 20.867 5.682 24.93 11.516 35.38c4.25 7.61 5.25 15.093-4.083 21.477C-4.587 65.08.546 69.198 5.683 71.95c7.583 4.063 18.669 5.224 17.502 13.932-1.168 8.708 16.335 6.385 28.004 0" mask="url(#b)"/><path fill="#F7B68B" d="M52.251 77.692s-5.315 5.289-4.088 11.798c1.227 6.51 13.494 9.358 20.036 19.53 6.543 10.17 4.498 48.82 4.498 48.82s-41.708 2.442-54.792-1.626c-13.086-4.07.408-45.975 4.088-52.89 3.68-6.918 3.271-10.987 11.04-10.579 7.77.407 4.907-13.833 3.272-20.344-1.636-6.509 15.946 5.29 15.946 5.29" mask="url(#b)"/><path fill="#EC9568" d="M48.909 91.444a48.31 48.31 0 01-10.74-7.75c-.17-3.982-1.138-8.398-1.864-11.293-1.636-6.509 15.946 5.29 15.946 5.29s-5.315 5.29-4.088 11.799c.13.688.389 1.335.746 1.954" mask="url(#b)"/><path fill="#F7B68B" d="M53.478 29.277s32.905 54.065-4.498 50.042c-15.129-1.627-16.356-8.138-17.991-12.612-1.636-4.475-6.95 2.847-8.177-6.104-1.228-8.95 1.634-8.543 5.723-4.475 4.09 4.068 5.725 2.034 6.134-4.475.409-6.51-5.725-8.137 6.543-8.137 12.266 0 16.765-4.476 12.266-14.24" mask="url(#b)"/><path fill="#FC524C" d="M25.592 157.646l3.352-47.813 35.166 3.057-2.254 45.42c-10.3.334-25.733.538-36.264-.664" mask="url(#b)"/><path fill="#FC524C" d="M71.805 111.172L22.739 98.967l-6.133 12.205 57.039 14.645-1.84-14.645" mask="url(#b)"/><path fill="#212A54" d="M49.981 66.415c.004.006.643 1.279 1.55 2.563.453.643.973 1.288 1.524 1.783.275.249.56.46.852.611.293.152.597.247.908.247.311.001.623-.1.9-.309.415-.315.755-.85 1.04-1.655.283-.806.509-1.891.663-3.328l-.512-.054c-.201 1.881-.53 3.123-.914 3.866-.19.37-.393.616-.589.763a.948.948 0 01-.588.204c-.203 0-.429-.064-.67-.188-.421-.217-.877-.622-1.31-1.109-.65-.73-1.252-1.638-1.687-2.364a23.454 23.454 0 01-.658-1.167l-.036-.07-.012-.024-.46.23M41.818 61.655c-.347-.39-.632-1.041-.819-1.824-.188-.783-.283-1.695-.283-2.613 0-1.314.196-2.641.573-3.613.187-.486.419-.88.677-1.141.129-.13.262-.228.4-.293.14-.064.282-.097.439-.097.27 0 .594.102.974.367.57.394 1.251 1.15 2.015 2.361.764 1.211 1.614 2.876 2.544 5.087l.475-.198c-1.25-2.972-2.361-4.98-3.345-6.263-.493-.64-.954-1.101-1.394-1.408-.439-.305-.864-.459-1.269-.46-.232 0-.455.053-.657.147-.355.167-.648.457-.89.821-.363.548-.623 1.272-.797 2.083-.174.812-.26 1.712-.26 2.607 0 .953.098 1.9.297 2.732.201.831.5 1.548.932 2.043l.388-.338M57.829 56.942c0-.01 0-2.03.249-4.03.123-1 .31-1.998.58-2.72.133-.362.289-.653.449-.837a.86.86 0 01.235-.198.472.472 0 01.23-.06c.073 0 .156.017.256.06.173.074.391.234.64.506.374.406.814 1.056 1.313 1.998.5.941 1.06 2.174 1.684 3.748l.479-.188c-.96-2.418-1.77-4.048-2.469-5.091-.35-.522-.671-.897-.98-1.152a1.963 1.963 0 00-.462-.291 1.156 1.156 0 00-.462-.102.99.99 0 00-.474.121c-.27.147-.473.395-.646.698-.299.531-.507 1.255-.666 2.054-.236 1.197-.353 2.559-.412 3.628a37.253 37.253 0 00-.06 1.856h.516M49.955 45.538c0 .003-.008.16-.008.443 0 .92.078 3.184.736 5.935.66 2.75 1.9 5.989 4.235 8.849l.4-.323c-2.271-2.781-3.487-5.947-4.133-8.645-.647-2.698-.723-4.925-.723-5.816a12.43 12.43 0 01.006-.394l.001-.025-.514-.024" mask="url(#b)"/><path fill="#F7B68B" d="M171.658 91.28s5.893 13.162 3.547 18.745c-4.317 10.278 2.896 29.188 25.487 7.323 3.787-3.665-14.91-12.104-12.025-23.146 2.882-11.043-17.01-2.922-17.01-2.922" mask="url(#b)"/><path fill="#EC9568" d="M169.458 92.332s5.158 2.365 6.744 18.982c.001.02 10.462.2 13.42-8.567-1.203-2.199-1.893-4.958-.955-8.545 2.882-11.043-19.21-1.87-19.21-1.87" mask="url(#b)"/><path fill="#FF8900" d="M169.512 86.452s-17 3.858-19.3-3.22c-2.299-7.077 5.084-12.095-1.133-16.649-6.216-4.552-14.572-7.155-2.336-14.307 12.233-7.153.614-17.67 9.956-20.56 9.344-2.89 12.457 2.776 21.409.817 8.953-1.96 18.29-11.63 26.228-1.768 7.94 9.862 10.034 20.57 4.728 22.735-5.304 2.167 2.63 5.248 5.135 8.694 2.507 3.448 2.645 18.807-22.083 15.954-24.727-2.852-12.357 5.352-22.604 8.304" mask="url(#b)"/><path fill="#F7B68B" d="M192.961 50.518s5.65 9.563 6.33 26.243c.68 16.679-6.64 22.597-20.752 22.191-14.11-.405-18.378-16.39-18.655-20.44-.274-4.05-12.662.854-11.043-8.749 1.618-9.6 7.71-6.847 8.861-3.309 1.15 3.54 4.168 7.855 6.668 4.523 2.499-3.332-5.235-16.824 1.672-15.481 6.904 1.342 18.818 2.8 26.92-4.978" mask="url(#b)"/><path fill="#212A54" d="M180.87 57.187v.016c0 .242.012 3.436.623 7.155.307 1.86.761 3.852 1.444 5.675.685 1.821 1.596 3.477 2.832 4.662l.384-.399c-1.147-1.096-2.03-2.682-2.695-4.458-.998-2.66-1.509-5.74-1.767-8.19a46.218 46.218 0 01-.264-4.445v-.01l-.556-.006M167.68 63.574c.003.01.547 2.08 1.597 4.169.527 1.043 1.179 2.094 1.97 2.897.396.402.828.744 1.299.985.471.242.983.386 1.527.384.28 0 .57-.037.863-.116a3.513 3.513 0 001.453-.774c.584-.523.952-1.219 1.175-1.973.222-.756.3-1.578.3-2.382 0-2.262-.63-4.384-.633-4.398l-.533.156.006.022c.066.227.606 2.193.606 4.22 0 1.023-.14 2.055-.524 2.88a3.276 3.276 0 01-.768 1.065 2.97 2.97 0 01-1.228.65 2.735 2.735 0 01-.717.098c-.445 0-.867-.114-1.273-.323-.707-.363-1.362-1.02-1.934-1.81-.857-1.186-1.523-2.664-1.971-3.842a25.244 25.244 0 01-.507-1.468c-.056-.183-.099-.329-.128-.428l-.032-.115-.01-.037-.538.14M186.513 59.991c.002.016.118 1.873.872 3.758.377.942.914 1.895 1.695 2.625.391.363.843.67 1.361.885a4.572 4.572 0 001.757.337c.33 0 .678-.031 1.042-.097.388-.068.723-.209.998-.41.417-.3.693-.73.86-1.218.17-.489.235-1.04.235-1.622-.001-1.452-.41-3.101-.814-4.398-.407-1.297-.81-2.237-.812-2.243l-.513.218s.007.013.018.04c.086.204.48 1.163.85 2.39.372 1.228.717 2.729.717 3.993 0 .72-.114 1.359-.372 1.823-.13.232-.29.421-.495.57a1.843 1.843 0 01-.77.313c-.335.06-.649.089-.944.089a3.995 3.995 0 01-1.543-.296c-.79-.327-1.409-.9-1.9-1.594-.735-1.04-1.164-2.346-1.4-3.388a13.42 13.42 0 01-.286-1.778l-.001-.025v-.007l-.555.035M175.535 78.863c.007.023.28 1.093 1.172 2.177a5.814 5.814 0 001.852 1.495c.803.408 1.801.678 3.024.678.424 0 .873-.033 1.351-.101l-.079-.548a8.927 8.927 0 01-1.272.095c-1.14 0-2.045-.248-2.771-.616-1.085-.552-1.77-1.382-2.187-2.08a6.02 6.02 0 01-.433-.884 5.681 5.681 0 01-.112-.332l-.005-.016-.001-.004-.539.136" mask="url(#b)"/><path fill="#00C2B4" d="M146.903 148.095s-1.103-16.198 7.966-23.139c9.068-6.938 14.328-9.545 19.584-12.62.874-.51 1.977 15.688 15.39 12.524 13.415-3.164 4.901-14.795 5.26-16.176.161-.617 25.203-3.505 29.087 20.19 4.618 28.17-43.699 18.766-77.287 19.221" mask="url(#b)"/><path fill="#28A28C" d="M177.188 148.994c-6.466-16.445-13.03-23.85-18.276-27.028-1.266.905-2.6 1.888-4.043 2.99-9.069 6.94-7.966 23.14-7.966 23.14 9.433-.128 20.027.52 30.285.898M217.89 144.283c5.003-3.07 7.531-7.906 6.3-15.41-2.513-15.333-13.883-19.532-21.642-20.42 2.998 4.054 10.878 16.093 15.341 35.83" mask="url(#b)"/><path fill="#F9761E" d="M553.18 81.34c-3.714.924-49.48 1.56-53.016 1.662-19.49.554-6.371 44.612.455 60.85.197.464 60.333 0 60.333 0s5.595-28.159 6.15-44.228c.558-16.068-2.785-21.055-13.921-18.285" mask="url(#b)"/><path fill="#FD8838" d="M504.127 82.987c-.212.005-3.745.009-3.963.015-19.49.554-10.58 44.612-3.755 60.85.061.142-1.313.197 8.529.206-7.458-24.157-10.984-45.721-.811-61.07M553.18 81.34c-.17.042-.346.078-.521.115-7.14 2.571-8.895 33.634 1.278 62.495 7.383.134 22.098 0 22.098 0s-1.101-42.397-4.209-51.056c-4.675-13.03-7.509-14.325-18.645-11.555" mask="url(#b)"/><path fill="#202954" d="M502.97 80.3s-22.186 5.035-25.185-4.2c-3-9.236 6.632-15.783-1.479-21.725-8.111-5.942-19.015-9.337-3.05-18.67 15.965-9.334.801-23.06 12.995-26.829 12.192-3.772 16.254 3.623 27.934 1.065 11.684-2.556 23.868-15.174 34.228-2.306 10.36 12.87 13.092 26.842 6.17 29.668-6.923 2.826 3.43 6.847 6.7 11.345s3.448 24.54-28.817 20.818C500.2 65.742 516.342 76.45 502.97 80.3" mask="url(#b)"/><path fill="#F7B68B" d="M517.705 70.967s3.457 3.984 1.256 9.567c-2.207 5.586-8.453 10.487 1.653 13.265 12.864 3.538 19.667-9.521 19.667-9.521s-8.78-2.5-7.944-9.569c.835-7.072 8.78-14.973.835-11.23-7.942 3.744-17.557 2.913-15.467 7.488" mask="url(#b)"/><path fill="#F7B68B" d="M491.368 30.619s-6.688 25.788 11.288 35.355c17.976 9.57 16.722 10.4 25.501 6.658 8.776-3.746 13.246-18.037 11.285-30.367-1.867-11.748-7.105-7.902-20.9-8.735-13.795-.832-15.886-1.245-15.886-1.245s2.927 4.157 12.123 4.99c9.197.83-11.706 10.397-23.411-6.656" mask="url(#b)"/><path fill="#FFF" d="M520.635 55.887c2.643-1.917 5.3-3.733 7.97-5.46 3.162 5.183 1.64 12.174-3.662 16.024-5.191 3.768-12.158 3.191-16.203-1.13a182.519 182.519 0 0111.895-9.434" mask="url(#b)"/></g></g></svg>