<?xml version="1.0" encoding="utf-8"?>
<!-- Generator: Adobe Illustrator 21.0.2, SVG Export Plug-In . SVG Version: 6.00 Build 0)  -->
<svg version="1.1" id="Layer_1" xmlns="http://www.w3.org/2000/svg" xmlns:xlink="http://www.w3.org/1999/xlink" x="0px" y="0px"
	 viewBox="0 0 202.3 29.2" style="enable-background:new 0 0 202.3 29.2;" xml:space="preserve">
<style type="text/css">
	.st0{fill:none;}
	.st1{fill:#4D4D4D;}
</style>
<g>
	<path class="st0" d="M10.2,17.7c-0.2,0-0.5-0.3-0.8-0.8c-1.2,2-2.5,4.2-3.9,6.6c0.6-0.8,1.5-1.3,2.7-1.3c0.8,0,1.2,0.1,1.2,0.3
		c0,0.1-0.1,0.1-0.3,0.2c-0.5,0.2-0.8,0.5-0.8,0.9c0,0.9,1,1.4,3,1.4c2.7,0,5.1-0.9,7.3-2.8c1.2-1,1.8-1.9,1.8-2.6
		c0-0.5-0.5-1-1.4-1.5c-1.1-0.6-2.8-0.9-5.1-0.9c-1.6,0-2.6,0.1-3,0.3S10.3,17.7,10.2,17.7z"/>
	<path class="st0" d="M138.7,19.4c-0.8,0.9-1.6,1.9-2.3,3.2c-0.7,1.2-1.1,2.1-1.1,2.5c0,0.5,0.1,0.7,0.4,0.7c0.4,0,1.4-0.7,3-2.2
		c1.7-1.4,2.8-2.5,3.3-3.2c0.6-0.8,1.8-2.4,3.6-4.8C143.4,15.7,141.1,16.9,138.7,19.4z"/>
	<path class="st0" d="M160.1,25.8c0.4,0,1.4-0.7,3-2.2c1.7-1.4,2.8-2.5,3.3-3.2c0.6-0.8,1.8-2.4,3.6-4.8c-2.2,0-4.5,1.2-6.9,3.7
		c-0.8,0.9-1.6,1.9-2.3,3.2c-0.7,1.2-1.1,2.1-1.1,2.5C159.7,25.6,159.8,25.8,160.1,25.8z"/>
	<path class="st0" d="M39.3,25.8c0.4,0,1.4-0.7,3-2.2c1.7-1.4,2.8-2.5,3.3-3.2c0.6-0.8,1.8-2.4,3.6-4.8c-2.2,0-4.5,1.2-6.9,3.7
		c-0.8,0.9-1.6,1.9-2.3,3.2c-0.7,1.2-1.1,2.1-1.1,2.5C38.9,25.6,39.1,25.8,39.3,25.8z"/>
	<path class="st1" d="M146.5,20.7c0.7-1.5,1.3-2.7,1.8-3.7s0.9-1.5,1.1-1.7c0.2-0.2,0.3-0.4,0.3-0.8c0-0.7-0.5-1-1.5-1
		c-0.4,0-0.8,0.1-1,0.2c-0.2,0.1-0.5,0.4-0.8,0.9c-0.1-0.4-0.4-0.6-0.8-0.9c-0.4-0.2-1-0.4-1.7-0.4c-1.8,0-3.8,0.8-6,2.5
		c-1,0.8-2,1.7-2.8,2.7c-0.9,1-1.6,2.1-2.1,3.3c-0.5,1.2-0.8,2.4-0.8,3.6c0,1.2,0.4,2.1,1.1,2.8c0.6,0.5,1.3,0.8,2.2,0.8
		c0.9,0,2-0.5,3.4-1.5c1.4-1,2.6-2.2,3.7-3.6c-0.3,0.6-0.4,1.3-0.4,2c0,0.8,0.2,1.5,0.7,2.1c0.5,0.6,1.3,1,2.3,1
		c1,0,2.2-0.5,3.5-1.6c0.1-0.1,0.1-0.1,0.2-0.2c0.2,0.3,0.4,0.6,0.7,0.8c0.7,0.7,1.6,1,2.7,1c1,0,2.2-0.4,3.6-1.2
		c0.4-0.2,0.7-0.5,1-0.7c0.2,0.3,0.4,0.7,0.7,0.9c0.6,0.5,1.3,0.8,2.2,0.8c0.9,0,2-0.5,3.4-1.5c1.4-1,2.6-2.2,3.7-3.6
		c-0.3,0.6-0.4,1.3-0.4,2c0,0.8,0.2,1.5,0.7,2.1c0.5,0.6,1.3,1,2.3,1c0.8,0,1.7-0.3,2.7-1c0.1,0,0.1,0,0.2,0.1
		c0.5,0.2,0.8,0.3,1.1,0.3c0.3,0,0.6-0.3,1.1-0.8c1.5-2,2.9-3.7,4-4.9c1.1-1.2,2.5-2.7,4.2-4.3c1.7-1.7,2.8-2.5,3.2-2.5l0,0
		c0,0.2-0.4,0.9-1.1,1.9c-0.7,1-1.2,1.9-1.7,2.7c-0.5,0.8-0.9,1.7-1.4,2.7c-0.4,1.1-0.7,2-0.7,2.9s0.3,1.6,1,2.1
		c0.7,0.6,1.4,0.9,2.1,0.9c0.7,0,1.3-0.1,1.9-0.3c0.7-0.2,1.6-0.8,2.7-1.7c0.2,0.3,0.5,0.7,0.8,1c0.7,0.7,1.6,1,2.7,1
		c1,0,2.2-0.4,3.6-1.2c1.4-0.8,2.4-1.9,3-3.2c0.1-0.2,0.1-0.4,0.1-0.8c0-1.2-0.2-1.8-0.5-1.8c-0.2,0-0.9,0.7-2.1,2
		c-0.5,0.5-1,0.9-1.7,1.4c-0.6,0.4-1.3,0.6-1.9,0.6c-0.6,0-0.9-0.2-0.9-0.7c0-0.4,0.1-0.8,0.4-1.3c0.1-0.2,0.2-0.5,0.3-0.6
		s0.2-0.4,0.4-0.7c0.2-0.3,0.3-0.4,0.3-0.5c3.1-5.3,4.6-8.2,4.6-8.5c0-0.3-0.2-0.6-0.5-1c-0.3-0.4-0.7-0.5-1.1-0.5
		c-0.4,0-1,0.3-1.8,0.8c-0.8,0.6-1.4,1.1-2,1.7c-0.5,0.6-0.8,0.9-0.8,1.1s0.1,0.3,0.4,0.6c0.3,0.3,0.4,0.5,0.4,0.6s-0.4,0.7-1.1,1.9
		c-0.7,1.2-1.4,2.4-2.1,3.8c-0.1,0.2-0.2,0.4-0.3,0.6c-0.2,0.2-0.5,0.5-0.7,0.7c-0.5,0.5-1.1,1-1.7,1.4c-0.6,0.4-1.2,0.6-1.6,0.6
		c-0.8,0-1.2-0.3-1.2-0.9c0-0.3,0.1-0.7,0.3-1.1c0.1-0.2,0.2-0.5,0.3-0.7c0.1-0.2,0.2-0.5,0.4-0.7c0.2-0.3,0.3-0.5,0.4-0.7
		s0.3-0.4,0.4-0.7c0.2-0.3,0.3-0.5,0.4-0.6c0.1-0.1,0.2-0.3,0.4-0.6c0.2-0.3,0.3-0.4,0.3-0.5c0-0.1,0.3-0.4,0.7-1.1
		c0.5-0.7,0.8-1.2,1.1-1.7c0.3-0.4,0.6-0.9,0.8-1.5c0.3-0.6,0.4-1,0.4-1.4c0-0.4-0.2-0.8-0.5-1.1c-0.4-0.3-0.8-0.5-1.4-0.5
		c-0.6,0-1.3,0.2-2,0.5c-1.5,0.7-3.5,2.2-5.7,4.7l0.8-1.2c1.1-1.7,1.7-2.8,1.7-3.5c0-0.4-0.2-0.6-0.5-0.6c-1.4,0-2.4,0.4-3,1.1
		c-0.3,0.4-0.7,1-1.2,1.9c-0.2,0.4-1,1.6-2.1,3.6c-1.2,2-2.1,3.5-2.7,4.5c-0.1,0.2-0.3,0.4-0.4,0.6c0,0.1-0.1,0.1-0.1,0.2
		c-0.4,0.4-0.9,0.8-1.4,1.2c-0.5,0.4-1,0.6-1.4,0.6c-0.4,0-0.6-0.4-0.6-1.1c0-0.2,0-0.4,0.1-0.5c0.2-1.1,0.6-2.3,1.3-3.8
		c0.7-1.5,1.3-2.7,1.8-3.7s0.9-1.5,1.1-1.7c0.2-0.2,0.3-0.4,0.3-0.8c0-0.7-0.5-1-1.5-1c-0.4,0-0.8,0.1-1,0.2
		c-0.2,0.1-0.5,0.4-0.8,0.9c-0.1-0.4-0.4-0.6-0.8-0.9c-0.4-0.2-1-0.4-1.7-0.4c-1.8,0-3.8,0.8-6,2.5c-1,0.8-2,1.7-2.8,2.7
		c-0.9,1-1.6,2.1-2.1,3.3c-0.3,0.7-0.5,1.4-0.7,2.1c-0.1,0.1-0.1,0.1-0.2,0.2c-0.5,0.5-1,0.9-1.7,1.4c-0.6,0.4-1.3,0.6-1.9,0.6
		c-0.6,0-0.9-0.2-0.9-0.7c0-0.4,0.1-0.8,0.4-1.3c0.1-0.2,0.2-0.5,0.3-0.6c0.1-0.2,0.2-0.4,0.4-0.7c0.2-0.3,0.3-0.4,0.3-0.5
		c3.1-5.3,4.6-8.2,4.6-8.5c0-0.3-0.2-0.6-0.5-1c-0.3-0.4-0.7-0.5-1.1-0.5s-1,0.3-1.8,0.8c-0.8,0.6-1.4,1.1-2,1.7
		c-0.5,0.6-0.8,0.9-0.8,1.1s0.1,0.3,0.4,0.6c0.3,0.3,0.4,0.5,0.4,0.6s-0.4,0.7-1.1,1.9c-0.7,1.2-1.4,2.4-2.1,3.8
		c-0.1,0.2-0.2,0.5-0.3,0.7c-0.3,0.3-0.5,0.5-0.8,0.8c-0.4,0.4-0.9,0.8-1.4,1.2c-0.5,0.4-1,0.6-1.4,0.6c-0.4,0-0.6-0.4-0.6-1.1
		c0-0.2,0-0.4,0.1-0.5C145.4,23.5,145.8,22.2,146.5,20.7z M160.8,22.6c0.7-1.2,1.5-2.3,2.3-3.2c2.4-2.5,4.7-3.7,6.9-3.7
		c-1.8,2.4-3,4-3.6,4.8c-0.5,0.7-1.7,1.7-3.3,3.2c-1.7,1.4-2.7,2.2-3,2.2c-0.3,0-0.4-0.2-0.4-0.7C159.7,24.7,160,23.8,160.8,22.6z
		 M142.1,20.5c-0.5,0.7-1.7,1.7-3.3,3.2c-1.7,1.4-2.7,2.2-3,2.2c-0.3,0-0.4-0.2-0.4-0.7c0-0.5,0.4-1.3,1.1-2.5
		c0.7-1.2,1.5-2.3,2.3-3.2c2.4-2.5,4.7-3.7,6.9-3.7C143.8,18.1,142.6,19.7,142.1,20.5z"/>
	<path class="st1" d="M199.1,10.3c0.7,0,1.5-0.4,2.2-1.1c0.7-0.7,1-1.5,1-2.2c0-0.4-0.1-0.6-0.3-0.8s-0.5-0.3-0.8-0.3
		c-0.8,0-1.5,0.4-2.2,1.1c-0.7,0.7-1,1.5-1,2.2S198.4,10.3,199.1,10.3z"/>
	<path class="st1" d="M159.1,10.3c0.7,0,1.5-0.4,2.2-1.1c0.7-0.7,1-1.5,1-2.2c0-0.4-0.1-0.6-0.3-0.8c-0.2-0.2-0.5-0.3-0.8-0.3
		c-0.8,0-1.5,0.4-2.2,1.1c-0.7,0.7-1,1.5-1,2.2S158.4,10.3,159.1,10.3z"/>
	<path class="st1" d="M110.3,22.8c-0.2,0-0.6,0.2-1.2,0.5c-0.3,0.2-0.5,0.4-0.7,0.8c-0.2,0.4-0.3,0.7-0.3,1.2c0,0.4,0.1,0.9,0.3,1.3
		c0.8,1.6,2.8,2.4,5.8,2.4c4.1,0,7.7-0.7,10.7-2c1.4-0.6,2.6-1.3,3.6-2.1c1-0.8,1.8-1.6,2.3-2.4c0.5-0.8,0.8-1.7,0.8-2.6
		s-0.4-1.9-1.2-2.8c-0.3-0.4-0.8-0.7-1.4-1.1c-0.6-0.4-1.3-0.7-2.1-1.2c-0.9-0.4-2.6-0.9-5.2-1.6c-2.5-0.6-4-1.2-4.6-1.8
		c-0.2-0.2-0.3-0.5-0.3-0.8c0-0.3,0.4-0.9,1.3-1.6c0.9-0.8,2-1.6,3.3-2.4c1.3-0.8,2.9-1.5,4.7-2.2c1.8-0.6,3.5-1,5.1-1.1
		c-0.5,0.6-0.8,1.1-0.8,1.3s0,0.4,0.1,0.5c0.1,0.1,0.1,0.2,0.2,0.2s0.1,0,0.2-0.1c0.1-0.1,0.6-0.1,1.4-0.1c2.6-0.1,4.1-0.4,4.7-0.9
		c0.1,0,0.1-0.1,0.2-0.2c0.1-0.1,0.2-0.2,0.3-0.2s0.2-0.2,0.3-0.5c0.1-0.2,0.2-0.7,0.2-1.4s-0.9-1.2-2.6-1.6
		c-0.9-0.2-1.9-0.3-3.1-0.3c-3.1,0-6.4,0.7-10,2.2c-1.7,0.7-3.3,1.5-4.8,2.4c-1.5,0.9-2.7,1.9-3.6,3.1c-0.9,1.2-1.4,2.4-1.4,3.6
		s0.6,2.3,1.7,3.2c1.2,0.9,3,1.6,5.4,2.2c2.5,0.6,4.4,1.1,5.7,1.6c1.3,0.5,2,1,2,1.6c0,0.4-0.4,1-1.1,1.6c-0.7,0.6-1.7,1.2-2.8,1.7
		s-2.5,1-4,1.4c-1.5,0.4-2.9,0.6-4.2,0.6c-1.3,0-2.4-0.2-3.5-0.5c-1.1-0.3-1.6-0.7-1.6-1.1l0.3-0.5
		C110.7,22.8,110.6,22.8,110.3,22.8z"/>
	<path class="st1" d="M75.9,22.9c-0.7,1.4-1.1,2.4-1.1,3.1c0,0.7,0.4,1.4,1.1,2.1c0.7,0.7,1.6,1,2.7,1s2.2-0.4,3.6-1.2
		c0.2-0.1,0.3-0.2,0.4-0.3c0,0.3,0.1,0.6,0.2,0.7c0.1,0.1,0.2,0.2,0.2,0.2c0,0,0.1,0,0.1,0.1s0.1,0.1,0.1,0.1c0,0,0.1,0,0.2,0.1
		c0.1,0,0.1,0,0.2,0.1c0.1,0,0.2,0,0.3,0c0.1,0,0.3,0,0.7,0s2.9-0.4,7.4-1.2c3.4-0.6,5.3-1,5.7-1.1s0.7-0.4,0.9-0.9
		c0.3-0.4,0.4-0.8,0.4-1.1c0-1-0.1-1.6-0.3-1.7c-0.2-0.1-0.4-0.2-0.5-0.2S98,22.8,97.8,23c-0.4,0.5-2.9,1.1-7.5,2
		c-1.8,0.3-2.9,0.6-3.3,0.7c1.4-2.4,4.9-5.8,10.6-10.3c0.6-0.2,1-0.4,1.3-0.6s0.4-0.6,0.4-1s-0.1-0.8-0.3-1.1s-0.5-0.4-0.7-0.4
		s-0.6,0.1-0.9,0.2c-0.3,0.1-0.5,0.2-0.6,0.2c-2.1,0.3-4.6,0.5-7.6,0.5c-0.7,0-1.4,0.1-2,0.3c-0.6,0.2-1.1,0.6-1.5,1.2
		s-0.6,1-0.6,1.4c0,0.3,0.1,0.5,0.4,0.5h0.1c0.7-0.1,3.2-0.3,7.4-0.6c-0.4,0.3-1.2,1-2.3,1.9c-1.1,0.9-2.1,1.7-2.9,2.4
		c-0.7,0.6-1.6,1.5-2.5,2.6c-0.1-0.3-0.2-0.5-0.4-0.5c-0.2,0-0.9,0.7-2.1,2c-0.5,0.5-1,0.9-1.7,1.4s-1.3,0.6-1.9,0.6
		s-0.9-0.2-0.9-0.7c0-0.4,0.1-0.8,0.4-1.3c0.1-0.2,0.2-0.5,0.3-0.6s0.2-0.4,0.4-0.7c0.2-0.3,0.3-0.4,0.3-0.5
		c3.1-5.3,4.6-8.2,4.6-8.5c0-0.3-0.2-0.6-0.5-1c-0.3-0.4-0.7-0.5-1.1-0.5s-1,0.3-1.8,0.8s-1.4,1.1-2,1.7c-0.5,0.6-0.8,0.9-0.8,1.1
		s0.1,0.3,0.4,0.6c0.3,0.3,0.4,0.5,0.4,0.6s-0.4,0.7-1.1,1.9C77.3,20.3,76.6,21.5,75.9,22.9z"/>
	<path class="st1" d="M14.2,9.4c1.6-2.6,2.4-3.9,2.4-4.1c0-0.3-0.3-0.4-0.9-0.4c-1.5,0-2.4,0.3-2.8,0.8c-0.8,0.9-3,4.2-6.5,9.8
		c-3.5,5.7-5.6,9.3-6.2,10.8c-0.1,0.3-0.2,0.6-0.2,1s0.2,0.7,0.5,1.1s0.8,0.5,1.4,0.5s1-0.2,1.2-0.6c0.4-0.9,1.1-2.2,2.1-3.9
		c-0.2,0.4-0.3,0.8-0.3,1.2c0,0.4,0.3,0.8,0.8,1.3c1.2,1.1,3,1.6,5.4,1.6c2.1,0,4.2-0.4,6.3-1.3s3.7-2,4.9-3.3
		c1.2-1.3,1.8-2.6,1.8-3.9s-0.5-2.4-1.4-3.2c-1.2-1.1-2.9-1.8-4.9-2c1.9-0.7,3.6-1.5,5.2-2.6c3.1-2.1,4.6-4.2,4.6-6.4
		c0-1.7-0.8-3.1-2.3-4.1c-1.5-1-3.9-1.5-7.1-1.5c-2.2,0-4.4,0.4-6.8,1.1C9.1,1.8,7.1,2.8,5.5,4C3.9,5.3,3.1,6.5,3.1,7.7
		c0,0.6,0.2,1.1,0.5,1.4C4,9.5,4.5,9.7,5.1,9.7s1.2-0.2,1.6-0.5c0.4-0.3,0.7-0.6,0.7-0.7c0-0.1,0-0.2-0.1-0.2L6.7,8.4
		c-0.1,0-0.2-0.1-0.2-0.2s0.2-0.4,0.6-0.8c0.4-0.4,1-0.8,1.8-1.2c3.2-1.8,6.5-2.8,10-2.8c3.3,0,5,0.8,5,2.3c0,0.9-0.7,2-2.1,3.1
		c-1.4,1.1-3.1,2.2-5,3.1c-1.9,0.9-3.7,1.6-5.6,2.1c0.1-0.1,1-1.6,2.7-4.3L14.2,9.4z M14,17.2c2.3,0,4,0.3,5.1,0.9
		c1,0.5,1.4,1,1.4,1.5c0,0.7-0.6,1.6-1.8,2.6c-2.2,1.9-4.6,2.8-7.3,2.8c-2,0-3-0.5-3-1.4c0-0.4,0.3-0.7,0.8-0.9
		c0.2-0.1,0.3-0.1,0.3-0.2c0-0.2-0.4-0.3-1.2-0.3c-1.2,0-2.1,0.4-2.7,1.3c1.4-2.4,2.6-4.6,3.9-6.6c0.3,0.5,0.5,0.8,0.8,0.8
		c0,0,0.3-0.1,0.7-0.3S12.4,17.2,14,17.2z"/>
	<path class="st1" d="M33.7,16.8c0.1,0.1,0.3,0.2,0.6,0.2c0.9,0,1.7-0.3,2.4-1c0.7-0.7,1-1.4,1-2.3c0-0.4-0.2-0.7-0.7-0.9
		s-0.9-0.3-1.3-0.3c-1.8,0-3.8,0.6-6.1,1.9c-1,0.5-1.9,1.2-2.6,2.1c-0.7,0.9-1.1,1.7-1.1,2.4s0.1,1.3,0.2,1.7c0.1,0.3,0.5,0.6,1,0.8
		c-2.5,0.9-3.7,2.3-3.7,4.1c0,1.4,0.7,2.4,2.2,3c0.8,0.4,1.9,0.5,3.2,0.5c2.3,0,4.7-1,7.2-2.9c0.1,0.8,0.5,1.4,1,1.9
		c0.6,0.5,1.3,0.8,2.2,0.8s2-0.5,3.4-1.5s2.6-2.2,3.7-3.6c-0.3,0.6-0.4,1.3-0.4,2c0,0.8,0.2,1.5,0.7,2.1c0.5,0.6,1.3,1,2.3,1
		s2.2-0.5,3.5-1.6c0.3-0.2,0.5-0.4,0.8-0.7c0.1,0.4,0.3,0.8,0.6,1.1c0.5,0.6,1.3,0.9,2.3,1.1c0.2,0,0.4,0.1,0.5,0.1
		c0.9,0,1.8-0.3,2.7-0.9c0.2-0.1,0.3-0.2,0.5-0.3c0.1,0.1,0.3,0.1,0.5,0.2c0.5,0.2,0.8,0.3,1.1,0.3s0.6-0.3,1-0.8
		c1.4-1.9,2.7-3.5,3.9-4.8s2.6-2.8,4.3-4.4c1.7-1.7,2.8-2.5,3.2-2.5l0,0c-1,1.1-1.4,2.1-1.4,3c0,0.4,0.1,0.8,0.3,1.1
		c0.2,0.3,0.5,0.4,1,0.4s0.8-0.2,1.1-0.6c0.6-0.8,1.3-1.8,2-3s1.1-2,1.1-2.5s-0.2-0.9-0.5-1.2c-0.3-0.3-0.8-0.5-1.3-0.5
		c-2.2,0-4.8,1.7-7.9,5.2l0.8-1.2c1.1-1.7,1.7-2.8,1.7-3.5c0-0.4-0.2-0.6-0.5-0.6c-1.4,0-2.4,0.4-3,1.1c-0.3,0.4-0.7,1-1.2,1.9
		c-0.2,0.4-1,1.6-2.1,3.6c-1.2,2-2.1,3.5-2.6,4.5c0,0,0,0,0,0c-0.2,0.2-0.4,0.4-0.7,0.6c-0.5,0.5-1.1,0.9-1.8,1.3s-1.2,0.6-1.8,0.6
		s-0.8-0.3-0.8-0.8c0-0.2,0-0.6,0.1-1c0.1-0.9,1.1-3,3-6.4s3.4-5.9,4.4-7.5c0.3,0,2-0.2,5-0.5c0.4,0,0.7-0.2,1.1-0.3
		c0.3-0.2,0.5-0.4,0.5-0.7s-0.1-0.5-0.3-0.6S69.7,8,69.5,7.7c-0.2-0.3-0.4-0.4-0.5-0.5s-0.4-0.1-0.9-0.1S67,7.2,66,7.2
		c0-0.1,0.2-0.4,0.6-0.9c0.4-0.6,0.7-1.1,1-1.6c0.3-0.5,0.4-0.7,0.4-0.8c0-0.1,0-0.2-0.1-0.3s-0.2-0.2-0.3-0.2l-0.8-0.2l-0.9,0.1
		c-0.2,0-0.3,0-0.4,0.1c-0.1,0-0.3,0.3-0.7,0.8s-1.2,1.5-2.3,3.2l-1.8,0.1c-0.2,0-0.4,0-0.8,0c-0.3,0-0.7,0-0.9,0
		c-0.3,0-0.6,0-0.9,0s-0.7,0.2-1.3,0.6s-0.9,0.7-1,1c0,0.1-0.2,0.3-0.3,0.5c-0.2,0.2-0.3,0.4-0.3,0.6c0,0.2,0.2,0.4,0.5,0.6
		c0.4,0.1,0.7,0.2,1.1,0.2h0.2c0.2,0,1.1-0.1,2.6-0.3l0.7-0.1c-1.4,2.2-2.8,4.6-4.2,7.1c-0.9,1.5-1.6,3-2.1,4.4
		c-0.1,0.3-0.2,0.6-0.3,0.8c0,0-0.1,0.1-0.1,0.1c-0.4,0.4-0.8,0.9-1.2,1.3c-0.4,0.4-0.9,0.8-1.4,1.2s-1,0.6-1.4,0.6
		s-0.6-0.4-0.6-1.1c0-0.2,0-0.4,0.1-0.5c0.2-1.1,0.6-2.3,1.3-3.8c0.7-1.5,1.3-2.7,1.8-3.7s0.9-1.5,1.1-1.7c0.2-0.2,0.3-0.4,0.3-0.8
		c0-0.7-0.5-1-1.5-1c-0.4,0-0.8,0.1-1,0.2c-0.2,0.1-0.5,0.4-0.8,0.9c-0.1-0.4-0.4-0.6-0.8-0.9s-1-0.4-1.7-0.4c-1.8,0-3.8,0.8-6,2.5
		c-1,0.8-2,1.7-2.8,2.7c-0.9,1-1.6,2.1-2.1,3.3c-0.1,0.3-0.2,0.5-0.3,0.8c-0.3,0.2-0.7,0.5-1.2,1c-0.8,0.6-1.6,1.2-2.6,1.8
		c-1.1,0.7-2.2,1.1-3.3,1.1c-1.7,0-2.6-0.5-2.6-1.5c0-0.6,1.4-1.6,4.1-3.2c0.1-0.1,0.4-0.2,0.9-0.3c0.4-0.1,0.8-0.4,1.2-0.7
		c0.3-0.3,0.5-0.5,0.5-0.7s-0.1-0.4-0.3-0.7c-0.2-0.3-0.4-0.5-0.5-0.6c-0.1,0-0.2,0-0.5,0s-0.7,0.1-1.3,0.3s-1.1,0.3-1.4,0.3
		s-0.5-0.1-0.5-0.2c0-0.3,0.4-0.8,1.2-1.4c0.8-0.6,1.5-1.1,2.1-1.4c0.6-0.3,1.1-0.6,1.6-0.7c-0.1,0.2-0.1,0.4-0.1,0.6
		C33.6,16.5,33.6,16.7,33.7,16.8z M40,22.6c0.7-1.2,1.5-2.3,2.3-3.2c2.4-2.5,4.7-3.7,6.9-3.7c-1.8,2.4-3,4-3.6,4.8
		c-0.5,0.7-1.7,1.7-3.3,3.2c-1.7,1.4-2.7,2.2-3,2.2c-0.3,0-0.4-0.2-0.4-0.7C38.9,24.7,39.3,23.8,40,22.6z"/>
	<path class="st1" d="M85.3,10.3c0.7,0,1.5-0.4,2.2-1.1c0.7-0.7,1-1.5,1-2.2c0-0.4-0.1-0.6-0.3-0.8s-0.5-0.3-0.8-0.3
		c-0.8,0-1.5,0.4-2.2,1.1c-0.7,0.7-1,1.5-1,2.2S84.6,10.3,85.3,10.3z"/>
</g>
</svg>
