<svg xmlns="http://www.w3.org/2000/svg" id="Layer_1" x="0" y="0" version="1.1" viewBox="0 0 309 82.6" xml:space="preserve">
  <defs/>
  <style>
    .st0{fill:none}.st1{fill:#fff}
  </style>
  <path d="M84.7 40.7c-1.7 1.8-3.2 3.9-4.7 6.4-1.4 2.5-2.1 4.2-2.1 5.1 0 .9.3 1.4.8 1.4.7 0 2.8-1.4 6.1-4.3s5.5-5 6.6-6.3c1.2-1.5 3.6-4.7 7.1-9.6-4.4-.1-9 2.4-13.8 7.3zM253.1 6.5c0-.4-.1-.6-.4-.6-.9 0-3.3 2.6-7.2 7.8-3.9 5.2-6.7 9.4-8.4 12.5-1.7 3.1-3.4 7-4.9 11.7 3.1-3.6 7.3-9.3 12.8-17.1 5.4-7.7 8.1-12.5 8.1-14.3zM38 38.1c-2.2-1.2-5.6-1.8-10.1-1.8-3.2 0-5.2.2-6.1.5-.9.4-1.4.5-1.4.5-.5 0-1-.5-1.6-1.6-2.5 4-5.1 8.4-7.8 13.2 1.2-1.7 3-2.5 5.4-2.5 1.6 0 2.3.2 2.3.6 0 .2-.2.3-.5.4-1 .4-1.6 1-1.6 1.8 0 1.9 2 2.8 6 2.8 5.4 0 10.3-1.9 14.6-5.6 2.3-2 3.5-3.7 3.5-5.2.2-1-.8-2-2.7-3.1zM212 38.1c-2.2-1.2-5.6-1.8-10.1-1.8-3.2 0-5.2.2-6.1.5-.9.4-1.4.5-1.4.5-.5 0-1-.5-1.6-1.6-2.5 4-5.1 8.4-7.8 13.2 1.2-1.7 3-2.5 5.4-2.5 1.6 0 2.3.2 2.3.6 0 .2-.2.3-.5.4-1 .4-1.6 1-1.6 1.8 0 1.9 2 2.8 6 2.8 5.4 0 10.3-1.9 14.6-5.6 2.3-2 3.5-3.7 3.5-5.2.1-1-.8-2-2.7-3.1zM290.9 34.9c-2.7 1.5-4.8 3.1-6.6 4.8-1.7 1.7-3.2 3.5-4.5 5.3-2.3 3.4-3.5 6-3.5 7.8 0 .4.1.7.3.7.2 0 .7-.2 1.5-.7.8-.5 1.9-1.3 3.3-2.4s3-2.5 4.7-4c4-3.7 8.4-8.5 13.3-14.6-3 .5-5.8 1.6-8.5 3.1zM265.7 34.1h-.3c-.9 0-1.4-.7-1.4-2-1.9.6-3.9 1.7-6 3.3-2.1 1.6-3.9 3.4-5.6 5.5-3.3 4.3-5 7.9-5.1 10.8 0 1.5.5 2.2 1.6 2.2s2.7-.7 4.8-2.1 4.2-3.4 6.3-6c2.1-2.6 3.6-4.9 4.6-6.8 1-1.9 1.5-3.2 1.5-3.9.1-.7-.1-1-.4-1z" class="st0"/>
  <path d="M45.4 35.4c-2.4-2.2-5.7-3.5-9.8-4 3.8-1.3 7.2-3 10.5-5.2 6.1-4.1 9.2-8.4 9.2-12.9 0-3.5-1.5-6.2-4.6-8.3-3.1-2.1-7.8-3.1-14.1-3.1-4.3 0-8.8.7-13.6 2.2-4.8 1.5-8.8 3.4-12 5.9-3.2 2.4-4.8 4.9-4.8 7.4 0 1.2.4 2.1 1.1 2.9.7.7 1.7 1.1 3 1.1s2.3-.3 3.2-1c.9-.7 1.3-1.2 1.3-1.5 0-.3-.1-.4-.2-.4l-1.1.3c-.3 0-.4-.2-.4-.5s.4-.8 1.2-1.6c.8-.8 2-1.6 3.6-2.5 6.4-3.7 13.1-5.5 20-5.5 6.6 0 9.9 1.5 9.9 4.6 0 1.8-1.4 3.9-4.2 6.2-2.8 2.3-6.1 4.3-9.9 6.2-3.8 1.8-7.5 3.2-11.1 4.3.2-.3 2-3.1 5.4-8.6 3.5-5.5 5.2-8.4 5.2-8.8 0-.5-.6-.8-1.8-.8-2.9 0-4.8.5-5.7 1.5-1.6 1.8-5.9 8.4-13 19.7C5.7 44.1 1.5 51.3.4 54.4c-.3.6-.4 1.3-.4 2s.3 1.5 1 2.1c.7.6 1.6.9 2.8.9 1.2 0 2-.4 2.4-1.2.9-1.7 2.3-4.3 4.2-7.8-.4.9-.6 1.7-.6 2.4 0 .8.5 1.6 1.6 2.6 2.3 2.2 5.9 3.2 10.9 3.2 4.3 0 8.5-.9 12.5-2.6 4.1-1.8 7.4-4 9.8-6.6 2.5-2.7 3.7-5.3 3.7-7.9s-1.1-4.5-2.9-6.1zm-8 10.9c-4.4 3.8-9.3 5.6-14.6 5.6-4 0-6-.9-6-2.8 0-.8.5-1.4 1.6-1.8.3-.1.5-.3.5-.4 0-.4-.8-.6-2.3-.6-2.3 0-4.1.8-5.4 2.5 2.7-4.8 5.3-9.2 7.8-13.2.6 1.1 1.1 1.6 1.6 1.6.1 0 .5-.2 1.4-.5.9-.4 2.9-.5 6.1-.5 4.5 0 7.9.6 10.1 1.8 1.9 1.1 2.9 2.1 2.9 3-.2 1.6-1.4 3.3-3.7 5.3zM109 46.4c-.3 0-.5.1-.7.2-.2.1-.6.6-1.4 1.5-.8.9-1.6 1.8-2.4 2.6-.8.8-1.8 1.6-2.9 2.4-1.1.7-2 1.1-2.8 1.1s-1.2-.7-1.2-2.1c0-.5 0-.8.1-1.1.4-2.1 1.3-4.7 2.6-7.6 1.3-3 2.6-5.4 3.7-7.3 1.1-1.9 1.8-3 2.2-3.4.3-.3.5-.9.5-1.6 0-1.4-1-2-3-2-.9 0-1.5.1-1.9.4-.4.2-1 .8-1.6 1.8-.2-.7-.8-1.3-1.7-1.8-.9-.5-2-.7-3.4-.7-3.6 0-7.6 1.7-12 5.1-2.1 1.6-3.9 3.4-5.7 5.4-1.7 2-3.1 4.1-4.2 6.5l-.6 1.5c-.5.4-1.3 1-2.4 1.9-1.5 1.2-3.2 2.5-5.1 3.7-2.2 1.4-4.5 2.1-6.7 2.1-3.5 0-5.2-1-5.2-3 0-1.1 2.7-3.3 8.2-6.3.3-.2.9-.4 1.7-.7.9-.3 1.6-.7 2.3-1.3.7-.6 1-1 1-1.4s-.2-.8-.6-1.4c-.4-.6-.8-1-1.1-1.2-.2-.1-.5-.1-1-.1s-1.4.2-2.7.6c-1.3.4-2.2.6-2.8.6-.6 0-.9-.1-.9-.3 0-.6.8-1.6 2.5-2.9 1.7-1.3 3.1-2.2 4.2-2.9 1.1-.7 2.2-1.1 3.1-1.4-.1.4-.2.8-.2 1.3 0 .4.1.8.3 1.1.2.3.6.4 1.1.4 1.8 0 3.4-.7 4.7-2 1.4-1.3 2.1-2.8 2.1-4.5 0-.8-.4-1.3-1.3-1.8-.9-.4-1.8-.6-2.6-.6-3.6 0-7.7 1.2-12.3 3.7-2.1 1.1-3.8 2.5-5.2 4.2-1.4 1.7-2.1 3.3-2.1 4.8s.1 2.6.4 3.3c.3.7.9 1.3 1.9 1.7-5 1.8-7.5 4.6-7.5 8.2 0 2.7 1.5 4.8 4.4 6.1 1.6.7 3.7 1.1 6.4 1.1 4.5 0 9.4-1.9 14.4-5.7.3 1.5.9 2.8 2 3.8 1.1 1.1 2.6 1.6 4.3 1.6 1.8 0 4.1-1 6.9-2.9 2.8-2 5.3-4.3 7.4-7.1-.5 1.2-.8 2.5-.8 4.1 0 1.5.5 3 1.5 4.2 1 1.3 2.5 1.9 4.6 1.9 2.1 0 4.4-1 7-3.1 2.6-2.1 4.2-3.9 5-5.4.2-.3.2-.9.2-1.7 0-.8-.1-1.6-.2-2.3.3-1 0-1.3-.5-1.3zm-17.6-3.5c-1.1 1.4-3.3 3.5-6.6 6.3-3.3 2.9-5.4 4.3-6.1 4.3-.5 0-.8-.5-.8-1.4 0-.9.7-2.6 2.1-5.1 1.4-2.5 3-4.6 4.7-6.4 4.8-4.9 9.4-7.4 13.8-7.4-3.5 5-5.9 8.1-7.1 9.7zM123.1 22.3c.8.5 1.4.8 1.7.8.9 0 2.2-1.4 4.2-4.1 1.9-2.7 3.6-5.6 5.2-8.6 1.5-3 2.3-5 2.3-5.9 0-1-.9-1.4-2.7-1.4-1.8 0-3.1.6-3.8 1.8-5.4 9.5-8.1 14.8-8.1 15.8 0 .5.4 1.1 1.2 1.6zM147.7 25.3c-2.9 0-6.6.9-10.9 2.7-2.2.9-4.2 2-6.1 3.2-1.9 1.2-3.5 2.6-4.7 4.3-1.3 1.7-1.9 3.4-1.9 5.1 0 1.7.6 3 1.8 3.8.6.4 1.1.7 1.7 1s1.3.5 2.2.8 2.4.7 4.5 1.1c2.1.5 3.5.9 4.4 1.2.9.3 1.3.7 1.3 1.2 0 .9-1.2 1.9-3.6 2.8-2.4.9-5.2 1.4-8.3 1.4-.4 0-.9-.2-1.4-.7-.5-.5-.7-1-.7-1.7v-.6c0-.5-.5-.8-1.6-.8-1 0-1.9.6-2.6 1.7-.7 1.1-1 2.3-1 3.6 0 1.3.6 2.4 1.8 3.4 1.2 1 3.3 1.4 6.4 1.4 3.1 0 6.8-1 11-3.1 2-.9 3.6-2.1 4.9-3.6s2-3.1 2-4.7c0-.8-.3-1.7-1-2.7-.7-1-1.8-1.9-3.5-2.7-1.7-.8-5.2-1.7-10.6-2.8-1.2-.2-1.8-.5-1.8-.9s.4-1 1.3-1.8 2-1.7 3.3-2.5c1.3-.9 2.9-1.7 4.8-2.4s3.7-1.1 5.4-1.2c-.1.4-.3.7-.5 1-.3.3-.4.6-.4 1s.1.5.3.6.4.2.5.4c.1.2.3.3.5.4.2.1.7.2 1.4.2s1.7-.3 3-.9c1.3-.6 2.2-1.3 2.8-2.1s.9-1.9.9-3.2v-.3c0-.5-.1-1-.3-1.5-.6-1.5-2.4-2.1-5.3-2.1zM219.3 35.4c-2.4-2.2-5.7-3.5-9.8-4 3.8-1.3 7.2-3 10.5-5.2 6.1-4.1 9.2-8.4 9.2-12.9 0-3.5-1.5-6.2-4.6-8.3-3.1-2.1-7.8-3.1-14.1-3.1-4.3 0-8.8.7-13.6 2.2-4.7 1.5-8.7 3.4-11.9 5.9-3.2 2.4-4.8 4.9-4.8 7.4 0 1.2.4 2.1 1.1 2.9.7.7 1.7 1.1 3 1.1s2.3-.3 3.2-1c.9-.7 1.3-1.2 1.3-1.5 0-.3-.1-.4-.2-.4l-1.1.3c-.3 0-.4-.2-.4-.5s.4-.8 1.2-1.6c.8-.8 2-1.6 3.6-2.5 6.4-3.7 13.1-5.5 20-5.5 6.6 0 9.9 1.5 9.9 4.6 0 1.8-1.4 3.9-4.2 6.2-2.8 2.3-6.1 4.3-9.9 6.2-3.8 1.8-7.5 3.2-11.1 4.3.2-.3 2-3.1 5.4-8.6 3.5-5.5 5.2-8.4 5.2-8.8 0-.5-.6-.8-1.8-.8-2.9 0-4.8.5-5.7 1.5-1.6 1.8-5.9 8.4-13 19.7-7.1 11.3-11.2 18.5-12.4 21.6-.2.6-.4 1.3-.4 2.1s.3 1.5 1 2.1c.7.6 1.6.9 2.8.9 1.2 0 2-.4 2.4-1.2.9-1.7 2.3-4.3 4.2-7.8-.4.9-.6 1.7-.6 2.4 0 .8.5 1.6 1.6 2.6 2.3 2.2 5.9 3.2 10.9 3.2 4.3 0 8.5-.9 12.5-2.6 4.1-1.8 7.4-4 9.8-6.6 2.5-2.7 3.7-5.3 3.7-7.9s-1-4.8-2.9-6.4zm-8 10.9c-4.4 3.8-9.3 5.6-14.6 5.6-4 0-6-.9-6-2.8 0-.8.5-1.4 1.6-1.8.3-.1.5-.3.5-.4 0-.4-.8-.6-2.3-.6-2.3 0-4.1.8-5.4 2.5 2.7-4.8 5.3-9.2 7.8-13.2.6 1.1 1.1 1.6 1.6 1.6.1 0 .5-.2 1.4-.5.9-.4 2.9-.5 6.1-.5 4.5 0 7.9.6 10.1 1.8 1.9 1.1 2.9 2.1 2.9 3-.2 1.6-1.3 3.3-3.7 5.3zM273.2 33.1c0-1.4-.4-2.5-1.2-3.2s-1.6-1.1-2.4-1.1-1.4 0-1.7.1v-.2c0-.2-.1-.4-.4-.6-.7-.7-1.8-1.1-3.2-1.1-3.2 0-6.9 1.7-11.2 5.1-2 1.7-3.9 3.5-5.7 5.6-1.7 2.1-3.2 4.5-4.3 7.2-.7 1.8-1.2 3.4-1.4 5l-.4.4c-1 1-2.2 1.9-3.5 2.8-1.3.8-2.6 1.2-3.8 1.2s-2.2-.3-2.9-1c-.8-.7-1.2-1.5-1.2-2.3s.1-1.7.3-2.6c.2-.8.3-1.4.3-1.7 4.2-4.6 8.5-9.8 13-15.6 2.9-3.6 5.4-7.1 7.7-10.3s4.2-6.4 5.8-9.5c1.6-3.1 2.4-5.4 2.4-6.9s-.5-2.6-1.4-3.3c-1-.7-2.1-1.1-3.3-1.1-4.1 0-9.9 5.4-17.6 16.3-3.4 4.8-6.5 10.7-9.2 17.5-2.7 6.9-4.1 12.8-4.1 17.9 0 2.6.6 4.7 1.9 6.2 1.3 1.5 3.1 2.2 5.6 2.2 2.4 0 5-.7 7.8-2 1.1-.5 2.1-1.1 3.1-1.9.3.5.6 1 1 1.5 1.2 1.3 2.8 1.9 4.8 1.9s4.2-.7 6.7-2 4.8-3.1 6.9-5.2c2.1-2.1 4.1-4.3 5.8-6.7 1.8-2.4 3.2-4.7 4.2-7s1.6-4.1 1.6-5.6zm-36.1-6.9c1.7-3.1 4.5-7.3 8.4-12.5 3.9-5.2 6.3-7.8 7.2-7.8.3 0 .4.2.4.6 0 1.8-2.7 6.6-8.1 14.3-5.4 7.7-9.7 13.4-12.8 17.1 1.5-4.7 3.2-8.6 4.9-11.7zM264.7 39c-1 1.9-2.6 4.2-4.6 6.8-2.1 2.6-4.2 4.6-6.3 6s-3.7 2.1-4.8 2.1c-1.1 0-1.6-.7-1.6-2.2.1-2.9 1.7-6.5 5.1-10.8 1.6-2.1 3.5-4 5.6-5.5 2.1-1.6 4.1-2.7 6-3.3 0 1.3.5 2 1.4 2h.3c.4 0 .5.3.5 1-.1.7-.6 2-1.6 3.9zM307.9 46.5c-.3 0-.6.1-.9.2-4.9 2.4-10.4 6.3-16.6 11.8 6-10.6 11.9-20 17.7-28.2l.3-.3c.2-.2.3-.3.4-.5.1-.2.2-.3.2-.4v-.3c0-.1-.1-.3-.2-.8s-.3-.8-.4-1c-.2-.2-.6-.3-1.2-.3h-1.6c-1.5.1-2.8.7-3.8 1.9-.5-1-1.6-1.5-3.4-1.5-1.8 0-3.9.5-6.3 1.4s-4.9 2.3-7.4 4c-2.5 1.7-4.9 3.7-7 5.9-2.2 2.2-3.9 4.6-5.3 7.4-1.4 2.8-2.1 5.5-2.1 8.2 0 3.4 2 5.1 6 5.1 1.3 0 3.3-.9 5.9-2.6 2.6-1.7 5.4-4.1 8.2-7-3.3 5.3-5.9 9.4-7.9 12.3-.2.2-1.1 1-2.9 2.4-1.7 1.4-3.7 3.2-5.7 5.4-2.8 3-4.2 5.9-4.2 8.7 0 2.8 1.5 4.2 4.4 4.2 1.5 0 2.5-.6 3.2-1.7 1.7-2.9 4.5-6.7 8.4-11.4 3-3.6 6.9-7 11.6-10.3 2-1.4 3.8-2.6 5.5-3.7 1.7-1.1 3.2-2 4.3-2.7s1.7-1.2 1.8-1.4.2-.8.2-1.8-.1-1.8-.2-2.3c-.3-.4-.6-.7-1-.7zm-21.8-.2c-1.7 1.6-3.3 2.9-4.7 4s-2.5 1.9-3.3 2.4c-.8.5-1.3.7-1.5.7-.2 0-.3-.2-.3-.7 0-1.8 1.2-4.5 3.5-7.8 1.2-1.8 2.7-3.5 4.5-5.3 1.7-1.7 3.9-3.3 6.6-4.8 2.7-1.5 5.5-2.6 8.5-3.2-4.9 6.1-9.3 11-13.3 14.7z" class="st1"/>
</svg>
