<svg xmlns="http://www.w3.org/2000/svg" viewBox="0 0 282 206">
  <defs/>
  <g fill="none" fill-rule="evenodd">
    <path fill="#53BAB5" d="M13.723 0h98.349c7.579 0 13.723 6.17 13.723 13.783v64.321c0 7.612-6.144 13.783-13.723 13.783h-9.53s4.956 18.377 11.817 22.972c0 0-25.159-9.19-34.88-22.972H13.724C6.144 91.887 0 85.717 0 78.104v-64.32C0 6.17 6.144 0 13.723 0"/>
    <path fill="#FFF" d="M108.641 73.51H17.153c-3.157 0-5.717-2.572-5.717-5.743 0-3.172 2.56-5.743 5.718-5.743h91.487c3.158 0 5.718 2.57 5.718 5.743 0 3.171-2.56 5.743-5.718 5.743M108.641 50.538H17.153c-3.157 0-5.717-2.571-5.717-5.743s2.56-5.743 5.718-5.743h91.487c3.158 0 5.718 2.571 5.718 5.743s-2.56 5.743-5.718 5.743M108.641 27.566H17.153c-3.157 0-5.717-2.57-5.717-5.743 0-3.171 2.56-5.743 5.718-5.743h91.487c3.158 0 5.718 2.572 5.718 5.743 0 3.172-2.56 5.743-5.718 5.743"/>
    <g>
      <path fill="#3A64A1" d="M268.072 91h-98.349C162.144 91 156 97.17 156 104.783v64.32c0 7.613 6.144 13.784 13.723 13.784h9.53s-4.956 18.377-11.817 22.971c0 0 25.158-9.188 34.88-22.971h65.756c7.58 0 13.725-6.17 13.725-13.783v-64.321c0-7.612-6.145-13.783-13.725-13.783"/>
      <path fill="#FFF" d="M199.115 137.048c0 5.586-4.509 10.116-10.071 10.116-5.562 0-10.071-4.53-10.071-10.116 0-5.587 4.509-10.115 10.071-10.115 5.563 0 10.071 4.528 10.071 10.115M229.33 137.048c0 5.586-4.51 10.116-10.072 10.116-5.563 0-10.072-4.53-10.072-10.116 0-5.587 4.51-10.115 10.072-10.115 5.562 0 10.072 4.528 10.072 10.115M259.542 137.048c0 5.586-4.51 10.116-10.07 10.116-5.562 0-10.071-4.53-10.071-10.116 0-5.587 4.509-10.115 10.071-10.115 5.56 0 10.07 4.528 10.07 10.115"/>
    </g>
  </g>
</svg>
