<svg xmlns="http://www.w3.org/2000/svg" xmlns:xlink="http://www.w3.org/1999/xlink" viewBox="0 0 431 296">
  <defs/>
  <defs>
    <path id="a" d="M.127.188h154.092v178.178H.127z"/>
  </defs>
  <g fill="none" fill-rule="evenodd">
    <path fill="#E0DED8" d="M102.55 28.131C60.56 66.43-28.783 244.38 10.54 280.976c39.325 36.596 357.74-4.698 394.1-30.043 36.36-25.345 48.482-80.878-54.898-129.939-103.38-49.06-162.298-176.803-247.191-92.863z"/>
    <path fill="#FFDEAA" d="M121.553 110.375s-8.876 1.116-32.789 18.178M106.974 123.328a38.812 38.812 0 003.8-1.67 33.05 33.05 0 001.661-.903c.532-.284 1.039-.553 1.521-.842a24.813 24.813 0 002.604-1.768 16.945 16.945 0 002.039-1.68c.602-.603 1.072-1.086 1.49-1.634a9.54 9.54 0 00.562-.81c.168-.27.288-.5.41-.756.12-.251.223-.502.308-.755.038-.124.079-.253.111-.375.025-.122.035-.236.051-.356.063-.475.101-.954.016-1.41a2.149 2.149 0 00-.598-1.293c-.203-.194-.38-.37-.619-.536a4.63 4.63 0 00-.809-.45c-.636-.281-1.304-.45-2.11-.56-.402-.055-.832-.09-1.289-.103-.462-.017-.892.019-1.373.058-.947.089-1.995.254-3.092.527a29.812 29.812 0 00-3.336 1.194c-.58.25-1.19.51-1.777.823-.578.317-1.164.661-1.758 1.029a44.417 44.417 0 00-3.628 2.523c-.994.783-2.116 1.844-3.292 3.04a66.39 66.39 0 00-1.778 1.892c-.597.656-1.199 1.327-1.75 2.051-2.254 2.847-4.322 5.81-5.582 7.983 2.521-.409 5.794-1.142 9.05-2.09.411-.125.817-.247 1.222-.368l1.23-.346a60.531 60.531 0 002.4-.735 40 40 0 004.316-1.68M111.018 135.158s-28.044 1.172-29.198 1.301"/>
    <path fill="#FFDEAA" d="M96.3 141.46c9.419 1.363 15.044-2.606 14.714-6.306-.124-3.713-6.137-7.157-15.247-5.03-1.922.382-4.605 1.39-7.197 2.587-2.596 1.198-5.099 2.587-6.752 3.742 1.897 1 4.426 2.13 7.015 3.072 2.592.94 5.249 1.695 7.468 1.934M87.965 111.12l-8.738 25.163"/>
    <path fill="#CDD5D7" d="M89.261 245.076c-4.668 0-8.467-3.793-8.467-8.458V79.601c0-4.667 3.799-8.46 8.467-8.46h229.616c4.671 0 8.47 3.793 8.47 8.46v157.017c0 4.665-3.799 8.458-8.47 8.458H89.261"/>
    <path fill="#85ACED" d="M326.551 236.618a7.67 7.67 0 01-7.674 7.668H89.261a7.67 7.67 0 01-7.674-7.668V79.601a7.669 7.669 0 017.674-7.668h229.616a7.669 7.669 0 017.674 7.668v157.017"/>
    <path fill="#EAF4FE" d="M93.597 223.852h220.945V82.936H93.597z"/>
    <path fill="#9AC7F7" d="M39.502 245.225h329.133V235.6H39.502z"/>
    <path fill="#69AEEB" d="M39.984 245.224c3.89 4.112 11.047 5.73 15.985 5.73h296.198c4.937 0 12.095-1.618 15.985-5.73H39.984M181.715 235.6v1.034a3.44 3.44 0 003.437 3.44h37.837a3.441 3.441 0 003.437-3.44v-1.033h-44.711"/>
    <path fill="#6B9CDF" d="M304.126 109.56c0 7.627-6.188 13.808-13.82 13.808-7.633 0-13.818-6.181-13.818-13.808 0-7.626 6.185-13.808 13.819-13.808 7.631 0 13.819 6.182 13.819 13.808"/>
    <path fill="#FFF" d="M290.307 114.157a5.66 5.66 0 01-5.656-5.652v-1.03a.685.685 0 011.37 0v1.03a4.288 4.288 0 004.286 4.282 4.288 4.288 0 004.285-4.282v-1.03a.685.685 0 011.37 0v1.03a5.66 5.66 0 01-5.655 5.652"/>
    <path fill="#FFF" d="M290.307 111.417a2.917 2.917 0 01-2.915-2.912v-4.795a2.917 2.917 0 012.915-2.913 2.917 2.917 0 012.914 2.913v4.795a2.917 2.917 0 01-2.914 2.912M290.307 117.24a.684.684 0 01-.686-.686v-2.91a.685.685 0 111.371 0v2.91a.684.684 0 01-.685.685"/>
    <path fill="#FFF" d="M293.564 117.24h-6.514a.686.686 0 010-1.372h6.514a.685.685 0 010 1.37"/>
    <path fill="#DB585B" d="M304.126 143.921c0 7.628-6.188 13.808-13.82 13.808-7.633 0-13.818-6.18-13.818-13.808 0-7.624 6.185-13.808 13.819-13.808 7.631 0 13.819 6.184 13.819 13.808"/>
    <path fill="#12B886" d="M304.126 178.283c0 7.628-6.188 13.808-13.82 13.808-7.633 0-13.818-6.18-13.818-13.808 0-7.625 6.185-13.808 13.819-13.808 7.631 0 13.819 6.183 13.819 13.808"/>
    <path fill="#FFF" d="M292.984 184.227c-4.78 0-8.67-3.889-8.67-8.665v-2.166c0-.596.487-1.082 1.085-1.082h2.166c.261 0 .357.095.39.127.147.15.157.405.153.81v2.453c.004.407-.006.664-.156.814-.026.029-.115.118-.363.124l-.6.014.077.594a4.86 4.86 0 004.228 4.227l.595.075.014-.598c.006-.247.097-.336.126-.365.131-.13.346-.156.673-.156h2.732c.328 0 .543.027.675.156.032.03.128.128.128.39v2.164c0 .598-.487 1.084-1.085 1.084h-2.168M294.03 142.256v2.575l2.973 2.578v-7.73l-2.973 2.577M293.138 147.409c0 .49-.402.891-.895.891h-7.734a.893.893 0 01-.893-.891v-7.73c0-.492.4-.892.893-.892h7.734c.493 0 .895.4.895.892v7.73"/>
    <g transform="translate(106.019 46.588)">
      <mask id="b" fill="#fff">
        <use xlink:href="#a"/>
      </mask>
      <path fill="#F7B68B" d="M126.467 82.932s8.65-12.459 9.55-13.861c.91-1.4.479-2.582 1.107-6.201.609-3.631.897-4.284 1.548-7.092.645-2.838.8-3.155.8-3.155s1.524.585 1.552 1.747c-.008 1.045-.545 3.451-.513 4.335.047.897.497-2.005 2.347-5.93 1.853-3.896 4.167-7.51 5.262-9.001.694-.95.8-1.082.862-1.05.511.194.95.391.836.917-.07.46-.765 1.955-.663 1.884.415-.24 2.123-2.323 2.389-2.73.263-.386.616-.942.87-1.25.561-.636 1.33.032 1.204 1.464 0 0 .51.542.497.98.006.225-.006.386-.014.621-.018.226-.12.514-.148.757-.15.95-.355 1.866-.604 2.724-.106.356-1.48 3.283-1.282 3.346.022.019 1.421-2.16 1.592-2.052.363.252.697.883.503 1.305-.361.738-.874 1.853-2.47 4.866-1.755 3.327-1.817 4.095-3.53 8.595-1.28 3.368-3.173 4.146-4.688 6.933-4.97 9.136-7.844 17.411-10.434 19.3-2.57 1.904-6.573-7.452-6.573-7.452" mask="url(#b)"/>
      <path fill="#202954" d="M31.13 64.55s-18.145 4.136-20.6-3.45c-2.454-7.587 5.424-12.965-1.21-17.844-6.635-4.882-15.552-7.67-2.494-15.337 13.059-7.667.655-18.94 10.63-22.037 9.97-3.098 13.293 2.976 22.849.876 9.554-2.1 19.52-12.465 27.995-1.895 8.475 10.57 10.707 22.047 5.045 24.369-5.662 2.32 2.805 5.624 5.48 9.319 2.675 3.695 2.823 20.158-23.57 17.1-26.39-3.06-13.188 5.737-24.125 8.9" mask="url(#b)"/>
      <path fill="#1C234A" d="M49.307 69.208c2-3.545 6.528-4.242 11.821-1.385 26.776 14.536 56.055 48.143 56.055 48.143s.41 7.506-5.705 8.667c-7.341 1.399-27.912-4.843-60.354-31.958-9.375-7.849-5.187-17.468-1.817-23.467" mask="url(#b)"/>
      <path fill="#F7B68B" d="M15.295 97.27s22.897 20.502 39.64 18.129c16.755-2.38 22.856-8.505 22.71-15.486-.169-7.006-4.983-17.955-8.9-21.06-9.864-7.82-10.667-7.018-15.278-9.423-5.026-2.62-6.143-11.147-6.916-18.422-.773-7.273 4.338-9.732-2.127-10.798-6.457-1.048-5.43-4.974-10.378-2.074-4.936 2.903-8.795 2.099-6.852 7.152 3.54 9.248 9.272 21.926 6.386 29.843-3.178 8.8-8.043 12.93-18.285 22.14" mask="url(#b)"/>
      <path fill="#CF830D" d="M87.363 119.912A4649.822 4649.822 0 0170.98 84.424c-1.203-2.623-2.531-4.923-3.892-6.86 6.066 29.717-10.213 24.531-33.33 10.544-4.042 7.659-17.967 17.605-17.677 18.855 3.158 13.498 7.437 26.739 10.702 40.214 1.365 5.737 5.532 10.317 9.832 13.197.016 1.078.12 2.227.407 3.402l1.12 6.677c1.284 5.404-3.324 26.254-.008 25.632l48.062-9.931c3.318-.628 4.573-12.795 3.283-18.17L87.22 140.41c-.09-.468-.262-.906-.404-1.354 2.225-5.56 3.357-13.202.548-19.143" mask="url(#b)"/>
      <path fill="#EC9568" d="M46.551 51.008c-.773-7.273 4.338-9.732-2.127-10.798-6.457-1.048-5.43-4.974-10.378-2.074-2.405 1.415-4.55 1.95-5.897 2.712-.465.591-.937 1.17-1.416 1.74-.121.663.006 1.517.46 2.7 1.828 4.774 4.237 10.462 5.746 15.938 4.397 1.957 9.937 2.397 15.555.987-1.057-3.423-1.547-7.476-1.943-11.205" mask="url(#b)"/>
      <path fill="#31336D" d="M33.01 76.845S8.67 86.972 10.012 97.352c1.98 15.277 3.203 24.811 7.427 32.394 4.904 8.811 8.97 21.136 15.65 32.372 8.104 13.66.909 31.197 2.503 27.882.316-.66 22.02-9.281 28.437-10.886 2.606-.65.267-55.842-13.37-82.295-5.11-9.91-17.649-19.974-17.649-19.974M80.812 88.69c-1.894-3.491-11.914-13.173-17.05-16.454-4.08-2.606-9.093-2.806-10.399-2.952-1.184-.133 16.224 5.498 25.474 41.166 1.582 6.088 1.574 21.618 2.176 31.633.617 10 3.486 28.068 3.486 28.068s10.599-.683 11.459.7c.888 1.371-6.074-12.003-6.53-26.26-1.077-34.252-.22-40.412-8.616-55.901" mask="url(#b)"/>
      <path fill="#1C234A" d="M19.396 89.937c-4.074-.253-9.775-.558-9.384 6.347 1.765 30.252 9.802 89.203 9.802 89.203s6.92 3.862 10.422-1.773c4.45-7.119 11.83-28.771 7.668-77.406-1.22-14.058-11.599-15.95-18.508-16.371" mask="url(#b)"/>
      <path fill="#1C234A" d="M20.32 228.103c-6.957 1.129-9.957-1.913-15.94-4.511 2.738-15.368 7.87-38.514 12.03-54.31 1.536-5.887 14.483-14.36 18.125-12.584 6.194 3-.85 30.149-4.103 42.068-2.965 10.872-4.956 22.575-10.111 29.337M131.687 71.24c-8.767 11.169-23.292 29.01-31.77 41.565-3.15 4.669 3.65 10.688 6.769 11.614 7.858 2.33 13.257-8.074 19.599-17.642 5.782-8.722 12.502-17.141 14.762-25.262-2.101-6.304-5.263-6.944-9.36-10.276" mask="url(#b)"/>
      <path fill="#F7B68B" d="M28.496 14.202a22.5 22.5 0 00-1.489.206c1.124 5.813-.736 13.905-5.504 21.53a41.968 41.968 0 01-3.754 5.094l1.963 5.108c2.89 7.544 11.647 11.235 19.548 8.202 7.912-3.023 11.964-11.607 9.076-19.16l-4.411-11.5c-4.932-1.115-10.515-4.411-15.43-9.48" mask="url(#b)"/>
    </g>
  </g>
</svg>
