<svg xmlns="http://www.w3.org/2000/svg" xmlns:xlink="http://www.w3.org/1999/xlink" viewBox="0 0 420 212.8"><defs><path id="a" d="M216.9 120.9C167.4 85.9 114.8-.2 61.4 57.3c-26.4 26.2-49 76-57.5 110.9-4 16.8-5 30.3-2.5 41.8h250.1c8.1-16.9 10.9-32.4 9-43.2-3.2-19.8-19.6-26.5-43.6-45.9"/></defs><clipPath id="b"><use xlink:href="#a" overflow="visible"/></clipPath><g clip-path="url(#b)"><defs><path id="c" d="M-56-760h1240v3340H-56z"/></defs><clipPath id="d"><use xlink:href="#c" overflow="visible"/></clipPath><path clip-path="url(#d)" fill="#f6f4ef" d="M-5 33h271v182H-5z"/></g><defs><circle id="e" cx="344" cy="92" r="76"/></defs><clipPath id="f"><use xlink:href="#e" overflow="visible"/></clipPath><g clip-path="url(#f)"><defs><path id="g" d="M-56-760h1240v3340H-56z"/></defs><clipPath id="h"><use xlink:href="#g" overflow="visible"/></clipPath><path clip-path="url(#h)" fill="#f6f4ef" d="M263 11h162v162H263z"/></g><defs><path id="i" d="M343.9 16.1c41.9 0 75.8 34.2 75.8 76.3 0 42.1-33.9 76.3-75.8 76.3s-75.8-34.2-75.8-76.3"/></defs><clipPath id="j"><use xlink:href="#i" overflow="visible"/></clipPath><g clip-path="url(#j)"><defs><path id="k" d="M-56-760h1240v3340H-56z"/></defs><clipPath id="l"><use xlink:href="#k" overflow="visible"/></clipPath><g clip-path="url(#l)"><defs><path id="m" d="M276 73h129v99H276z"/></defs><clipPath id="n"><use xlink:href="#m" overflow="visible"/></clipPath><g clip-path="url(#n)"><defs><path id="o" d="M314 124.7c3.7 10.9 6.3 33.5 10.5 46.5h51.3l3.4-27.6s12.4 1 13.5-2.2c7.9-24.9 15.3-48.6-14.1-64.4-6.3-3.4-45-2.3-45-2.3s-25.4 4.5-56.4 47.6c-1.2 1.4 32.5-10.1 36.8 2.4"/></defs><clipPath id="p"><use xlink:href="#o" overflow="visible"/></clipPath><g clip-path="url(#p)"><defs><path id="q" d="M268 16h152v153H268z"/></defs><clipPath id="r"><use xlink:href="#q" overflow="visible"/></clipPath><path clip-path="url(#r)" fill="#212957" d="M272 69.5h132.6v106.7H272z"/></g></g></g></g><defs><path id="s" d="M328.3 94.1l-8.8 3.6s-3.4 1.6-2.6 2c1 .6 7.8-1.5 7.8-1.5s2 .8 4.9 2.8c2.9 2 8.2 1.6 8.2 1.6s18 34.9 34 40.8c16 5.9 18.3 3.3 20.6-1 2.3-4.2 1.8-15.2-10.2-21.2-15.2-7.6-40.7-20.6-40.7-20.6l-7.8-8.2-5.5-.2s-2.3 1.6-3.6 2.6"/></defs><clipPath id="t"><use xlink:href="#s" overflow="visible"/></clipPath><g clip-path="url(#t)"><defs><path id="u" d="M-56-760h1240v3340H-56z"/></defs><clipPath id="v"><use xlink:href="#u" overflow="visible"/></clipPath><path clip-path="url(#v)" fill="#f7b68b" d="M311.7 87.1h86.6v64.6h-86.6z"/></g><defs><path id="w" d="M315.3 116.8c.4 1.1-.2 2-1.2 2h-51.9c-1.1 0-2.3-.9-2.7-2L246.3 81c-.4-1.1.2-1.6 1.2-1.6h51.9c1.1 0 2.3.6 2.7 1.6l13.2 35.8"/></defs><clipPath id="x"><use xlink:href="#w" overflow="visible"/></clipPath><g clip-path="url(#x)"><defs><path id="y" d="M-56-760h1240v3340H-56z"/></defs><clipPath id="z"><use xlink:href="#y" overflow="visible"/></clipPath><path clip-path="url(#z)" fill="#9c9b98" d="M241.2 74.3h79.3v49.5h-79.3z"/></g><defs><path id="A" d="M334.3 122.6c0 1.1-1 1.8-2.1 1.8h-69.3c-1.1 0-2-.8-2-1.8v-1.7c0-1.1.9-2.1 2-2.1h69.3c1.1 0 2.1 1 2.1 2.1v1.7"/></defs><clipPath id="B"><use xlink:href="#A" overflow="visible"/></clipPath><g clip-path="url(#B)"><defs><path id="C" d="M-56-760h1240v3340H-56z"/></defs><clipPath id="D"><use xlink:href="#C" overflow="visible"/></clipPath><path clip-path="url(#D)" fill="#9c9b98" d="M255.9 113.8h83.4v15.6h-83.4z"/></g><defs><path id="E" d="M304.1 124.4h-37.2s-9.7 4.5-.5 12c7.5 6.1 15.8 1.8 19.9.1 4.2-1.7 17.3-9.6 17.3-9.6l5.9.7 7.3-3.4s-1.7-1-3.9 0-3.4.7-3.4.7l-2.2-1.2 1.5-1.7.7-1.7-3.4 2-2 2.1"/></defs><clipPath id="F"><use xlink:href="#E" overflow="visible"/></clipPath><g clip-path="url(#F)"><defs><path id="G" d="M-56-760h1240v3340H-56z"/></defs><clipPath id="H"><use xlink:href="#G" overflow="visible"/></clipPath><path clip-path="url(#H)" fill="#ec9568" d="M257.4 115.2h64.4v29.3h-64.4z"/></g><defs><path id="I" d="M306.9 125s-26.5 2.5-33.2 3.2c-4.4.4-8.5 2.3-9.6 4.6.5 1.1.8 2.7 2.3 3.6 7.9 5 14.6 2.9 18.8 1.2 4.2-1.7 18.4-10.7 18.4-10.7l5.9.7c.3-.5-2.1-2.5-2.6-2.6"/></defs><clipPath id="J"><use xlink:href="#I" overflow="visible"/></clipPath><g clip-path="url(#J)"><defs><path id="K" d="M-56-760h1240v3340H-56z"/></defs><clipPath id="L"><use xlink:href="#K" overflow="visible"/></clipPath><path clip-path="url(#L)" fill="#f7b68b" d="M259.1 120h55.4v24.6h-55.4z"/></g><defs><path id="M" d="M391.6 143.4c-1.7 1.2-2.3 2.1-5.1 1.8-4.3-.6-17.8-8.3-24.2-13.1-10.1-7.7-24-29.4-24.6-29.4 1 1.9 18.4 35 33.9 40.7 14.7 5.3 17.9 3.5 20 0"/></defs><clipPath id="N"><use xlink:href="#M" overflow="visible"/></clipPath><g clip-path="url(#N)"><defs><path id="O" d="M-56-760h1240v3340H-56z"/></defs><clipPath id="P"><use xlink:href="#O" overflow="visible"/></clipPath><path clip-path="url(#P)" fill="#ec9568" d="M332.8 97.6h63.9v54.1h-63.9z"/></g><defs><path id="Q" d="M200.2 184.3c-.3 1.1-1.4 1.7-2.4 1.4l-8.2-2.2c-1.1-.3-1.7-1.4-1.4-2.4l31.3-119.5c.3-1.1 1.4-1.7 2.4-1.4l8.2 2.2c1.1.3 1.7 1.4 1.4 2.4l-31.3 119.5"/></defs><clipPath id="R"><use xlink:href="#Q" overflow="visible"/></clipPath><g clip-path="url(#R)"><defs><path id="S" d="M-56-760h1240v3340H-56z"/></defs><clipPath id="T"><use xlink:href="#S" overflow="visible"/></clipPath><path clip-path="url(#T)" fill="#9c9b98" d="M183 55.1h53.6v135.7H183z"/></g><defs><path id="U" d="M196.9 185.1c-.2 0-.5 0-.7-.1l-8.2-2.2.4-1.3 8.2 2.2c.7.2 1.4-.2 1.6-.9l31.3-119.5 1.3.4-31.3 119.5c-.3 1.1-1.4 1.9-2.6 1.9"/></defs><clipPath id="V"><use xlink:href="#U" overflow="visible"/></clipPath><g clip-path="url(#V)"><defs><path id="W" d="M-56-760h1240v3340H-56z"/></defs><clipPath id="X"><use xlink:href="#W" overflow="visible"/></clipPath><path clip-path="url(#X)" fill="#797874" d="M182.9 58.2h52.9v131.9h-52.9z"/></g><defs><path id="Y" d="M235.2 211.4h-31.6V209H235c.7 0 5.8-1.5 5.8-8.6 0-4.7-16.3-47.8-27.3-75.5l2.6-1c2.8 7.1 27.5 69.7 27.5 76.5 0 7.9-5.4 10.7-8.2 11.1l-.2-.1"/></defs><clipPath id="Z"><use xlink:href="#Y" overflow="visible"/></clipPath><g clip-path="url(#Z)"><defs><path id="aa" d="M-56-760h1240v3340H-56z"/></defs><clipPath id="ab"><use xlink:href="#aa" overflow="visible"/></clipPath><path clip-path="url(#ab)" fill="#797874" d="M198.6 118.8h49.9v97.6h-49.9z"/></g><defs><path id="ac" d="M194.8 211.4v-1.5c0-1.1-.4-.9-1.5-.9h-49.6c-1.1 0-3.7-.2-3.7.9v1.5h54.8"/></defs><clipPath id="ad"><use xlink:href="#ac" overflow="visible"/></clipPath><g clip-path="url(#ad)"><defs><path id="ae" d="M-56-760h1240v3340H-56z"/></defs><clipPath id="af"><use xlink:href="#ae" overflow="visible"/></clipPath><path clip-path="url(#af)" fill="#797874" d="M134.9 204h64.8v12.4h-64.8z"/></g><defs><path id="ag" d="M97 183.5c2.8.5 13.3 3.7 21.5-4.9 8.2-8.6 0-17.9 18.3-24.9 18.3-6.9 23.8-17.1 10.1-32.6-13.7-15.5-2.3-15.9-3.2-28.9-.9-13-30.2-31.8-53.5-15.9-14.5 9.8-20.2 12.6-10.6 41.2 9.8 29-13.3 20-18.3 33s17.9 29.8 35.7 33"/></defs><clipPath id="ah"><use xlink:href="#ag" overflow="visible"/></clipPath><g clip-path="url(#ah)"><defs><path id="ai" d="M-56-760h1240v3340H-56z"/></defs><clipPath id="aj"><use xlink:href="#ai" overflow="visible"/></clipPath><path clip-path="url(#aj)" fill="#212a54" d="M55.7 65.2h103.9v124.3H55.7z"/></g><g><defs><path id="ak" d="M126.8 185.4l12.7 18.7s9.5-14.3 8.3-19.4c-1.3-5.1-7-13.6-9.2-18.1"/></defs><clipPath id="al"><use xlink:href="#ak" overflow="visible"/></clipPath><g clip-path="url(#al)"><defs><path id="am" d="M-56-760h1240v3340H-56z"/></defs><clipPath id="an"><use xlink:href="#am" overflow="visible"/></clipPath><path clip-path="url(#an)" fill="#ec9568" d="M121.8 161.7h31.1v47.4h-31.1z"/></g></g><g><defs><path id="ao" d="M130.1 149.2l10 18.4-14.3 22.8-7.3-17.1c.1 0-1.5-34.6 11.6-24.1"/></defs><clipPath id="ap"><use xlink:href="#ao" overflow="visible"/></clipPath><g clip-path="url(#ap)"><defs><path id="aq" d="M-56-760h1240v3340H-56z"/></defs><clipPath id="ar"><use xlink:href="#aq" overflow="visible"/></clipPath><path clip-path="url(#ar)" fill="#645393" d="M113.5 142.2h31.7v53.2h-31.7z"/></g></g><g><defs><path id="as" d="M127.6 148.1s-4.1-1.7-11.1-4.8c-2.9-1.3-7.7-1.6-7.7-1.6s-17 1.7-33.2 22.9c-16.2 21.3-35.5 46-35.5 46h55c-.1 0 36.3-20.9 32.5-62.5"/></defs><clipPath id="at"><use xlink:href="#as" overflow="visible"/></clipPath><g clip-path="url(#at)"><defs><path id="au" d="M-56-760h1240v3340H-56z"/></defs><clipPath id="av"><use xlink:href="#au" overflow="visible"/></clipPath><path clip-path="url(#av)" fill="#816cbb" d="M35.1 136.6h97.8v79H35.1z"/></g></g><g><defs><path id="aw" d="M139.5 204.1s3.8-33.6 5.1-37.4c1.3-3.8 1-12.1 5.4-2.9s4.4 30.8 4.8 37.1c.3 6.4-13.7 6.4-15.3 3.2"/></defs><clipPath id="ax"><use xlink:href="#aw" overflow="visible"/></clipPath><g clip-path="url(#ax)"><defs><path id="ay" d="M-56-760h1240v3340H-56z"/></defs><clipPath id="az"><use xlink:href="#ay" overflow="visible"/></clipPath><path clip-path="url(#az)" fill="#f7b68b" d="M134.5 154.6h25.3v56.6h-25.3z"/></g></g><g><defs><path id="aA" d="M110 182.2l-.8 14.7 31.9 3.5 18.7-3 7-.3 12.1 7.6s-.1.6-1.6.6c-.3 0 1.1.9 1.1.9s-1.5 2.2-8.9-.4c-.8-.3 2.7 2.1 2.7 2.1s0 .7-3.2.5c-1.1-.1-2.2-1-3.8-1-1.7 0-5.6-.1-7.8.2-2.2.3-3.9 1.3-7.4 1.7-4.5.5-7.5-1-7.5-1s-31 4-40.8 4.4c-9.8.3-14.3.6-13.7-4.1.6-4.8 1.6-30.8 1.6-30.8l20.4 4.4"/></defs><clipPath id="aB"><use xlink:href="#aA" overflow="visible"/></clipPath><g clip-path="url(#aB)"><defs><path id="aC" d="M-56-760h1240v3340H-56z"/></defs><clipPath id="aD"><use xlink:href="#aC" overflow="visible"/></clipPath><path clip-path="url(#aD)" fill="#f7b68b" d="M83 172.8h100.9v45.1H83z"/></g></g><g><defs><path id="aE" d="M147.8 160.1s-3.2-2-7.9-3c-4.8-1-9.2 4.8-11.8 5.1-2.5.3-12.1 5.4-13 6-1 .6 0 1.6 3.8.3s9.2-2.5 9.2-2.5l-6 4.8-2.9 5.7s1.8.8 3.3-1c1.4-1.6 2.1-3.2 2.1-3.2l5.7-3.5-3.2 6.3-3.8 6.3s3 1.8 5.4-3.8c1.4-3.1 5.7-5.4 5.7-5.4l-1.9 5.1-1.6 3.6s1.4 2 2.9-.4c2.3-3.9 4.1-6.8 4.1-6.8s6.4-3.1 8.6-7.2"/></defs><clipPath id="aF"><use xlink:href="#aE" overflow="visible"/></clipPath><g clip-path="url(#aF)"><defs><path id="aG" d="M-56-760h1240v3340H-56z"/></defs><clipPath id="aH"><use xlink:href="#aG" overflow="visible"/></clipPath><path clip-path="url(#aH)" fill="#f7b68b" d="M109.7 152h43.1v34.8h-43.1z"/></g></g><g><defs><path id="aI" d="M130.5 197.9l-2.9 13.3 1.6.4 2.8-13.4"/></defs><clipPath id="aJ"><use xlink:href="#aI" overflow="visible"/></clipPath><g clip-path="url(#aJ)"><defs><path id="aK" d="M-56-760h1240v3340H-56z"/></defs><clipPath id="aL"><use xlink:href="#aK" overflow="visible"/></clipPath><path clip-path="url(#aL)" fill="#9ac7f7" d="M122.6 192.9H137v23.7h-14.4z"/></g></g><g><defs><path id="aM" d="M133 198.3l-1.6 12 1.6.2 1.6-12"/></defs><clipPath id="aN"><use xlink:href="#aM" overflow="visible"/></clipPath><g clip-path="url(#aN)"><defs><path id="aO" d="M-56-760h1240v3340H-56z"/></defs><clipPath id="aP"><use xlink:href="#aO" overflow="visible"/></clipPath><path clip-path="url(#aP)" fill="#fd2227" d="M126.4 193.3h13.2v22.3h-13.2z"/></g></g><g><defs><path id="aQ" d="M168.2 199.7s5.6 2.8 8.6 4.2l2.1.9s-.1.6-1.6.6l-7.3-4.2-6.7-.3 4.9-1.2"/></defs><clipPath id="aR"><use xlink:href="#aQ" overflow="visible"/></clipPath><g clip-path="url(#aR)"><defs><path id="aS" d="M-56-760h1240v3340H-56z"/></defs><clipPath id="aT"><use xlink:href="#aS" overflow="visible"/></clipPath><path clip-path="url(#aT)" fill="#ec9568" d="M158.3 194.7h25.6v15.7h-25.6z"/></g></g><g><defs><path id="aU" d="M172.2 207.9v.1h-.1l-1.4-1.1c.8.6 1.5 1 1.5 1"/></defs><clipPath id="aV"><use xlink:href="#aU" overflow="visible"/></clipPath><g clip-path="url(#aV)"><defs><path id="aW" d="M-56-760h1240v3340H-56z"/></defs><clipPath id="aX"><use xlink:href="#aW" overflow="visible"/></clipPath><path clip-path="url(#aX)" fill="#ec9568" d="M165.7 202h11.5v11.1h-11.5z"/></g></g><g><defs><path id="aY" d="M162.9 204.1h5.8s4.2 2.2 7.5 3.2c-1.3.1-3.5-.2-6.7-1.4-.1 0-.1-.1-.1-.1l-1.6-1.1-4.9-.6"/></defs><clipPath id="aZ"><use xlink:href="#aY" overflow="visible"/></clipPath><g clip-path="url(#aZ)"><defs><path id="ba" d="M-56-760h1240v3340H-56z"/></defs><clipPath id="bb"><use xlink:href="#ba" overflow="visible"/></clipPath><path clip-path="url(#bb)" fill="#ec9568" d="M157.9 199.1h23.3v13.2h-23.3z"/></g></g><g><defs><path id="bc" d="M106.8 192.9s-6.2.3-10.3 3.3c-4.1 2.9-6 7.2-8.1 7.9.3-5.4.7-13.8 1-19.6 5.7-1.3 14.2 7.8 17.4 8.4"/></defs><clipPath id="bd"><use xlink:href="#bc" overflow="visible"/></clipPath><g clip-path="url(#bd)"><defs><path id="be" d="M-56-760h1240v3340H-56z"/></defs><clipPath id="bf"><use xlink:href="#be" overflow="visible"/></clipPath><path clip-path="url(#bf)" fill="#ec9568" d="M83.4 179.3h28.4V209H83.4z"/></g></g><g><defs><path id="bg" d="M108.5 153.3s2.9 31.4 3.2 38.1c.3 6.7-28.6-1.3-28.6-1.3s2.4-18.4 5.6-28.9c3.2-10.4 7.1-18.6 19.8-7.9"/></defs><clipPath id="bh"><use xlink:href="#bg" overflow="visible"/></clipPath><g clip-path="url(#bh)"><defs><path id="bi" d="M-56-760h1240v3340H-56z"/></defs><clipPath id="bj"><use xlink:href="#bi" overflow="visible"/></clipPath><path clip-path="url(#bj)" fill="#645393" d="M78.1 143.3h38.6v55.8H78.1z"/></g></g><g><defs><path id="bk" d="M106.3 141.9c4.7-2.4 2.4-14.2.9-19.9-1.6-6.5 15.9 5.3 15.9 5.3s-5.3 5.3-4.1 11.8c.6 3.3 2.3 6 6.2 7.6-1.5 8.5-2.1 14.8-5.6 15.2-4.4.5-9.3-7.4-13.3-20"/></defs><clipPath id="bl"><use xlink:href="#bk" overflow="visible"/></clipPath><g clip-path="url(#bl)"><defs><path id="bm" d="M-56-760h1240v3340H-56z"/></defs><clipPath id="bn"><use xlink:href="#bm" overflow="visible"/></clipPath><path clip-path="url(#bn)" fill="#f7b68b" d="M101.3 115h28.9v51.9h-28.9z"/></g></g><g><defs><path id="bo" d="M119.8 141c-3.9-2.1-7.6-4.7-10.7-7.8-.2-4-1.1-8.4-1.9-11.3-1.6-6.5 15.9 5.3 15.9 5.3s-5.3 5.3-4.1 11.8c.2.8.5 1.4.8 2"/></defs><clipPath id="bp"><use xlink:href="#bo" overflow="visible"/></clipPath><g clip-path="url(#bp)"><defs><path id="bq" d="M-56-760h1240v3340H-56z"/></defs><clipPath id="br"><use xlink:href="#bq" overflow="visible"/></clipPath><path clip-path="url(#br)" fill="#ec9568" d="M102.1 115h26v31h-26z"/></g></g><g><defs><path id="bs" d="M124.4 78.7s32.9 54.2-4.5 50.1c-15.1-1.6-16.3-8.2-18-12.6-1.6-4.5-6.9 2.9-8.2-6.1-1.2-9 1.6-8.6 5.7-4.5s5.7 2 6.1-4.5c.4-6.5-5.7-8.2 6.5-8.2 12.4.1 16.9-4.4 12.4-14.2"/></defs><clipPath id="bt"><use xlink:href="#bs" overflow="visible"/></clipPath><g clip-path="url(#bt)"><defs><path id="bu" d="M-56-760h1240v3340H-56z"/></defs><clipPath id="bv"><use xlink:href="#bu" overflow="visible"/></clipPath><path clip-path="url(#bv)" fill="#f7b68b" d="M88.5 73.7h54.3v60.4H88.5z"/></g></g><g><defs><path id="bw" d="M342 77.5c.2 1.3-1 8.8 4 11 1.5.2 2.8.4 4 .5.8-.1 2.8-.2 3.7-.5 12.2-3.5 5.4-15.4 4.8-15.9C354.2 69.2 352 53 352 53s-19.7 2.4-12.3 10.1c3.6 3.8 2.1 13.1 2.3 14.4z"/></defs><clipPath id="bx"><use xlink:href="#bw" overflow="visible"/></clipPath><g clip-path="url(#bx)"><defs><path id="by" d="M-56-760h1240v3340H-56z"/></defs><clipPath id="bz"><use xlink:href="#by" overflow="visible"/></clipPath><path clip-path="url(#bz)" fill="#f7b68b" d="M333 48h33v46h-33z"/></g></g><g><defs><path id="bA" d="M365.6 41.6c5.1-5.4-5.1-4.6-6.6-13.9s-9.1-32.8-13.4-18.3c-4.3 14.4 3.2 19.1 2.4 12.4-.8-6.7 1.7-24.9-17.1-21.3C312 4.2 307 17.1 323.6 21c16.5 3.9-20.8-14.2-18.5-1.8 2.4 12.4 13.3 9.5 17.1 8.9 3.8-.6-16.4-7.5-12.7 5.5 3.8 12.9 15.8 17.2 30.9 19.4.1 0 20.1-6 25.2-11.4z"/></defs><clipPath id="bB"><use xlink:href="#bA" overflow="visible"/></clipPath><g clip-path="url(#bB)"><defs><path id="bC" d="M-56-760h1240v3340H-56z"/></defs><clipPath id="bD"><use xlink:href="#bC" overflow="visible"/></clipPath><path clip-path="url(#bD)" fill="#4d4d4d" d="M300-5h72v63h-72z"/></g></g><g><defs><path id="bE" d="M356 53s-3.8 5.2 4 22.6c0 0-10.4 6-18.3-1.1 0-2.9-.9-6-3.9-9C328.7 56.1 356 53 356 53"/></defs><clipPath id="bF"><use xlink:href="#bE" overflow="visible"/></clipPath><g clip-path="url(#bF)"><defs><path id="bG" d="M-56-760h1240v3340H-56z"/></defs><clipPath id="bH"><use xlink:href="#bG" overflow="visible"/></clipPath><path clip-path="url(#bH)" fill="#ec9568" d="M331 48h34v35h-34z"/></g></g><g><defs><path id="bI" d="M323.5 27s-2.1 10 2.2 24.8C330 66.5 338 69.6 350 65.1s11.1-19.7 10.1-23.3c-.9-3.6 11.2-3 7-10.9-4.2-7.9-8.6-3.7-8.6-.3 0 3.4-1.3 8.1-4.4 5.9-3.1-2.2-.4-16.2-5.9-13-5.6 3.2-15.4 7.9-24.7 3.5"/></defs><clipPath id="bJ"><use xlink:href="#bI" overflow="visible"/></clipPath><g clip-path="url(#bJ)"><defs><path id="bK" d="M-56-760h1240v3340H-56z"/></defs><clipPath id="bL"><use xlink:href="#bK" overflow="visible"/></clipPath><path clip-path="url(#bL)" fill="#f7b68b" d="M318 18h55v54h-55z"/></g></g><g><defs><path id="bM" d="M267.4 18.1c1 .4 2 .8 3 1.3l.6-1.4c-1-.5-2-.9-3-1.3l-.6 1.4zm-11.7-4.3c1.9.6 3.9 1.3 5.9 2l.6-1.5c-2-.7-4-1.4-6-2l-.5 1.5zm-12.2-2.9c2 .4 4 .8 6.1 1.3l.4-1.5c-2.1-.5-4.2-1-6.2-1.3l-.3 1.5zm-12.4-1.3c2 .1 4.1.2 6.2.4l.2-1.5c-2.2-.2-4.3-.4-6.3-.4l-.1 1.5zm-12.4.6c2-.3 4.1-.5 6.2-.6l-.1-1.6c-2.2.1-4.3.3-6.3.6l.2 1.6zM206.6 13c1.9-.6 3.9-1.2 6-1.7l-.4-1.5c-2.1.5-4.2 1.1-6.1 1.7l.5 1.5zm-11.4 4.9c1.8-1 3.6-1.9 5.6-2.7l-.6-1.4c-2 .9-3.9 1.8-5.7 2.8l.7 1.3zm-10.3 6.8c1.6-1.2 3.2-2.5 5-3.6l-.9-1.3c-1.8 1.2-3.5 2.5-5.1 3.7l1 1.2zm-9.1 8.5c1.3-1.4 2.7-2.9 4.3-4.4l-1.1-1.1c-1.7 1.5-3.1 3.1-4.4 4.5l1.2 1zm-7.4 9.8c.1-.1 1.2-2.1 3.5-5.1l-1.3-.9c-2.4 3.1-3.6 5.2-3.6 5.3l1.4.7z"/></defs><clipPath id="bN"><use xlink:href="#bM" overflow="visible"/></clipPath><g clip-path="url(#bN)"><defs><path id="bO" d="M-56-760h1240v3340H-56z"/></defs><clipPath id="bP"><use xlink:href="#bO" overflow="visible"/></clipPath><path clip-path="url(#bP)" fill="#00046d" d="M162 3h114v45H162z"/></g></g><g><defs><path id="bQ" d="M302 38.5c0 7.5-5.9 13.5-13.3 13.5h-39.4C242 52 236 46 236 38.5S241.9 25 249.3 25h39.4c7.4 0 13.3 6 13.3 13.5"/></defs><clipPath id="bR"><use xlink:href="#bQ" overflow="visible"/></clipPath><g clip-path="url(#bR)"><defs><path id="bS" d="M-56-760h1240v3340H-56z"/></defs><clipPath id="bT"><use xlink:href="#bS" overflow="visible"/></clipPath><path clip-path="url(#bT)" fill="#ff8900" d="M231 20h76v37h-76z"/></g></g><g><defs><path id="bU" d="M286 63V46h-17l17 17"/></defs><clipPath id="bV"><use xlink:href="#bU" overflow="visible"/></clipPath><g clip-path="url(#bV)"><defs><path id="bW" d="M-56-760h1240v3340H-56z"/></defs><clipPath id="bX"><use xlink:href="#bW" overflow="visible"/></clipPath><path clip-path="url(#bX)" fill="#ff8900" d="M264 41h27v27h-27z"/></g></g><g><defs><path id="bY" d="M253 38h32v2h-32z"/></defs><clipPath id="bZ"><use xlink:href="#bY" overflow="visible"/></clipPath><g clip-path="url(#bZ)"><defs><path id="ca" d="M-56-760h1240v3340H-56z"/></defs><clipPath id="cb"><use xlink:href="#ca" overflow="visible"/></clipPath><path clip-path="url(#cb)" fill="#fff" d="M248 33h42v12h-42z"/></g></g><g><defs><path id="cc" d="M138 62.5c0 7.5 5.9 13.5 13.3 13.5h39.4c7.3 0 13.3-6 13.3-13.5S198.1 49 190.7 49h-39.4c-7.4 0-13.3 6-13.3 13.5"/></defs><clipPath id="cd"><use xlink:href="#cc" overflow="visible"/></clipPath><g clip-path="url(#cd)"><defs><path id="ce" d="M-56-760h1240v3340H-56z"/></defs><clipPath id="cf"><use xlink:href="#ce" overflow="visible"/></clipPath><path clip-path="url(#cf)" fill="#ff5100" d="M133 44h76v37h-76z"/></g></g><g><defs><path id="cg" d="M153 86V69h17l-17 17"/></defs><clipPath id="ch"><use xlink:href="#cg" overflow="visible"/></clipPath><g clip-path="url(#ch)"><defs><path id="ci" d="M-56-760h1240v3340H-56z"/></defs><clipPath id="cj"><use xlink:href="#ci" overflow="visible"/></clipPath><path clip-path="url(#cj)" fill="#ff5100" d="M148 64h27v27h-27z"/></g></g><g><defs><path id="ck" d="M155 62h32v2h-32z"/></defs><clipPath id="cl"><use xlink:href="#ck" overflow="visible"/></clipPath><g clip-path="url(#cl)"><defs><path id="cm" d="M-56-760h1240v3340H-56z"/></defs><clipPath id="cn"><use xlink:href="#cm" overflow="visible"/></clipPath><path clip-path="url(#cn)" fill="#fff" d="M150 57h42v12h-42z"/></g></g></svg>