<svg xmlns="http://www.w3.org/2000/svg" xmlns:xlink="http://www.w3.org/1999/xlink" viewBox="0 0 420 213"><defs/><defs><path id="a" d="M75.929.082c41.852 0 75.78 34.152 75.78 76.28 0 42.127-33.928 76.278-75.78 76.278-41.851 0-75.78-34.151-75.78-76.279"/></defs><g fill="none" fill-rule="evenodd"><path fill="#F6F4EF" d="M216.9 120.88C167.388 85.925 114.826-.229 61.435 57.27 35.028 83.503 12.368 133.295 3.853 168.21-.11 184.966-1.129 198.551 1.324 210h250.102c8.095-16.9 10.91-32.395 9-43.167-3.084-19.877-19.572-26.52-43.527-45.953M344 168c-41.974 0-76-34.026-76-76s34.026-76 76-76 76 34.026 76 76-34.026 76-76 76z"/><g transform="translate(268 16)"><mask id="b" fill="#fff"><use xlink:href="#a"/></mask><path fill="#212957" d="M45.991 108.735c3.727 10.865 6.274 33.534 10.48 46.48h51.267l3.37-27.644s12.439 1.034 13.474-2.24c7.86-24.862 15.345-48.584-14.128-64.406-6.28-3.37-45.002-2.254-45.002-2.254s-25.449 4.502-56.385 47.604c-1.03 1.436 32.618-10.09 36.924 2.46" mask="url(#b)"/></g><path fill="#F7B68B" d="M328.251 94.076l-8.816 3.585s-3.4 1.578-2.611 2.037c.98.571 7.837-1.548 7.837-1.548s1.956.815 4.896 2.77c2.938 1.957 8.162 1.631 8.162 1.631s17.956 34.884 33.954 40.751c15.998 5.868 18.281 3.26 20.566-.978 2.287-4.24 1.8-15.171-10.212-21.169-15.243-7.61-40.718-20.56-40.718-20.56l-7.834-8.231-5.55-.245s-2.287 1.63-3.59 2.608"/><path fill="#9C9B98" d="M315.339 116.816c.394 1.08-.164 1.958-1.246 1.958h-51.91c-1.082 0-2.278-.878-2.67-1.958l-13.191-35.864c-.394-1.08.164-1.634 1.245-1.634h51.91c1.081 0 2.277.554 2.672 1.634l13.19 35.864M334.277 122.573c0 1.08-.99 1.838-2.072 1.838H262.92c-1.081 0-2.025-.757-2.025-1.838v-1.711c0-1.08.944-2.088 2.025-2.088h69.285c1.083 0 2.072 1.008 2.072 2.088v1.711"/><path fill="#EC9568" d="M304.092 124.41h-37.219s-9.708 4.53-.49 11.973c7.53 6.08 15.756 1.822 19.919.111 4.16-1.711 17.3-9.593 17.3-9.593l5.878.703 7.344-3.44s-1.714-.985-3.918-.006c-2.204.977-3.426.729-3.426.729l-2.204-1.225 1.47-1.713.734-1.712-3.43 1.965-1.958 2.209"/><path fill="#F7B68B" d="M306.855 124.998s-26.495 2.547-33.15 3.219c-4.403.445-8.47 2.294-9.608 4.63.499 1.07.846 2.692 2.286 3.595 7.906 4.955 14.63 2.918 18.792 1.206 4.161-1.711 18.427-10.732 18.427-10.732l5.88.705c.275-.506-2.13-2.535-2.627-2.623"/><path fill="#EC9568" d="M391.641 143.376c-1.73 1.207-2.294 2.144-5.11 1.769-4.315-.573-17.815-8.268-24.212-13.12-10.137-7.683-24.014-29.398-24.555-29.389.966 1.858 18.36 34.963 33.91 40.666 14.62 5.363 17.786 3.644 19.967.074"/><path fill="#9C9B98" d="M200.194 184.32a2.004 2.004 0 01-2.447 1.428l-8.239-2.153a2.003 2.003 0 01-1.432-2.444l31.349-119.547a2.004 2.004 0 012.445-1.43l8.24 2.155a2.002 2.002 0 011.433 2.443L200.194 184.32"/><path fill="#797874" d="M196.862 185.119c-.225 0-.455-.028-.683-.089l-8.239-2.153.351-1.346 8.24 2.154a1.31 1.31 0 001.6-.933l31.346-119.547 1.347.352-31.349 119.55a2.704 2.704 0 01-2.613 2.012"/><path fill="#797874" d="M235.215 211.376H203.64v-2.416h31.349c.734 0 5.753-1.5 5.753-8.552 0-4.73-16.334-47.783-27.316-75.536l2.59-1.043c2.816 7.117 27.511 69.724 27.511 76.503 0 7.923-5.37 10.71-8.21 11.132l-.102-.088M194.77 211.376v-1.47c0-1.106-.39-.946-1.495-.946H143.67c-1.107 0-3.738-.16-3.738.946v1.47h54.836"/><path fill="#212A54" d="M97.017 183.52c2.833.517 13.258 3.67 21.486-4.892 8.229-8.562 0-17.94 18.287-24.87 18.286-6.932 23.772-17.124 10.057-32.618-13.713-15.493-2.285-15.9-3.2-28.947-.913-13.047-30.173-31.802-53.487-15.9-14.417 9.831-20.115 12.638-10.514 41.178 9.763 29.027-13.258 19.979-18.287 33.023-5.029 13.049 17.828 29.764 35.658 33.025"/><path fill="#EC9568" d="M126.81 185.375l12.706 18.716s9.531-14.275 8.262-19.35c-1.272-5.075-6.99-13.64-9.213-18.08"/><path fill="#645393" d="M130.136 149.232l10.016 18.38-14.294 22.84-7.306-17.13s-1.534-34.62 11.584-24.09"/><path fill="#816CBB" d="M127.564 148.054s-4.117-1.722-11.062-4.805c-2.858-1.268-7.715-1.631-7.715-1.631s-16.978 1.667-33.18 22.92c-16.2 21.254-35.524 46.033-35.524 46.033h54.959s36.38-20.911 32.522-62.517"/><path fill="#F7B68B" d="M139.516 204.091s3.814-33.624 5.084-37.43c1.272-3.808.953-12.055 5.4-2.857 4.448 9.2 4.448 30.77 4.765 37.114.319 6.346-13.66 6.346-15.249 3.173"/><path fill="#F7B68B" d="M109.973 182.204l-.794 14.75 31.926 3.49 18.744-3.015 6.989-.317 12.073 7.614s-.083.635-1.59.635c-.318 0 1.113.87 1.113.87s-1.51 2.222-8.896-.395c-.805-.286 2.7 2.061 2.7 2.061s0 .715-3.217.536c-1.072-.059-2.175-1.01-3.772-1.01-1.666 0-5.559-.081-7.784.237-2.223.317-3.894 1.298-7.385 1.666-4.527.475-7.545-1.033-7.545-1.033s-30.975 4.046-40.823 4.362c-9.846.319-14.294.635-13.66-4.123.636-4.757 1.59-30.77 1.59-30.77l20.331 4.442M147.778 160.104s-3.178-2.009-7.943-2.96c-4.764-.952-9.212 4.757-11.754 5.076-2.542.316-12.071 5.393-13.026 6.026-.953.635 0 1.586 3.814.318 3.812-1.27 9.212-2.538 9.212-2.538l-6.035 4.758-2.86 5.709s1.8.846 3.283-.952c1.355-1.643 2.117-3.17 2.117-3.17l5.72-3.49-3.178 6.344-3.813 6.344s2.966 1.798 5.4-3.806c1.363-3.135 5.72-5.393 5.72-5.393l-1.906 5.074-1.59 3.596s1.397 2.033 2.86-.422c2.33-3.912 4.128-6.769 4.128-6.769s6.356-3.065 8.579-7.188"/><path fill="#9AC7F7" d="M130.481 197.898l-2.86 13.323 1.553.332 2.86-13.322"/><path fill="#FD2227" d="M133.012 198.278l-1.589 12.054 1.574.207 1.589-12.055"/><path fill="#EC9568" d="M168.2 199.697s5.594 2.827 8.616 4.174l2.095.855s-.083.635-1.59.635l-7.32-4.186-6.688-.32 4.887-1.158M172.239 207.948s-.002.147-.044.147h-.053l-1.392-1.143c.73.514 1.489.996 1.489.996M162.928 204.129h5.786s4.227 2.238 7.538 3.177c-1.345.122-3.459-.204-6.714-1.359-.058-.02-.09-.079-.105-.073l-1.602-1.091-4.903-.654M106.815 192.891s-6.173.343-10.288 3.255c-4.114 2.91-6 7.19-8.058 7.876l-.04.003c.348-5.389.716-13.788.954-19.631 5.67-1.193 14.192 7.881 17.432 8.497"/><path fill="#645393" d="M108.53 153.341s2.872 31.4 3.19 38.062c.318 6.66-28.59-1.27-28.59-1.27s2.382-18.398 5.558-28.867c3.178-10.467 7.135-18.71 19.842-7.925"/><path fill="#F7B68B" d="M106.322 141.89c4.744-2.449 2.36-14.19.923-19.934-1.632-6.524 15.924 5.3 15.924 5.3s-5.308 5.3-4.083 11.824c.617 3.288 2.304 6.042 6.163 7.584-1.48 8.537-2.12 14.787-5.574 15.18-4.45.508-9.358-7.35-13.353-19.953"/><path fill="#EC9568" d="M119.831 141.037a48.193 48.193 0 01-10.724-7.765c-.171-3.99-1.137-8.418-1.862-11.316-1.632-6.524 15.924 5.3 15.924 5.3s-5.308 5.3-4.083 11.824c.128.69.389 1.337.745 1.957"/><path fill="#F7B68B" d="M124.394 78.739s32.858 54.18-4.491 50.148c-15.107-1.631-16.332-8.155-17.966-12.64-1.634-4.484-6.942 2.855-8.167-6.115-1.225-8.97 1.634-8.562 5.717-4.485 4.084 4.077 5.716 2.039 6.126-4.485.407-6.523-5.718-8.153 6.53-8.153 12.25 0 16.742-4.485 12.25-14.27M342.02 77.52c.223 1.295-1.031 8.838 3.977 11.003 1.456.244 2.803.4 4.048.477.78-.085 2.804-.21 3.733-.477 12.19-3.503 5.391-15.439 4.813-15.893-4.42-3.467-6.607-19.63-6.607-19.63s-19.677 2.426-12.349 10.08c3.702 3.865 2.161 13.144 2.384 14.44z"/><path fill="#4D4D4D" d="M365.592 41.605c5.084-5.371-5.123-4.621-6.6-13.927-1.477-9.305-9.076-32.764-13.39-18.341-4.314 14.423 3.18 19.09 2.365 12.414-.818-6.675 1.676-24.94-17.125-21.268-18.799 3.67-23.796 16.653-7.28 20.547 16.52 3.895-20.818-14.206-18.454-1.792 2.364 12.415 13.325 9.54 17.13 8.902 3.806-.638-16.448-7.461-12.672 5.457 3.777 12.92 15.784 17.2 30.91 19.403 0 0 20.03-6.026 25.116-11.395z"/><path fill="#EC9568" d="M356.03 53s-3.826 5.215 3.97 22.615c.01.019-10.357 6.007-18.266-1.065-.038-2.853-.906-5.979-3.868-9.025C328.745 56.148 356.03 53 356.03 53"/><path fill="#F7B68B" d="M323.51 26.978s-2.086 10.009 2.178 24.786c4.263 14.776 12.29 17.81 24.33 13.336 12.036-4.475 11.067-19.693 10.127-23.312-.94-3.621 11.157-2.954 6.971-10.872-4.186-7.92-8.635-3.734-8.596-.305.04 3.429-1.307 8.083-4.428 5.9-3.124-2.183-.383-16.233-5.942-13.042-5.56 3.19-15.4 7.941-24.64 3.51"/><path fill="#00046D" d="M168.378 43l.002-.004c.056-.098 1.194-2.099 3.47-5.075l-1.259-.934c-2.4 3.142-3.576 5.235-3.591 5.261l1.378.752zm7.438-9.83a76.264 76.264 0 014.349-4.414l-1.085-1.126a78.196 78.196 0 00-4.436 4.503l1.172 1.036zm9.046-8.46a73.263 73.263 0 015.02-3.642l-.877-1.29a74.598 74.598 0 00-5.13 3.721l.987 1.211zm10.339-6.84c1.769-.96 3.63-1.87 5.583-2.713l-.631-1.423a70.751 70.751 0 00-5.712 2.776l.76 1.36zm11.393-4.91a68.472 68.472 0 015.988-1.66l-.355-1.513a69.812 69.812 0 00-6.128 1.698l.495 1.474zm12.106-2.775a72.535 72.535 0 016.196-.576l-.08-1.551a74.062 74.062 0 00-6.331.589l.215 1.538zm12.428-.633c2.02.063 4.094.205 6.22.433l.17-1.544a83.742 83.742 0 00-6.34-.441l-.05 1.552zm12.397 1.318c1.992.356 4.028.787 6.107 1.297l.38-1.506a98.624 98.624 0 00-6.205-1.32l-.282 1.529zm12.125 2.967a117.48 117.48 0 015.916 2.002l.552-1.455a119.572 119.572 0 00-5.997-2.03l-.47 1.483zm11.727 4.302c.98.416 1.97.848 2.967 1.298l.656-1.412c-1.01-.455-2.01-.892-3.002-1.313l-.621 1.427z"/><path fill="#FF8900" d="M302 38.5c0 7.456-5.946 13.5-13.28 13.5h-39.44C241.946 52 236 45.956 236 38.5S241.946 25 249.28 25h39.44c7.334 0 13.28 6.044 13.28 13.5"/><path fill="#FF8900" d="M286 63V46h-17l17 17"/><path fill="#FFF" d="M253 40h32v-2h-32z"/><path fill="#FF5100" d="M138 62.5c0 7.456 5.946 13.5 13.28 13.5h39.44c7.334 0 13.28-6.044 13.28-13.5S198.054 49 190.72 49h-39.44C143.946 49 138 55.044 138 62.5"/><path fill="#FF5100" d="M153 86V69h17l-17 17"/><path fill="#FFF" d="M155 64h32v-2h-32z"/></g></svg>