<svg xmlns="http://www.w3.org/2000/svg" xmlns:xlink="http://www.w3.org/1999/xlink" viewBox="0 0 416 340"><defs><path id="a" d="M412.9 91.5c10.6 50.1-7.3 105.9-34.9 149.6-28.1 44.1-65.9 76.1-108.3 90.1-42.8 14.2-85.2 9.6-127.8-2.7-42-12.8-84.4-33.4-113.3-62.5-60-55-24.8-146.8 99.9-220.4 123.9-73.5 266.7-58.2 284.4 45.9"/></defs><clipPath id="b"><use xlink:href="#a" overflow="visible"/></clipPath><g clip-path="url(#b)"><defs><path id="c" d="M-800-1063H440v3340H-800z"/></defs><clipPath id="d"><use xlink:href="#c" overflow="visible"/></clipPath><path clip-path="url(#d)" fill="#f6f4ef" d="M-5-5h426v350H-5z"/></g><defs><path id="e" d="M45.3 233c-2 0-5.2-.5-8-3-4-3.6-5.8-10-5.2-18.9.4-6.1 2.7-12.2 5.2-18.7 4.2-10.9 8.9-23.3 6.4-39.7l4.6-.7c2.6 17.6-2.5 31.2-6.7 42.1-2.4 6.4-4.5 12-4.9 17.3-.5 7.3.8 12.5 3.6 15 2.7 2.4 6 1.8 6.1 1.8l.9 4.6c-.1 0-.8.2-2 .2"/></defs><clipPath id="f"><use xlink:href="#e" overflow="visible"/></clipPath><g clip-path="url(#f)"><defs><path id="g" d="M-800-1063H440v3340H-800z"/></defs><clipPath id="h"><use xlink:href="#g" overflow="visible"/></clipPath><path clip-path="url(#h)" fill="#373737" d="M27 147h27v91H27z"/></g><defs><path id="i" d="M82.4 271l4.6 7.2L48.3 291s-2.6-2.5 6.9-7.7c11.1-5.9 27.2-12.3 27.2-12.3"/></defs><clipPath id="j"><use xlink:href="#i" overflow="visible"/></clipPath><g clip-path="url(#j)"><defs><path id="k" d="M-800-1063H440v3340H-800z"/></defs><clipPath id="l"><use xlink:href="#k" overflow="visible"/></clipPath><path clip-path="url(#l)" fill="#d8d8d8" d="M43 266h49v30H43z"/></g><defs><path id="m" d="M89.6 271l-4.6 7.2 38.7 12.8s2.6-2.5-6.9-7.7c-11.1-5.9-27.2-12.3-27.2-12.3"/></defs><clipPath id="n"><use xlink:href="#m" overflow="visible"/></clipPath><g clip-path="url(#n)"><defs><path id="o" d="M-800-1063H440v3340H-800z"/></defs><clipPath id="p"><use xlink:href="#o" overflow="visible"/></clipPath><path clip-path="url(#p)" fill="#d8d8d8" d="M80 266h49v30H80z"/></g><defs><path id="q" d="M82 250h8v29h-8z"/></defs><clipPath id="r"><use xlink:href="#q" overflow="visible"/></clipPath><g clip-path="url(#r)"><defs><path id="s" d="M-800-1063H440v3340H-800z"/></defs><clipPath id="t"><use xlink:href="#s" overflow="visible"/></clipPath><path clip-path="url(#t)" fill="#d8d8d8" d="M77 245h18v39H77z"/></g><defs><path id="u" d="M82.1 271l3.9 6.9L53.3 290s-2.2-2.4 5.8-7.3c9.4-5.6 23-11.7 23-11.7"/></defs><clipPath id="v"><use xlink:href="#u" overflow="visible"/></clipPath><g clip-path="url(#v)"><defs><path id="w" d="M-800-1063H440v3340H-800z"/></defs><clipPath id="x"><use xlink:href="#w" overflow="visible"/></clipPath><path clip-path="url(#x)" fill="#afafaf" d="M48 266h43v29H48z"/></g><defs><path id="y" d="M89.9 271l-3.9 6.9 32.7 12.1s2.2-2.4-5.8-7.3c-9.4-5.6-23-11.7-23-11.7"/></defs><clipPath id="z"><use xlink:href="#y" overflow="visible"/></clipPath><g clip-path="url(#z)"><defs><path id="A" d="M-800-1063H440v3340H-800z"/></defs><clipPath id="B"><use xlink:href="#A" overflow="visible"/></clipPath><path clip-path="url(#B)" fill="#afafaf" d="M81 266h43v29H81z"/></g><defs><path id="C" d="M56 293c0 1.7-1.3 3-3 3s-3-1.3-3-3 1.3-3 3-3 3 1.3 3 3"/></defs><clipPath id="D"><use xlink:href="#C" overflow="visible"/></clipPath><g clip-path="url(#D)"><defs><path id="E" d="M-800-1063H440v3340H-800z"/></defs><clipPath id="F"><use xlink:href="#E" overflow="visible"/></clipPath><path clip-path="url(#F)" fill="#717171" d="M45 285h16v16H45z"/></g><defs><path id="G" d="M121 293c0 1.7-1.3 3-3 3s-3-1.3-3-3 1.3-3 3-3 3 1.3 3 3"/></defs><clipPath id="H"><use xlink:href="#G" overflow="visible"/></clipPath><g clip-path="url(#H)"><defs><path id="I" d="M-800-1063H440v3340H-800z"/></defs><clipPath id="J"><use xlink:href="#I" overflow="visible"/></clipPath><path clip-path="url(#J)" fill="#717171" d="M110 285h16v16h-16z"/></g><defs><path id="K" d="M50 293c0 1.7-1.3 3-3 3s-3-1.3-3-3 1.3-3 3-3 3 1.3 3 3"/></defs><clipPath id="L"><use xlink:href="#K" overflow="visible"/></clipPath><g clip-path="url(#L)"><defs><path id="M" d="M-800-1063H440v3340H-800z"/></defs><clipPath id="N"><use xlink:href="#M" overflow="visible"/></clipPath><path clip-path="url(#N)" fill="#373737" d="M39 285h16v16H39z"/></g><defs><path id="O" d="M128 293c0 1.7-1.3 3-3 3s-3-1.3-3-3 1.3-3 3-3 3 1.3 3 3"/></defs><clipPath id="P"><use xlink:href="#O" overflow="visible"/></clipPath><g clip-path="url(#P)"><defs><path id="Q" d="M-800-1063H440v3340H-800z"/></defs><clipPath id="R"><use xlink:href="#Q" overflow="visible"/></clipPath><path clip-path="url(#R)" fill="#373737" d="M117 285h16v16h-16z"/></g><defs><path id="S" d="M83 239h6v10h-6z"/></defs><clipPath id="T"><use xlink:href="#S" overflow="visible"/></clipPath><g clip-path="url(#T)"><defs><path id="U" d="M-800-1063H440v3340H-800z"/></defs><clipPath id="V"><use xlink:href="#U" overflow="visible"/></clipPath><path clip-path="url(#V)" fill="#373737" d="M78 234h16v20H78z"/></g><defs><path id="W" d="M93 233c0 3.3-2.6 6-5.9 6h-3.3c-3.2 0-5.8-2.7-5.8-6s2.6-6 5.8-6h3.3c3.3 0 5.9 2.7 5.9 6"/></defs><clipPath id="X"><use xlink:href="#W" overflow="visible"/></clipPath><g clip-path="url(#X)"><defs><path id="Y" d="M-800-1063H440v3340H-800z"/></defs><clipPath id="Z"><use xlink:href="#Y" overflow="visible"/></clipPath><path clip-path="url(#Z)" fill="#373737" d="M73 222h25v22H73z"/></g><defs><path id="aa" d="M129.8 228c.1-.7.2-4.9.2-5.6 0-4.6-3-8.4-6.7-8.4H48.7c-3.7 0-6.7 3.7-6.7 8.4 0 .7.1 5 .2 5.6h87.6"/></defs><clipPath id="ab"><use xlink:href="#aa" overflow="visible"/></clipPath><g clip-path="url(#ab)"><defs><path id="ac" d="M-800-1063H440v3340H-800z"/></defs><clipPath id="ad"><use xlink:href="#ac" overflow="visible"/></clipPath><path clip-path="url(#ad)" fill="#717171" d="M37 209h98v24H37z"/></g><defs><path id="ae" d="M41 231c0 1.7.8 3 1.9 3h86.3c1 0 1.9-1.3 1.9-3s-.8-3-1.9-3H42.9c-1.1 0-1.9 1.3-1.9 3"/></defs><clipPath id="af"><use xlink:href="#ae" overflow="visible"/></clipPath><g clip-path="url(#af)"><defs><path id="ag" d="M-800-1063H440v3340H-800z"/></defs><clipPath id="ah"><use xlink:href="#ag" overflow="visible"/></clipPath><path clip-path="url(#ah)" fill="#373737" d="M36 223h100v16H36z"/></g><defs><path id="ai" d="M45.4 184.6c1.9.1 13.7.3 15.8.4 13 .2 24.2-2.2 24.8-5.4 2.6-13 2.7-26.3.3-39.3-.6-3.1-11.9-5.5-25.2-5.3-2.1 0-14.2.2-16.1.4 4.1 16.2 4.2 33 .4 49.2"/></defs><clipPath id="aj"><use xlink:href="#ai" overflow="visible"/></clipPath><g clip-path="url(#aj)"><defs><path id="ak" d="M-800-1063H440v3340H-800z"/></defs><clipPath id="al"><use xlink:href="#ak" overflow="visible"/></clipPath><path clip-path="url(#al)" fill="#717171" d="M40 130h53v60H40z"/></g><defs><path id="am" d="M43.3 135c-1.4 0-2.4.7-2.2 1.5 3.6 15.5 3.7 31.5.4 46.9-.2.8.8 1.5 2.2 1.5 1.4 0 2.7-.6 2.9-1.5 3.4-15.5 3.3-31.6-.3-47.1-.3-.7-1.6-1.3-3-1.3"/></defs><clipPath id="an"><use xlink:href="#am" overflow="visible"/></clipPath><g clip-path="url(#an)"><defs><path id="ao" d="M-800-1063H440v3340H-800z"/></defs><clipPath id="ap"><use xlink:href="#ao" overflow="visible"/></clipPath><path clip-path="url(#ap)" fill="#4f4f4f" d="M36 130h18v60H36z"/></g><defs><path id="aq" d="M42.4 184.8c.4.1 3 .2 3.5.2 2.9 0 5.8-2.4 6.4-5.5 2.4-12.9 2.3-26.1-.2-39-.6-3.1-3.6-5.5-6.6-5.5-.5 0-3.1.1-3.5.2 4.1 16.3 4.3 33.3.4 49.6"/></defs><clipPath id="ar"><use xlink:href="#aq" overflow="visible"/></clipPath><g clip-path="url(#ar)"><defs><path id="as" d="M-800-1063H440v3340H-800z"/></defs><clipPath id="at"><use xlink:href="#as" overflow="visible"/></clipPath><path clip-path="url(#at)" fill="#606060" d="M37 130h22v60H37z"/></g><defs><path id="au" d="M121 146.9s.1 3.1 15.9 3.1 39.1-3.7 39.1-3.7l-36.5-3.3s-14-.6-18.5 3.9"/></defs><clipPath id="av"><use xlink:href="#au" overflow="visible"/></clipPath><g clip-path="url(#av)"><defs><path id="aw" d="M-800-1063H440v3340H-800z"/></defs><clipPath id="ax"><use xlink:href="#aw" overflow="visible"/></clipPath><path clip-path="url(#ax)" fill="#9c7255" d="M116 138h65v17h-65z"/></g><defs><path id="ay" d="M163.6 148.2c7.7.2 10.9 4 13.9 5.2 3 1.2 6 3.1 6 3-1.6-3.2-4.1-3.4-5.3-4.4-1.2-1.1-.9-.5 1.8-.6 1.6-.1 4.2 2.6 6.2 4.2 1.7 1.3 2.7 1.4 2.7 1.4s-1.9-2.7-4.4-4.9c-3-2.7-6.7-4.9-7.6-5.3-1.6-.7-6.8-1-10.5-.6-4 .3-8.3 1.8-2.8 2"/></defs><clipPath id="az"><use xlink:href="#ay" overflow="visible"/></clipPath><g clip-path="url(#az)"><defs><path id="aA" d="M-800-1063H440v3340H-800z"/></defs><clipPath id="aB"><use xlink:href="#aA" overflow="visible"/></clipPath><path clip-path="url(#aB)" fill="#e2c59c" d="M156 141h38v21h-38z"/></g><defs><path id="aC" d="M176 147s5.6 1.6 6.6 2.4c.7.5 3.4 3.6 3.4 3.6s-2.1-.4-3.3-1.6c-1.2-1.1-6.7-4.4-6.7-4.4"/></defs><clipPath id="aD"><use xlink:href="#aC" overflow="visible"/></clipPath><g clip-path="url(#aD)"><defs><path id="aE" d="M-800-1063H440v3340H-800z"/></defs><clipPath id="aF"><use xlink:href="#aE" overflow="visible"/></clipPath><path clip-path="url(#aF)" fill="#e2c59c" d="M171 142h20v16h-20z"/></g><defs><path id="aG" d="M127.8 141s-14.5.4-13.8 9.3c.4 5 3.6 6.9 8 6.7 8.1-.4 17.4-1.3 17.4-1.3l4.6-13.6-16.2-1.1"/></defs><clipPath id="aH"><use xlink:href="#aG" overflow="visible"/></clipPath><g clip-path="url(#aH)"><defs><path id="aI" d="M-800-1063H440v3340H-800z"/></defs><clipPath id="aJ"><use xlink:href="#aI" overflow="visible"/></clipPath><path clip-path="url(#aJ)" fill="#dd982c" d="M109 136h40v26h-40z"/></g><defs><path id="aK" d="M123.8 142.4l-12.4-45.7s-1.8-6.7-5.2-5.6c-4.9 1.6-2.7 7.1-2.4 10.3.7 6.6 0 9.4 3.9 25.3 2.4 9.8 4.5 21.1 6.7 27.6 1.5 4.5 4.6-1.7 8.9-3.4 8.1-2.8.5-8.5.5-8.5"/></defs><clipPath id="aL"><use xlink:href="#aK" overflow="visible"/></clipPath><g clip-path="url(#aL)"><defs><path id="aM" d="M-800-1063H440v3340H-800z"/></defs><clipPath id="aN"><use xlink:href="#aM" overflow="visible"/></clipPath><path clip-path="url(#aN)" fill="#dd982c" d="M98 86h34v75H98z"/></g><defs><path id="aO" d="M99.6 82c-2.2 9.7-12.1 15.7-22 13.5-10-2.2-16.3-11.9-14.1-21.6 2.2-9.7 12-15.7 22-13.5 9.9 2.3 16.3 11.9 14.1 21.6"/></defs><clipPath id="aP"><use xlink:href="#aO" overflow="visible"/></clipPath><g clip-path="url(#aP)"><defs><path id="aQ" d="M-800-1063H440v3340H-800z"/></defs><clipPath id="aR"><use xlink:href="#aQ" overflow="visible"/></clipPath><path clip-path="url(#aR)" fill="#4d4d4d" d="M58 55h47v46H58z"/></g><defs><path id="aS" d="M117.1 72.2c-1.7 7.5-9 12.2-16.4 10.5l-1.9-7.2c-7.4-1.7-12.1-9.1-10.4-16.6l1.1-5.1c1.7-7.5 9-12.2 16.4-10.5l3.4.8c7.4 1.7 12.1 9.1 10.4 16.6l-2.6 11.5"/></defs><clipPath id="aT"><use xlink:href="#aS" overflow="visible"/></clipPath><g clip-path="url(#aT)"><defs><path id="aU" d="M-800-1063H440v3340H-800z"/></defs><clipPath id="aV"><use xlink:href="#aU" overflow="visible"/></clipPath><path clip-path="url(#aV)" fill="#4d4d4d" d="M83 38h42v50H83z"/></g><defs><path id="aW" d="M115.7 51c-.3 1.2-.7 2.5-1.2 3.7-3.4 8.4-10.2 13.8-16.2 13.3-1.1 3.9-2.7 7.3-4.3 10.1-1.9 3.2-6.8 5.9-6.8 5.9-2.4 5.9 21.4 25.5 22.4 24.9 2.2-1.1-1.7-15.2-5.6-19.5-1.8-2-3.7-4.5-3.7-5.8-.1-4.8 1.4-5.9 3.8-8.1 4.1-3.1 8.9-2 8.9-2 .5.1.9 0 1.3-.2.5-.8.8-1.7 1.1-2.7l2.5-11.2c.6-3.1-.3-6.1-2.2-8.4"/></defs><clipPath id="aX"><use xlink:href="#aW" overflow="visible"/></clipPath><g clip-path="url(#aX)"><defs><path id="aY" d="M-800-1063H440v3340H-800z"/></defs><clipPath id="aZ"><use xlink:href="#aY" overflow="visible"/></clipPath><path clip-path="url(#aZ)" fill="#b88868" d="M82 46h41v68H82z"/></g><defs><path id="ba" d="M92 176.9s6 5.5 7.7 6c2.2.7 8.6-2.1 8.6-2.1s-1.7-28.4-1.1-39.6c.7-11.3 3.3-14.5 3-18-.5-5.6 4-8.4 2.7-12.6-1.3-4.2-4.6-19.5-4.9-17.3-1.9 18-8.8 4.1-10.1 1.9-.9-1.3-5.9 81.7-5.9 81.7"/></defs><clipPath id="bb"><use xlink:href="#ba" overflow="visible"/></clipPath><g clip-path="url(#bb)"><defs><path id="bc" d="M-800-1063H440v3340H-800z"/></defs><clipPath id="bd"><use xlink:href="#bc" overflow="visible"/></clipPath><path clip-path="url(#bd)" fill="#4d7986" d="M87 88h31v100H87z"/></g><defs><path id="be" d="M104.4 87.4s8 5.9 7.9 8.6c-.1 2.7 4.1 10.7 2.4 22.7-2 13.7-2.7 22.9-2.3 31.7.4 8.8 4.4 16.3 4.6 27.1.1 8.4-1.8 9.2-1.8 9.2s-3.7 1.4-6.8-1.5c-3.1-2.9-2.6-31.8-2.1-39 .5-7.3 2.7-24.4 3.3-29.4.7-6.2-.3-12.3-.7-14-1.1-6.1-2.4-9.9-3.3-12.2-.2-.4-2.2-2.1-2.4-2.4-.6-1.3.6-1.5 1.2-.8"/></defs><clipPath id="bf"><use xlink:href="#be" overflow="visible"/></clipPath><g clip-path="url(#bf)"><defs><path id="bg" d="M-800-1063H440v3340H-800z"/></defs><clipPath id="bh"><use xlink:href="#bg" overflow="visible"/></clipPath><path clip-path="url(#bh)" fill="#f6aa32" d="M98 82h24v110H98z"/></g><defs><path id="bi" d="M94.5 107.2c-2.3 10.2-12.7 16.6-23.2 14.3-10.5-2.3-17.2-12.5-14.9-22.8 2.3-10.2 12.7-16.6 23.2-14.3 10.6 2.4 17.2 12.6 14.9 22.8"/></defs><clipPath id="bj"><use xlink:href="#bi" overflow="visible"/></clipPath><g clip-path="url(#bj)"><defs><path id="bk" d="M-800-1063H440v3340H-800z"/></defs><clipPath id="bl"><use xlink:href="#bk" overflow="visible"/></clipPath><path clip-path="url(#bl)" fill="#4d4d4d" d="M51 79h49v48H51z"/></g><g><defs><path id="bm" d="M134.6 274l-3.6 27.9 15.4 7.3 8.6 1.8-15.2-11.6 5-25.2-10.2-.2"/></defs><clipPath id="bn"><use xlink:href="#bm" overflow="visible"/></clipPath><g clip-path="url(#bn)"><defs><path id="bo" d="M-800-1063H440v3340H-800z"/></defs><clipPath id="bp"><use xlink:href="#bo" overflow="visible"/></clipPath><path clip-path="url(#bp)" fill="#b88868" d="M126 269h34v47h-34z"/></g></g><g><defs><path id="bq" d="M130 305.6l3.4.9 2.3-2 12.4 6 11 2.5s.1-.9-.2-1.3c-1.4-1.7-9.1-5.6-9.1-5.6s-.1 2.6-1.2 2.6c-1.1.1-10.6-4.7-12.8-6.1-3.8-2.3-4.5-3.7-4.8-3.6-.8.5-1 6.6-1 6.6"/></defs><clipPath id="br"><use xlink:href="#bq" overflow="visible"/></clipPath><g clip-path="url(#br)"><defs><path id="bs" d="M-800-1063H440v3340H-800z"/></defs><clipPath id="bt"><use xlink:href="#bs" overflow="visible"/></clipPath><path clip-path="url(#bt)" fill="#161711" d="M125 294h39v24h-39z"/></g></g><g><defs><path id="bu" d="M172 234.9l12.7 24.1 17.6-.9 8.7-2.4-19.4-3.1L181 232l-9 2.9"/></defs><clipPath id="bv"><use xlink:href="#bu" overflow="visible"/></clipPath><g clip-path="url(#bv)"><defs><path id="bw" d="M-800-1063H440v3340H-800z"/></defs><clipPath id="bx"><use xlink:href="#bw" overflow="visible"/></clipPath><path clip-path="url(#bx)" fill="#b88868" d="M167 227h49v37h-49z"/></g></g><g><defs><path id="by" d="M185.3 263l3.5-.8 1.1-3 15.7-.2 9.4-2.2s-1.1-1.2-1.8-1.5c-2.1-.9-9.5-1.3-9.5-1.3s.8 2.1-.2 2.7c-1 .6-11.8.9-14.4.8-4.5-.3-5.9-1.3-6-1-.5.7 2.2 6.5 2.2 6.5"/></defs><clipPath id="bz"><use xlink:href="#by" overflow="visible"/></clipPath><g clip-path="url(#bz)"><defs><path id="bA" d="M-800-1063H440v3340H-800z"/></defs><clipPath id="bB"><use xlink:href="#bA" overflow="visible"/></clipPath><path clip-path="url(#bB)" fill="#161711" d="M178 249h42v19h-42z"/></g></g><g><defs><path id="bC" d="M80.8 164l9.3 4 4 12 59.5-9.8s6.1-1.9 9.9 7.7c5.5 13.6 19.5 55.8 19.5 55.8l-8.8 9.2-27.7-47.7s-56.9 26.6-75.6 20.9c-7.2-2.2-12.7-14.9-11.7-27.7.8-10 2.8-19.2 2.8-19.2l18.8-5.2"/></defs><clipPath id="bD"><use xlink:href="#bC" overflow="visible"/></clipPath><g clip-path="url(#bD)"><defs><path id="bE" d="M-800-1063H440v3340H-800z"/></defs><clipPath id="bF"><use xlink:href="#bE" overflow="visible"/></clipPath><path clip-path="url(#bF)" fill="#194866" d="M54 159h134v89H54z"/></g></g><g><defs><path id="bG" d="M89 215.8l45.6-3.3-3.9 71.1 13.4.4 9.9-83.3s-2.7-12.4-11.4-10.5c-8.7 1.9-29.7 18.2-53.6 25.6"/></defs><clipPath id="bH"><use xlink:href="#bG" overflow="visible"/></clipPath><g clip-path="url(#bH)"><defs><path id="bI" d="M-800-1063H440v3340H-800z"/></defs><clipPath id="bJ"><use xlink:href="#bI" overflow="visible"/></clipPath><path clip-path="url(#bJ)" fill="#163f59" d="M84 185h75v104H84z"/></g></g><g><defs><path id="bK" d="M69.6 232s20.8-28.9 25.2-44.3c5.3-18.4 1.9-40.4 2.3-47.8.9-13.7.7-40.1.8-43.4.2-3.3-2.3-6.7-2.3-6.7S93 81.4 88.4 82c-4.1.5-10.4 6.2-14.4 8.8-3.9 2.6-3.4 50.8-3.6 53.3-.7 8.8-6.3 17.3-9.9 25.8-8.5 20.3-8.5 42.9-8.5 42.9S55.4 229 69.6 232"/></defs><clipPath id="bL"><use xlink:href="#bK" overflow="visible"/></clipPath><g clip-path="url(#bL)"><defs><path id="bM" d="M-800-1063H440v3340H-800z"/></defs><clipPath id="bN"><use xlink:href="#bM" overflow="visible"/></clipPath><path clip-path="url(#bN)" fill="#f6aa32" d="M47 77h56v160H47z"/></g></g><g><defs><path id="bO" d="M84 154.9s.5 3.5 19.2 1.4c18.8-2 45.8-9.3 45.8-9.3l-43.6 1.1s-16.7 1.1-21.4 6.8"/></defs><clipPath id="bP"><use xlink:href="#bO" overflow="visible"/></clipPath><g clip-path="url(#bP)"><defs><path id="bQ" d="M-800-1063H440v3340H-800z"/></defs><clipPath id="bR"><use xlink:href="#bQ" overflow="visible"/></clipPath><path clip-path="url(#bR)" fill="#b88868" d="M79 142h75v20H79z"/></g></g><g><defs><path id="bS" d="M134.2 150.5c9.1-.7 13.3 3 17 4 3.7 1 7.5 2.6 7.4 2.6-2.3-3.3-5.2-3.1-6.8-4.1-1.6-1-1.1-.5 2.1-.9 1.8-.3 5.3 2.3 7.7 3.8 2.1 1.2 3.4 1.2 3.4 1.2s-2.6-2.7-5.7-4.8c-3.8-2.5-8.5-4.5-9.6-4.8-2-.5-8.1-.2-12.4.6-4.8.8-9.7 2.9-3.1 2.4"/></defs><clipPath id="bT"><use xlink:href="#bS" overflow="visible"/></clipPath><g clip-path="url(#bT)"><defs><path id="bU" d="M-800-1063H440v3340H-800z"/></defs><clipPath id="bV"><use xlink:href="#bU" overflow="visible"/></clipPath><path clip-path="url(#bV)" fill="#b88868" d="M126 142h44v20h-44z"/></g></g><g><defs><path id="bW" d="M150 146s7 1.2 8.3 2c.9.6 4.7 4 4.7 4s-2.6-.2-4.2-1.5-8.8-4.5-8.8-4.5"/></defs><clipPath id="bX"><use xlink:href="#bW" overflow="visible"/></clipPath><g clip-path="url(#bX)"><defs><path id="bY" d="M-800-1063H440v3340H-800z"/></defs><clipPath id="bZ"><use xlink:href="#bY" overflow="visible"/></clipPath><path clip-path="url(#bZ)" fill="#e9d6b8" d="M145 141h23v16h-23z"/></g></g><g><defs><path id="ca" d="M96.9 155.6L73 147s1.7 13.9 2.2 19.2c.6 5.3-.8 13 3.6 13.6 4.4.6 6.6-.3 2.5 2.8-4.2 3.1-2.8 5.6-.8 7.5 1.9 1.9-4.4 23.6-4.4 23.6s.6.3 2.5 1.4c5.9-9.4 13.2-20 15.5-28 2.9-10.6 3.1-22.1 2.8-31.5"/></defs><clipPath id="cb"><use xlink:href="#ca" overflow="visible"/></clipPath><g clip-path="url(#cb)"><defs><path id="cc" d="M-800-1063H440v3340H-800z"/></defs><clipPath id="cd"><use xlink:href="#cc" overflow="visible"/></clipPath><path clip-path="url(#cd)" fill="#dd982c" d="M68 142h34v78H68z"/></g></g><g><defs><path id="ce" d="M91.5 147.1l-2.1-44.8s-2.4-9.4-5.9-11.5c-4.1-2.6-9.9 2.2-9.9 2.2s-2.9 7-1 40c1.4 22 3.4 33.5 13.8 31.8 9.7-1.5 20.7-3.7 20.7-3.7L111 146l-19.5 1.1"/></defs><clipPath id="cf"><use xlink:href="#ce" overflow="visible"/></clipPath><g clip-path="url(#cf)"><defs><path id="cg" d="M-800-1063H440v3340H-800z"/></defs><clipPath id="ch"><use xlink:href="#cg" overflow="visible"/></clipPath><path clip-path="url(#ch)" fill="#f6aa32" d="M67 85h49v85H67z"/></g></g><g><defs><path id="ci" d="M129 158.3V156h91V158.3l-.2.4c-1.2 1.9-3.3 2.3-5.7 2.3h-79.2c-2.4 0-4.5-.4-5.7-2.3l-.2-.4"/></defs><clipPath id="cj"><use xlink:href="#ci" overflow="visible"/></clipPath><g clip-path="url(#cj)"><defs><path id="ck" d="M-800-1063H440v3340H-800z"/></defs><clipPath id="cl"><use xlink:href="#ck" overflow="visible"/></clipPath><path clip-path="url(#cl)" fill="#9c9b98" d="M124 151h101v15H124z"/></g></g><g><defs><path id="cm" d="M150 158.6s0 .1 0 0l-.2.4c-.4.4-.8.8-1.3 1h-13.8c-2.3 0-4.3-.3-5.4-1.7l-.3-.3v-1.1h21v1.7"/></defs><clipPath id="cn"><use xlink:href="#cm" overflow="visible"/></clipPath><g clip-path="url(#cn)"><defs><path id="co" d="M-800-1063H440v3340H-800z"/></defs><clipPath id="cp"><use xlink:href="#co" overflow="visible"/></clipPath><path clip-path="url(#cp)" fill="#868582" d="M124 152h31v13h-31z"/></g></g><g><defs><path id="cq" d="M163 156h46v2h-46z"/></defs><clipPath id="cr"><use xlink:href="#cq" overflow="visible"/></clipPath><g clip-path="url(#cr)"><defs><path id="cs" d="M-800-1063H440v3340H-800z"/></defs><clipPath id="ct"><use xlink:href="#cs" overflow="visible"/></clipPath><path clip-path="url(#ct)" fill="#868582" d="M158 151h56v12h-56z"/></g></g><g><defs><path id="cu" d="M151 156l11.8-44.9c.3-1.2 1.5-2.1 2.7-2.1h63.9c1.2 0 1.9 1 1.6 2.1L219.1 156H151"/></defs><clipPath id="cv"><use xlink:href="#cu" overflow="visible"/></clipPath><g clip-path="url(#cv)"><defs><path id="cw" d="M-800-1063H440v3340H-800z"/></defs><clipPath id="cx"><use xlink:href="#cw" overflow="visible"/></clipPath><path clip-path="url(#cx)" fill="#9c9b98" d="M146 104h90v57h-90z"/></g></g><g><defs><path id="cy" d="M291.6 315h9.4l-15.4-150H272l19.6 150"/></defs><clipPath id="cz"><use xlink:href="#cy" overflow="visible"/></clipPath><g clip-path="url(#cz)"><defs><path id="cA" d="M-800-1063H440v3340H-800z"/></defs><clipPath id="cB"><use xlink:href="#cA" overflow="visible"/></clipPath><path clip-path="url(#cB)" fill="#fff" d="M267 160h39v160h-39z"/></g></g><g><defs><path id="cC" d="M273 171.9l5.9 45.1 7.1-48.6-.3-3.4h-11.9l-.8 6.9"/></defs><clipPath id="cD"><use xlink:href="#cC" overflow="visible"/></clipPath><g clip-path="url(#cD)"><defs><path id="cE" d="M-800-1063H440v3340H-800z"/></defs><clipPath id="cF"><use xlink:href="#cE" overflow="visible"/></clipPath><path clip-path="url(#cF)" fill="#e0ded8" d="M268 160h23v62h-23z"/></g></g><g><defs><path id="cG" d="M205.6 315h9.4l-15.4-150H186l19.6 150"/></defs><clipPath id="cH"><use xlink:href="#cG" overflow="visible"/></clipPath><g clip-path="url(#cH)"><defs><path id="cI" d="M-800-1063H440v3340H-800z"/></defs><clipPath id="cJ"><use xlink:href="#cI" overflow="visible"/></clipPath><path clip-path="url(#cJ)" fill="#fff" d="M181 160h39v160h-39z"/></g></g><g><defs><path id="cK" d="M187 171.9l5.9 45.1 7.1-48.6-.3-3.4h-11.9l-.8 6.9"/></defs><clipPath id="cL"><use xlink:href="#cK" overflow="visible"/></clipPath><g clip-path="url(#cL)"><defs><path id="cM" d="M-800-1063H440v3340H-800z"/></defs><clipPath id="cN"><use xlink:href="#cM" overflow="visible"/></clipPath><path clip-path="url(#cN)" fill="#e0ded8" d="M182 160h23v62h-23z"/></g></g><g><defs><path id="cO" d="M107.4 315H98l15.4-150H127l-19.6 150"/></defs><clipPath id="cP"><use xlink:href="#cO" overflow="visible"/></clipPath><g clip-path="url(#cP)"><defs><path id="cQ" d="M-800-1063H440v3340H-800z"/></defs><clipPath id="cR"><use xlink:href="#cQ" overflow="visible"/></clipPath><path clip-path="url(#cR)" fill="#fff" d="M93 160h39v160H93z"/></g></g><g><defs><path id="cS" d="M126 171.9L108 218l5.1-49.6.4-3.4h11.7l.8 6.9"/></defs><clipPath id="cT"><use xlink:href="#cS" overflow="visible"/></clipPath><g clip-path="url(#cT)"><defs><path id="cU" d="M-800-1063H440v3340H-800z"/></defs><clipPath id="cV"><use xlink:href="#cU" overflow="visible"/></clipPath><path clip-path="url(#cV)" fill="#e0ded8" d="M103 160h28v63h-28z"/></g></g><g><defs><path id="cW" d="M101 160h113v9H101z"/></defs><clipPath id="cX"><use xlink:href="#cW" overflow="visible"/></clipPath><g clip-path="url(#cX)"><defs><path id="cY" d="M-800-1063H440v3340H-800z"/></defs><clipPath id="cZ"><use xlink:href="#cY" overflow="visible"/></clipPath><path clip-path="url(#cZ)" fill="#fff" d="M96 155h123v19H96z"/></g></g><g><defs><path id="da" d="M208 160h128v9H208z"/></defs><clipPath id="db"><use xlink:href="#da" overflow="visible"/></clipPath><g clip-path="url(#db)"><defs><path id="dc" d="M-800-1063H440v3340H-800z"/></defs><clipPath id="dd"><use xlink:href="#dc" overflow="visible"/></clipPath><path clip-path="url(#dd)" fill="#fff" d="M203 155h138v19H203z"/></g></g><g><defs><path id="de" d="M91.6 79s6 8.1 7.1 15.7c1.1 7.5-1.9 48.3-1.9 48.3l-2.1-35.9 1.6-5.5-2.7-.6s-2.5-14-4.4-16.2c-1.9-2.2-2.2-3.1-2.2-3.1l4.6-2.7"/></defs><clipPath id="df"><use xlink:href="#de" overflow="visible"/></clipPath><g clip-path="url(#df)"><defs><path id="dg" d="M-800-1063H440v3340H-800z"/></defs><clipPath id="dh"><use xlink:href="#dg" overflow="visible"/></clipPath><path clip-path="url(#dh)" fill="#dd982c" d="M82 74h22v74H82z"/></g></g><g><defs><path id="di" d="M101 84s8 17.7 8.2 26.6c.3 8.9-2.8 31.4-2.8 31.4l5.5-36.1-2.2-3.6 1.7-.6s-5.8-13.1-6.3-13.6C101.9 85 101 84 101 84"/></defs><clipPath id="dj"><use xlink:href="#di" overflow="visible"/></clipPath><g clip-path="url(#dj)"><defs><path id="dk" d="M-800-1063H440v3340H-800z"/></defs><clipPath id="dl"><use xlink:href="#dk" overflow="visible"/></clipPath><path clip-path="url(#dl)" fill="#e8b00e" d="M96 79h21v68H96z"/></g></g><g><defs><path id="dm" d="M291 305.4l-1.4 7.6h-7.7s-.4-1.1-1.1-1.1c-.6 0-1.3 1.1-2 1.1h-19.6s-.4-1.6.1-2.1c.2-.3 1.5-.8 2.4-1 4-1.1 15.4-4.6 17.4-8.5 2.3-4.7 11.9 4 11.9 4"/></defs><clipPath id="dn"><use xlink:href="#dm" overflow="visible"/></clipPath><g clip-path="url(#dn)"><defs><path id="do" d="M-800-1063H440v3340H-800z"/></defs><clipPath id="dp"><use xlink:href="#do" overflow="visible"/></clipPath><path clip-path="url(#dp)" fill="#161711" d="M254 295h42v23h-42z"/></g></g><g><defs><path id="dq" d="M289 209.6s2.2 12.4 4 28.2c1.3 11.6 1.4 44.8-.7 67.9-.1 1.4-14.7-2.9-14.7-2.9s-5.3-64.5-6.5-79c-1.2-14.4 9.2-23.2 17.9-14.2"/></defs><clipPath id="dr"><use xlink:href="#dq" overflow="visible"/></clipPath><g clip-path="url(#dr)"><defs><path id="ds" d="M-800-1063H440v3340H-800z"/></defs><clipPath id="dt"><use xlink:href="#ds" overflow="visible"/></clipPath><path clip-path="url(#dt)" fill="#163f59" d="M266 201h33v110h-33z"/></g></g><g><defs><path id="du" d="M313.3 291.1c-.6-.7-.2-2.5-.2-2.5s10.2-1.1 13.5-.4c.9.2 2.3.9 3.6 1.7.2.1.6.9.9 1 .4.2.6-.2 1 0 .9.6 1.5 1 1.6 1.1.9 4.6-.3 6.5-.3 6.5s-8.4 2.6-10.3.9c-4.9-4.3-8.5-6.7-9.8-8.3"/></defs><clipPath id="dv"><use xlink:href="#du" overflow="visible"/></clipPath><g clip-path="url(#dv)"><defs><path id="dw" d="M-800-1063H440v3340H-800z"/></defs><clipPath id="dx"><use xlink:href="#dw" overflow="visible"/></clipPath><path clip-path="url(#dx)" fill="#161711" d="M308 283h31v22h-31z"/></g></g><g><defs><path id="dy" d="M314.3 220.9s-8-4.7-6 8c5 30.7 9.5 53.1 11.6 63.3.8 4 2.1 3.3 2.1 3.3l9.3 1.5 4.7-3.2-8.6-69.3-13.1-3.6"/></defs><clipPath id="dz"><use xlink:href="#dy" overflow="visible"/></clipPath><g clip-path="url(#dz)"><defs><path id="dA" d="M-800-1063H440v3340H-800z"/></defs><clipPath id="dB"><use xlink:href="#dA" overflow="visible"/></clipPath><path clip-path="url(#dB)" fill="#163f59" d="M303 215h38v87h-38z"/></g></g><g><defs><path id="dC" d="M277.1 223.2c1.2 1.6 42.7 22.8 44.6 22.8h34.1c1.9 0 15.8-2.1 18.8-11.3 3.2-9.7 0-27.1 0-27.1 0-2-1.6-3.7-3.5-3.7h-42.5c-1.9 0-5.8 1.6-5.8 3.7l-41.2-1.3s-13.5 5-4.5 16.9"/></defs><clipPath id="dD"><use xlink:href="#dC" overflow="visible"/></clipPath><g clip-path="url(#dD)"><defs><path id="dE" d="M-800-1063H440v3340H-800z"/></defs><clipPath id="dF"><use xlink:href="#dE" overflow="visible"/></clipPath><path clip-path="url(#dF)" fill="#194866" d="M269 199h112v52H269z"/></g></g><g><defs><path id="dG" d="M356.4 233.5h-39.5c-.4 0-34.5-9.3-34.9-9.5l4.1 13.3c0 2 34 8.7 36 8.7h34.5c1.9 0 16-2.1 19-11.3 1-3 1.4-6.7 1.4-10.4-4.9 7.4-18.6 9.2-20.6 9.2"/></defs><clipPath id="dH"><use xlink:href="#dG" overflow="visible"/></clipPath><g clip-path="url(#dH)"><defs><path id="dI" d="M-800-1063H440v3340H-800z"/></defs><clipPath id="dJ"><use xlink:href="#dI" overflow="visible"/></clipPath><path clip-path="url(#dJ)" fill="#163f59" d="M277 219h105v32H277z"/></g></g><g><defs><path id="dK" d="M341.9 108.8l-1.9-8.3s-6.6.5-7.8-2.7c-2.6-6.4-.4-16.6 1.1-19.5 4.4-8.1 6.3-22.4 27-11.1 7.9 4.3-4.3 25.2-5.2 29.8-.9 4.5 1.8 9.7 1.8 9.7l-4.8 3.3-10.2-1.2"/></defs><clipPath id="dL"><use xlink:href="#dK" overflow="visible"/></clipPath><g clip-path="url(#dL)"><defs><path id="dM" d="M-800-1063H440v3340H-800z"/></defs><clipPath id="dN"><use xlink:href="#dM" overflow="visible"/></clipPath><path clip-path="url(#dN)" fill="#f7b68b" d="M326 58h42v57h-42z"/></g></g><g><defs><path id="dO" d="M307.6 167l35.4 12.5s-41.8 3-41.9.6c-.9-13.3 6.5-13.1 6.5-13.1"/></defs><clipPath id="dP"><use xlink:href="#dO" overflow="visible"/></clipPath><g clip-path="url(#dP)"><defs><path id="dQ" d="M-800-1063H440v3340H-800z"/></defs><clipPath id="dR"><use xlink:href="#dQ" overflow="visible"/></clipPath><path clip-path="url(#dR)" fill="#e9d6b8" d="M296 162h52v24h-52z"/></g></g><g><defs><path id="dS" d="M378.2 117s7 3.3 12 30.5 1.8 26.2 1.8 26.2l-.9 6.2-13 1.1-7-23.5 7.1-40.5"/></defs><clipPath id="dT"><use xlink:href="#dS" overflow="visible"/></clipPath><g clip-path="url(#dT)"><defs><path id="dU" d="M-800-1063H440v3340H-800z"/></defs><clipPath id="dV"><use xlink:href="#dU" overflow="visible"/></clipPath><path clip-path="url(#dV)" fill="#0253a2" d="M366 112h32v74h-32z"/></g></g><g><defs><path id="dW" d="M379 117.6l-17.4-7.1-4.8-4.1-18.5-.4-3.2 4.8-14.3 5.6s-3.5 5-.5 23.7c3.4 20.7-.1 74.1-.1 74.1l58.5.8s-4.8-87.3.3-97.4"/></defs><clipPath id="dX"><use xlink:href="#dW" overflow="visible"/></clipPath><g clip-path="url(#dX)"><defs><path id="dY" d="M-800-1063H440v3340H-800z"/></defs><clipPath id="dZ"><use xlink:href="#dY" overflow="visible"/></clipPath><path clip-path="url(#dZ)" fill="#0269a2" d="M314 101h70v119h-70z"/></g></g><g><defs><path id="ea" d="M325 116.6s-3.2-3.2-10.9 5.6c-13.1 15-19.5 33.6-20.8 37.2-1.4 3.6-2.9 12.5 2.5 18.5 4.1 4.6 8.1 2.9 8.1 2.9l12.5-9.9-4-2.1-2.7-.2s8.6-10.5 15.4-22.1c6.7-11.7-.1-29.9-.1-29.9"/></defs><clipPath id="eb"><use xlink:href="#ea" overflow="visible"/></clipPath><g clip-path="url(#eb)"><defs><path id="ec" d="M-800-1063H440v3340H-800z"/></defs><clipPath id="ed"><use xlink:href="#ec" overflow="visible"/></clipPath><path clip-path="url(#ed)" fill="#0269a2" d="M287 111h46v75h-46z"/></g></g><g><defs><path id="ee" d="M339.7 81.6s2.3-1.3 2.7.3c.4 1.6-.9 5.2-2 5.5-1.1.3-1.4 4.7-1.4 4.7l2.8 4.9h14.5s4.5-1.8 4.8-4.7c.4-2.9 3.9-23.6 3.9-23.6l-10.2-4.9s-5.4-2.4-9.1-3.4c-5.7-1.5-7 1.3-6.8 2.8.2 1.5-1.6 1.6-3.9 1.6s-5.2 1.6-3.9 2.6c.5.4-1.8 1.7-.9 3.2 1.3 2.2 5.7 2.9 6 6.5.2 1.7 1 7.1 3.5 4.5"/></defs><clipPath id="ef"><use xlink:href="#ee" overflow="visible"/></clipPath><g clip-path="url(#ef)"><defs><path id="eg" d="M-800-1063H440v3340H-800z"/></defs><clipPath id="eh"><use xlink:href="#eg" overflow="visible"/></clipPath><path clip-path="url(#eh)" fill="#194866" d="M325 55h45v47h-45z"/></g></g><g><defs><path id="ei" d="M296.2 258c-.1-.6-.2-4.6-.2-5.2 0-4.3 2.9-7.8 6.5-7.8h72.1c3.6 0 6.5 3.5 6.5 7.8 0 .7-.1 4.6-.2 5.2h-84.7"/></defs><clipPath id="ej"><use xlink:href="#ei" overflow="visible"/></clipPath><g clip-path="url(#ej)"><defs><path id="ek" d="M-800-1063H440v3340H-800z"/></defs><clipPath id="el"><use xlink:href="#ek" overflow="visible"/></clipPath><path clip-path="url(#el)" fill="#606060" d="M291 240h95v23h-95z"/></g></g><g><defs><path id="em" d="M382 260.5c0 1.4-.8 2.5-1.8 2.5h-83.4c-1 0-1.8-1.1-1.8-2.5s.8-2.5 1.8-2.5h83.4c1 0 1.8 1.1 1.8 2.5"/></defs><clipPath id="en"><use xlink:href="#em" overflow="visible"/></clipPath><g clip-path="url(#en)"><defs><path id="eo" d="M-800-1063H440v3340H-800z"/></defs><clipPath id="ep"><use xlink:href="#eo" overflow="visible"/></clipPath><path clip-path="url(#ep)" fill="#373737" d="M290 253h97v15h-97z"/></g></g><g><defs><path id="eq" d="M348.5 299l-4.5 6.9 37.7 12.1s2.5-2.4-6.7-7.3c-10.8-5.6-26.5-11.7-26.5-11.7"/></defs><clipPath id="er"><use xlink:href="#eq" overflow="visible"/></clipPath><g clip-path="url(#er)"><defs><path id="es" d="M-800-1063H440v3340H-800z"/></defs><clipPath id="et"><use xlink:href="#es" overflow="visible"/></clipPath><path clip-path="url(#et)" fill="#88bdda" d="M339 294h48v29h-48z"/></g></g><g><defs><path id="eu" d="M342.5 299l4.5 6.9-37.7 12.1s-2.5-2.4 6.7-7.3c10.8-5.6 26.5-11.7 26.5-11.7"/></defs><clipPath id="ev"><use xlink:href="#eu" overflow="visible"/></clipPath><g clip-path="url(#ev)"><defs><path id="ew" d="M-800-1063H440v3340H-800z"/></defs><clipPath id="ex"><use xlink:href="#ew" overflow="visible"/></clipPath><path clip-path="url(#ex)" fill="#afafaf" d="M304 294h48v29h-48z"/></g></g><g><defs><path id="ey" d="M341 279h8v28h-8z"/></defs><clipPath id="ez"><use xlink:href="#ey" overflow="visible"/></clipPath><g clip-path="url(#ez)"><defs><path id="eA" d="M-800-1063H440v3340H-800z"/></defs><clipPath id="eB"><use xlink:href="#eA" overflow="visible"/></clipPath><path clip-path="url(#eB)" fill="#afafaf" d="M336 274h18v38h-18z"/></g></g><g><defs><path id="eC" d="M348.8 301l-3.8 6.5 31.7 11.5s2.1-2.3-5.7-6.9c-9-5.4-22.2-11.1-22.2-11.1"/></defs><clipPath id="eD"><use xlink:href="#eC" overflow="visible"/></clipPath><g clip-path="url(#eD)"><defs><path id="eE" d="M-800-1063H440v3340H-800z"/></defs><clipPath id="eF"><use xlink:href="#eE" overflow="visible"/></clipPath><path clip-path="url(#eF)" fill="#d8d8d8" d="M340 296h42v28h-42z"/></g></g><g><defs><path id="eG" d="M341.2 301l3.8 6.5-31.7 11.5s-2.1-2.3 5.7-6.9c9-5.4 22.2-11.1 22.2-11.1"/></defs><clipPath id="eH"><use xlink:href="#eG" overflow="visible"/></clipPath><g clip-path="url(#eH)"><defs><path id="eI" d="M-800-1063H440v3340H-800z"/></defs><clipPath id="eJ"><use xlink:href="#eI" overflow="visible"/></clipPath><path clip-path="url(#eJ)" fill="#d8d8d8" d="M308 296h42v28h-42z"/></g></g><g><defs><path id="eK" d="M373 322c0 1.7 1.3 3 3 3s3-1.3 3-3-1.3-3-3-3-3 1.3-3 3"/></defs><clipPath id="eL"><use xlink:href="#eK" overflow="visible"/></clipPath><g clip-path="url(#eL)"><defs><path id="eM" d="M-800-1063H440v3340H-800z"/></defs><clipPath id="eN"><use xlink:href="#eM" overflow="visible"/></clipPath><path clip-path="url(#eN)" fill="#0253a2" d="M368 314h16v16h-16z"/></g></g><g><defs><path id="eO" d="M311 322c0 1.7 1.3 3 3 3s3-1.3 3-3-1.3-3-3-3-3 1.3-3 3"/></defs><clipPath id="eP"><use xlink:href="#eO" overflow="visible"/></clipPath><g clip-path="url(#eP)"><defs><path id="eQ" d="M-800-1063H440v3340H-800z"/></defs><clipPath id="eR"><use xlink:href="#eQ" overflow="visible"/></clipPath><path clip-path="url(#eR)" fill="#717171" d="M306 314h16v16h-16z"/></g></g><g><defs><path id="eS" d="M380 322c0 1.7 1.3 3 3 3s3-1.3 3-3-1.3-3-3-3-3 1.3-3 3"/></defs><clipPath id="eT"><use xlink:href="#eS" overflow="visible"/></clipPath><g clip-path="url(#eT)"><defs><path id="eU" d="M-800-1063H440v3340H-800z"/></defs><clipPath id="eV"><use xlink:href="#eU" overflow="visible"/></clipPath><path clip-path="url(#eV)" fill="#0253a2" d="M375 314h16v16h-16z"/></g></g><g><defs><path id="eW" d="M305 322c0 1.7 1.3 3 3 3s3-1.3 3-3-1.3-3-3-3-3 1.3-3 3"/></defs><clipPath id="eX"><use xlink:href="#eW" overflow="visible"/></clipPath><g clip-path="url(#eX)"><defs><path id="eY" d="M-800-1063H440v3340H-800z"/></defs><clipPath id="eZ"><use xlink:href="#eY" overflow="visible"/></clipPath><path clip-path="url(#eZ)" fill="#373737" d="M300 314h16v16h-16z"/></g></g><g><defs><path id="fa" d="M342 268h6v10h-6z"/></defs><clipPath id="fb"><use xlink:href="#fa" overflow="visible"/></clipPath><g clip-path="url(#fb)"><defs><path id="fc" d="M-800-1063H440v3340H-800z"/></defs><clipPath id="fd"><use xlink:href="#fc" overflow="visible"/></clipPath><path clip-path="url(#fd)" fill="#373737" d="M337 263h16v20h-16z"/></g></g><g><defs><path id="fe" d="M338 263.5c0 3 2.4 5.5 5.5 5.5h3.1c3 0 5.5-2.5 5.5-5.5s-2.4-5.5-5.5-5.5h-3.1c-3.1 0-5.5 2.5-5.5 5.5"/></defs><clipPath id="ff"><use xlink:href="#fe" overflow="visible"/></clipPath><g clip-path="url(#ff)"><defs><path id="fg" d="M-800-1063H440v3340H-800z"/></defs><clipPath id="fh"><use xlink:href="#fg" overflow="visible"/></clipPath><path clip-path="url(#fh)" fill="#373737" d="M333 253h24v21h-24z"/></g></g><g><defs><path id="fi" d="M308.2 258c-.1-.6-.2-4.6-.2-5.2 0-4.3 2.9-7.8 6.5-7.8h72.1c3.6 0 6.5 3.5 6.5 7.8 0 .7-.1 4.6-.2 5.2h-84.7"/></defs><clipPath id="fj"><use xlink:href="#fi" overflow="visible"/></clipPath><g clip-path="url(#fj)"><defs><path id="fk" d="M-800-1063H440v3340H-800z"/></defs><clipPath id="fl"><use xlink:href="#fk" overflow="visible"/></clipPath><path clip-path="url(#fl)" fill="#717171" d="M303 240h95v23h-95z"/></g></g><g><defs><path id="fm" d="M394 260.5c0 1.4-.8 2.5-1.8 2.5h-83.4c-1 0-1.8-1.1-1.8-2.5s.8-2.5 1.8-2.5h83.4c1 0 1.8 1.1 1.8 2.5"/></defs><clipPath id="fn"><use xlink:href="#fm" overflow="visible"/></clipPath><g clip-path="url(#fn)"><defs><path id="fo" d="M-800-1063H440v3340H-800z"/></defs><clipPath id="fp"><use xlink:href="#fo" overflow="visible"/></clipPath><path clip-path="url(#fp)" fill="#4f4f4f" d="M302 253h97v15h-97z"/></g></g><g><defs><path id="fq" d="M385 201.4c0 2-1.6 3.6-3.6 3.6h-68.1c-2 0-4-1.6-4.3-3.6-2.6-14.8-2.6-30 0-44.8.4-2 2.3-3.6 4.3-3.6h68.1c2 0 3.6 1.6 3.6 3.6-.1 14.9-.1 29.9 0 44.8"/></defs><clipPath id="fr"><use xlink:href="#fq" overflow="visible"/></clipPath><g clip-path="url(#fr)"><defs><path id="fs" d="M-800-1063H440v3340H-800z"/></defs><clipPath id="ft"><use xlink:href="#fs" overflow="visible"/></clipPath><path clip-path="url(#ft)" fill="#606060" d="M302 148h88v62h-88z"/></g></g><g><defs><path id="fu" d="M389 201.4c0 2-1.6 3.6-3.6 3.6h-68.2c-2 0-3.9-1.6-4.3-3.6-2.5-14.8-2.5-30 0-44.8.3-2 2.3-3.6 4.3-3.6h68.2c2 0 3.6 1.6 3.6 3.6v44.8"/></defs><clipPath id="fv"><use xlink:href="#fu" overflow="visible"/></clipPath><g clip-path="url(#fv)"><defs><path id="fw" d="M-800-1063H440v3340H-800z"/></defs><clipPath id="fx"><use xlink:href="#fw" overflow="visible"/></clipPath><path clip-path="url(#fx)" fill="#717171" d="M306 148h88v62h-88z"/></g></g><g><defs><path id="fy" d="M326.8 263c10.7-35.2-9.7-70.4-.9-105.6.5-1.9-.7-3.4-2.8-3.4h-1.2c-2 0-4.2 1.5-4.6 3.4-8.8 35.2 11.6 70.4.9 105.6h8.6"/></defs><clipPath id="fz"><use xlink:href="#fy" overflow="visible"/></clipPath><g clip-path="url(#fz)"><defs><path id="fA" d="M-800-1063H440v3340H-800z"/></defs><clipPath id="fB"><use xlink:href="#fA" overflow="visible"/></clipPath><path clip-path="url(#fB)" fill="#4f4f4f" d="M310 149h25v119h-25z"/></g></g><g><defs><path id="fC" d="M386.8 263c10.7-35.2-9.7-70.4-.9-105.6.5-1.9-.7-3.4-2.8-3.4h-1.2c-2 0-4.2 1.5-4.6 3.4-8.8 35.2 11.6 70.4.9 105.6h8.6"/></defs><clipPath id="fD"><use xlink:href="#fC" overflow="visible"/></clipPath><g clip-path="url(#fD)"><defs><path id="fE" d="M-800-1063H440v3340H-800z"/></defs><clipPath id="fF"><use xlink:href="#fE" overflow="visible"/></clipPath><path clip-path="url(#fF)" fill="#0063cb" d="M370 149h25v119h-25z"/></g></g></svg>