<svg xmlns="http://www.w3.org/2000/svg" xmlns:xlink="http://www.w3.org/1999/xlink" viewBox="0 0 509 367"><defs><path id="a" d="M106.1 357.7c0 .6.1 1 .1 1l34.4-.2c0-.3.1-1.6.2-3.4.2-4.9.6-13.4-.3-13.8-.4-.2-.8-.3-1.2-.3-.7 0-1.3.3-1.3.3s-.5 3.8-4.6 3.8c-.3 0-.6 0-.9-.1-4.9-.6-5.6-4.9-6.2-4.9-.6 0 0 0-1.2 1.2-.5.5-1.3 1-2.1 1.7-.7.6-1.6 1.2-2.5 1.8-.3.2-.5.4-.8.6-.8.6-1.7 1.2-2.5 1.8-4.3 3-8.8 6.1-9.8 7.2l-.3.3c-.8 1-1 2.2-1 3M52.5 367c-32.1-128.8-14.6-174.4 8.9-191.4 8.7-6.3 18.4-8.8 28.9-8.8 4 0 8.1.4 12.4 1l-.9 2.7s1.3.2 3.5.4c1.2.1 2.5.1 4.1.1 2 0 4.4-.1 6.9-.4 2.9.7 5.8 1.5 8.8 2.4v.5c0 1.8-.3 4.8-.3 7.2 0 1.4.1 2.7.4 3.5l-2.4 153.3H143l6.3-71.6 6.4 72.2H176l-2.3-149.8c12.1 3.5 24.7 6.5 37.7 8 4 6.3 8.7 12.2 14 17.6l.1.1c18.1 18.3 42.9 29.9 70.5 30.8H299.3c10.9 0 21.4-1.7 31.2-4.8 6.3-2 12.5-4.6 18.2-7.7 10.1-5.4 19.1-12.5 26.9-20.8 8.7-9.3 15.8-20.3 20.6-32.4 4.8-12 7.5-25.2 7.5-38.9 0-11.6-1.9-22.8-5.4-33.3 3.8-.7 7.8-1.1 12.1-1.1 1.4 0 2.9 0 4.4.1 3.5.2 6.9.7 10.2 1.3 2.8 10.5 4.2 21.6 4.2 32.9 0 71.7-58.2 130-129.8 130-34 0-64.9-13.1-88-34.6l-9.9 17c26.2 23 60.5 36.9 98 36.9 82.2 0 149.1-67 149.1-149.3 0-8.7-.8-17.3-2.2-25.7 21 10.4 33.9 26.6 35.9 29.1 37 47.8 24.5 136.2-37.6 215.2h-252c0-.2.1-.4.1-.8 0-.8-.2-2-1-3l-.3-.3c-1-1.1-5.5-4.2-9.8-7.2-.8-.6-1.7-1.2-2.5-1.8-.3-.2-.5-.4-.8-.6-.9-.6-1.7-1.3-2.5-1.8-.9-.6-1.6-1.2-2.1-1.7-1.2-1.2-.6-1.2-1.2-1.2s-1.3 4.3-6.2 4.9c-.3 0-.6.1-.9.1-4.1 0-4.6-3.8-4.6-3.8s-.6-.3-1.3-.3c-.4 0-.8.1-1.2.3-.9.4-.5 8.9-.3 13.8.1 1.7.2 3 .2 3.4H52.5v8.3"/></defs><clipPath id="b"><use xlink:href="#a" overflow="visible"/></clipPath><g clip-path="url(#b)"><defs><path id="c" d="M-626-175H614v3340H-626z"/></defs><clipPath id="d"><use xlink:href="#c" overflow="visible"/></clipPath><path clip-path="url(#d)" fill="#e0ded8" d="M30 101h478v271H30z"/></g><defs><path id="e" d="M348.7 0l-9.9 17c52.1 16.8 89.9 65.7 89.9 123.3 0 71.4-58.2 129.5-129.8 129.5-33.9 0-64.9-13.1-88-34.5l-9.9 17c26.2 22.9 60.5 36.7 98 36.7 82.2 0 149-66.7 149-148.8C448 75.6 406.5 20.5 348.7 0"/></defs><clipPath id="f"><use xlink:href="#e" overflow="visible"/></clipPath><g clip-path="url(#f)"><defs><path id="g" d="M-626-175H614v3340H-626z"/></defs><clipPath id="h"><use xlink:href="#g" overflow="visible"/></clipPath><path clip-path="url(#h)" fill="#b9c6c3" d="M196-5h257v299H196z"/></g><defs><path id="i" d="M403 141c0 13.7-2.6 26.7-7.4 38.7-4.8 12-11.8 22.9-20.5 32.2-7.7 8.3-16.7 15.3-26.8 20.7-5.8 3.1-11.8 5.7-18.2 7.7-9.8 3.1-20.3 4.8-31.1 4.8-51 0-93.4-36.7-102.3-85.2-1.1-6.1-1.7-12.4-1.7-18.8v-1.3c.1-12.5 2.5-24.4 6.7-35.4C216.5 64.9 254.5 37 299 37c18.1 0 35.2 4.6 50 12.8 2.3 1.2 4.4 2.6 6.6 3.9 5.4 3.5 10.5 7.6 15.2 12 19.8 19 32.2 45.7 32.2 75.3"/></defs><clipPath id="j"><use xlink:href="#i" overflow="visible"/></clipPath><g clip-path="url(#j)"><defs><path id="k" d="M-626-175H614v3340H-626z"/></defs><clipPath id="l"><use xlink:href="#k" overflow="visible"/></clipPath><path clip-path="url(#l)" fill="#34b6dc" d="M190 32h218v218H190z"/></g><defs><path id="m" d="M331 239.3c-9.9 3.1-20.4 4.7-31.3 4.7-57.8 0-104.7-46.4-104.7-103.7V139c3.3 2.8 7.9 5.3 14.1 7.4 36.9 12.2 44 22.7 56.3 50.6 8.7 19.8 46.8 29.9 65.6 42.3"/></defs><clipPath id="n"><use xlink:href="#m" overflow="visible"/></clipPath><g clip-path="url(#n)"><defs><path id="o" d="M-626-175H614v3340H-626z"/></defs><clipPath id="p"><use xlink:href="#o" overflow="visible"/></clipPath><path clip-path="url(#p)" fill="#c0d770" d="M190 134h146v115H190z"/></g><defs><path id="q" d="M356 53.7c-11.4 10.1-44.4 11.2-70.2 5.9-42.2-8.7-1.8 48.7-49.3 55.6-20.9 3.1-30.9-3.3-35.5-11.3C215.9 64.8 254.2 37 299 37c21 0 40.6 6.1 57 16.7"/></defs><clipPath id="r"><use xlink:href="#q" overflow="visible"/></clipPath><g clip-path="url(#r)"><defs><path id="s" d="M-626-175H614v3340H-626z"/></defs><clipPath id="t"><use xlink:href="#s" overflow="visible"/></clipPath><path clip-path="url(#t)" fill="#c0d770" d="M196 32h165v89H196z"/></g><defs><path id="u" d="M364.8 51c-1.6 0-3.3-.5-4.7-1.5-3.4-2.5-4.1-7.4-1.6-10.7L369 25.1c2.6-3.4 7.5-4.1 10.9-1.5 3.4 2.5 4.1 7.4 1.6 10.7L371 47.9c-1.5 2-3.8 3.1-6.2 3.1"/></defs><clipPath id="v"><use xlink:href="#u" overflow="visible"/></clipPath><g clip-path="url(#v)"><defs><path id="w" d="M-626-175H614v3340H-626z"/></defs><clipPath id="x"><use xlink:href="#w" overflow="visible"/></clipPath><path clip-path="url(#x)" fill="#acd4e5" d="M352 17h36v39h-36z"/></g><defs><path id="y" d="M224.9 264c-1.4 0-2.9-.4-4.2-1.2-3.7-2.3-4.8-7.2-2.4-10.9l12.3-19.2c2.3-3.7 7.2-4.7 10.9-2.4 3.7 2.3 4.8 7.2 2.4 10.9l-12.2 19.2c-1.7 2.3-4.2 3.6-6.8 3.6"/></defs><clipPath id="z"><use xlink:href="#y" overflow="visible"/></clipPath><g clip-path="url(#z)"><defs><path id="A" d="M-626-175H614v3340H-626z"/></defs><clipPath id="B"><use xlink:href="#A" overflow="visible"/></clipPath><path clip-path="url(#B)" fill="#b9c6c3" d="M212 224h38v45h-38z"/></g><defs><path id="C" d="M292 282h21v47h-21z"/></defs><clipPath id="D"><use xlink:href="#C" overflow="visible"/></clipPath><g clip-path="url(#D)"><defs><path id="E" d="M-626-175H614v3340H-626z"/></defs><clipPath id="F"><use xlink:href="#E" overflow="visible"/></clipPath><path clip-path="url(#F)" fill="#b9c6c3" d="M287 277h31v57h-31z"/></g><defs><path id="G" d="M309.5 327h-10.1c-2.9 0-5.8.2-8.6.5-22.2 2.9-56.5 10.8-58.8 32.5h141c-2.5-23.3-41.8-30.7-63.5-33"/></defs><clipPath id="H"><use xlink:href="#G" overflow="visible"/></clipPath><g clip-path="url(#H)"><defs><path id="I" d="M-626-175H614v3340H-626z"/></defs><clipPath id="J"><use xlink:href="#I" overflow="visible"/></clipPath><path clip-path="url(#J)" fill="#b9c6c3" d="M227 322h151v43H227z"/></g><defs><path id="K" d="M301.6 93.3c-15.4-5.2-18.8 5.2-25.6 22.5-6.8 17.3-8.5 38.1 6.8 45 15.4 6.9 37.5-17.3 32.4-39.8-5.1-22.5-13.6-27.7-13.6-27.7"/></defs><clipPath id="L"><use xlink:href="#K" overflow="visible"/></clipPath><g clip-path="url(#L)"><defs><path id="M" d="M-626-175H614v3340H-626z"/></defs><clipPath id="N"><use xlink:href="#M" overflow="visible"/></clipPath><path clip-path="url(#N)" fill="#c0d770" d="M266 87h55v80h-55z"/></g><defs><path id="O" d="M404 140.9c0 13.8-2.7 27-7.5 39.1-11.2.5-26.1-7.4-40.1-25.8-28.2-37 1.8-26.5-7.1-58.2-6.2-22.5 11.3-29 22.2-31 20 19.1 32.5 46.1 32.5 75.9"/></defs><clipPath id="P"><use xlink:href="#O" overflow="visible"/></clipPath><g clip-path="url(#P)"><defs><path id="Q" d="M-626-175H614v3340H-626z"/></defs><clipPath id="R"><use xlink:href="#Q" overflow="visible"/></clipPath><path clip-path="url(#R)" fill="#c0d770" d="M339 60h70v125h-70z"/></g><defs><path id="S" d="M376 211.1c-7.8 8.4-17 15.5-27.1 20.9-1.9-1.9-3.5-4.2-4.8-6.9-8.9-19.5-17.7-14.2-33.7-28.3-15.9-14.2-2.4-29.2 5.3-24.8 6.2 3.5 11.1 1.8 16.6 0 5.5-1.8 11.7-3.5 20.6 0 12.9 5.2 19.2 23.4 23.1 39.1"/></defs><clipPath id="T"><use xlink:href="#S" overflow="visible"/></clipPath><g clip-path="url(#T)"><defs><path id="U" d="M-626-175H614v3340H-626z"/></defs><clipPath id="V"><use xlink:href="#U" overflow="visible"/></clipPath><path clip-path="url(#V)" fill="#c0d770" d="M298 165h83v72h-83z"/></g><defs><path id="W" d="M375.5 211.7c-3.8-15.6-10-33.7-22.7-38.8-.5-.2-1.1-.4-1.6-.6 3.3-4.5 6.1-9.2 8.6-14.3 12.4 14.7 25.1 21.3 35.1 21.3h1c-4.7 12.1-11.7 23.1-20.4 32.4m-44.8 28.5c-14.8-9.9-41.7-18.4-56.5-31.5 2.2.2 4.4.3 6.6.3 12.2 0 24.1-2.7 34.9-7.6 12.8 9.4 20.6 7 28.4 24.3 1.2 2.7 2.8 5 4.7 6.8-5.7 3.1-11.8 5.7-18.1 7.7m-34.6 4.7c-27.4-.9-52.1-12.5-70.1-30.8 18 18.3 42.7 29.9 70.1 30.8m1.2.1h-.5.5m1.1 0h-.3.3"/></defs><clipPath id="X"><use xlink:href="#W" overflow="visible"/></clipPath><g clip-path="url(#X)"><defs><path id="Y" d="M-626-175H614v3340H-626z"/></defs><clipPath id="Z"><use xlink:href="#Y" overflow="visible"/></clipPath><path clip-path="url(#Z)" fill="#398fc1" d="M221 153h180v97H221z"/></g><defs><path id="aa" d="M299.5 245h-.2-.1-.1-.1-.1-.1-.1-.1-.1-.1-.1-.1-.4-.1-.1-.1-.1-.8-.1H296.2c-27.8-.9-52.8-12.4-71.1-30.6l-.1-.1c-14.8-14.5-25.1-33.3-29-54.3 22.6 32 50.7 46.9 77.7 49 15 13 42.3 21.5 57.3 31.3-9.9 3-20.5 4.7-31.5 4.7"/></defs><clipPath id="ab"><use xlink:href="#aa" overflow="visible"/></clipPath><g clip-path="url(#ab)"><defs><path id="ac" d="M-626-175H614v3340H-626z"/></defs><clipPath id="ad"><use xlink:href="#ac" overflow="visible"/></clipPath><path clip-path="url(#ad)" fill="#bacf51" d="M191 155h145v95H191z"/></g><defs><path id="ae" d="M359.8 70c-2-4.5-4.2-9.1-6.8-13.7 1.2-.7 2.3-1.4 3.2-2.3 5.7 3.6 11 7.7 15.8 12.2-3.7.6-8.1 1.7-12.2 3.8"/></defs><clipPath id="af"><use xlink:href="#ae" overflow="visible"/></clipPath><g clip-path="url(#af)"><defs><path id="ag" d="M-626-175H614v3340H-626z"/></defs><clipPath id="ah"><use xlink:href="#ag" overflow="visible"/></clipPath><path clip-path="url(#ah)" fill="#398fc1" d="M348 49h29v26h-29z"/></g><defs><path id="ai" d="M352.2 56c-1-2-2.1-4-3.2-6 2.1 1.2 4.1 2.5 6 3.8-.8.8-1.7 1.5-2.8 2.2"/></defs><clipPath id="aj"><use xlink:href="#ai" overflow="visible"/></clipPath><g clip-path="url(#aj)"><defs><path id="ak" d="M-626-175H614v3340H-626z"/></defs><clipPath id="al"><use xlink:href="#ak" overflow="visible"/></clipPath><path clip-path="url(#al)" fill="#bacf51" d="M344 45h16v16h-16z"/></g><defs><path id="am" d="M395.5 180c-10.1 0-22.8-6.7-35.3-21.4 11.9-24.5 13.9-55.8-.2-89.8 3.9-2 8.2-3.2 11.7-3.8 19.9 19.1 32.3 46.1 32.3 75.9 0 13.8-2.6 27-7.5 39.1h-1"/></defs><clipPath id="an"><use xlink:href="#am" overflow="visible"/></clipPath><g clip-path="url(#an)"><defs><path id="ao" d="M-626-175H614v3340H-626z"/></defs><clipPath id="ap"><use xlink:href="#ao" overflow="visible"/></clipPath><path clip-path="url(#ap)" fill="#bacf51" d="M355 60h54v125h-54z"/></g><defs><path id="aq" d="M348.8 232c-1.9-1.9-3.6-4.2-4.8-6.9-8-17.6-15.9-15.1-29-24.6 14.2-6.4 26.8-16.5 36.2-29.4.5.2 1.1.4 1.6.6 12.9 5.2 19.3 23.5 23.1 39.3-7.7 8.4-16.9 15.5-27.1 21"/></defs><clipPath id="ar"><use xlink:href="#aq" overflow="visible"/></clipPath><g clip-path="url(#ar)"><defs><path id="as" d="M-626-175H614v3340H-626z"/></defs><clipPath id="at"><use xlink:href="#as" overflow="visible"/></clipPath><path clip-path="url(#at)" fill="#bacf51" d="M310 166h71v71h-71z"/></g><g><defs><path id="au" d="M194.2 151.3l23.9-20.4s-2.4-4.9 0-8c2.4-3.1 3 3.1 3 3.1s6-6.2 9.6-3.1c3.6 3.1 0 9.3-7.2 11.7 0 0-18.5 29.1-23.9 31.5-5.4 2.5-12.5-1.2-12.5-1.2l7.1-13.6"/></defs><clipPath id="av"><use xlink:href="#au" overflow="visible"/></clipPath><g clip-path="url(#av)"><defs><path id="aw" d="M-626-175H614v3340H-626z"/></defs><clipPath id="ax"><use xlink:href="#aw" overflow="visible"/></clipPath><path clip-path="url(#ax)" fill="#e8ada8" d="M182 117h55v55h-55z"/></g></g><g><defs><path id="ay" d="M168.7 125.6c4.3-12 1.2-22.4 1.2-28.4s-1.2-20.5-14.4-24.2c-13.2-3.6-27.1 2.4-22.9 21.1 4.2 18.7-15 26.6-9.6 37.5 5.4 10.9 40.9 7.2 45.7-6"/></defs><clipPath id="az"><use xlink:href="#ay" overflow="visible"/></clipPath><g clip-path="url(#az)"><defs><path id="aA" d="M-626-175H614v3340H-626z"/></defs><clipPath id="aB"><use xlink:href="#aA" overflow="visible"/></clipPath><path clip-path="url(#aB)" fill="#4d4d4d" d="M117 67h59v76h-59z"/></g></g><g><defs><path id="aC" d="M157 118.9l-8.3 13.1-7.7-13.7 3.2-11.3h10.2l2.6 11.9"/></defs><clipPath id="aD"><use xlink:href="#aC" overflow="visible"/></clipPath><g clip-path="url(#aD)"><defs><path id="aE" d="M-626-175H614v3340H-626z"/></defs><clipPath id="aF"><use xlink:href="#aE" overflow="visible"/></clipPath><path clip-path="url(#aF)" fill="#e6758c" d="M136 102h26v35h-26z"/></g></g><g><defs><path id="aG" d="M148.4 115c-3.4 0-5.3-1-6.4-2.1l1.7-5.9h10.1l1.3 6c-1.5 1-3.7 2-6.7 2"/></defs><clipPath id="aH"><use xlink:href="#aG" overflow="visible"/></clipPath><g clip-path="url(#aH)"><defs><path id="aI" d="M-626-175H614v3340H-626z"/></defs><clipPath id="aJ"><use xlink:href="#aI" overflow="visible"/></clipPath><path clip-path="url(#aJ)" fill="#dd3f74" d="M137 102h23v18h-23z"/></g></g><g><defs><path id="aK" d="M158.8 342l-1.8-12 14 .1-.1 11.9-1.3 3.8-9.5 1.2-1.3-5"/></defs><clipPath id="aL"><use xlink:href="#aK" overflow="visible"/></clipPath><g clip-path="url(#aL)"><defs><path id="aM" d="M-626-175H614v3340H-626z"/></defs><clipPath id="aN"><use xlink:href="#aM" overflow="visible"/></clipPath><path clip-path="url(#aN)" fill="#e8ada8" d="M152 325h24v27h-24z"/></g></g><g><defs><path id="aO" d="M192.9 360l-34.4-.2c0-.3-.1-1.7-.2-3.4-.2-5-.6-13.7.3-14.2 1.2-.6 2.5 0 2.5 0s.6 4.4 5.5 3.8c4.9-.6 5.6-5 6.2-5 .6 0 0 0 1.2 1.3.5.5 1.3 1 2.1 1.7.7.6 1.6 1.2 2.5 1.9.3.2.5.4.8.6.8.6 1.7 1.2 2.5 1.8 4.3 3.1 8.8 6.3 9.8 7.4l.3.3c1.5 1.7.9 4 .9 4"/></defs><clipPath id="aP"><use xlink:href="#aO" overflow="visible"/></clipPath><g clip-path="url(#aP)"><defs><path id="aQ" d="M-626-175H614v3340H-626z"/></defs><clipPath id="aR"><use xlink:href="#aQ" overflow="visible"/></clipPath><path clip-path="url(#aR)" fill="#69a5ce" d="M153 336h45v29h-45z"/></g></g><g><defs><path id="aS" d="M192.9 360l-34.7-.2c0-.3-.1-1.6-.2-3.3l33.9-.4c.9 1 1.1 2.2 1.1 3 0 .5-.1.9-.1.9"/></defs><clipPath id="aT"><use xlink:href="#aS" overflow="visible"/></clipPath><g clip-path="url(#aT)"><defs><path id="aU" d="M-626-175H614v3340H-626z"/></defs><clipPath id="aV"><use xlink:href="#aU" overflow="visible"/></clipPath><path clip-path="url(#aV)" fill="#5c7cb0" d="M153 351h45v14h-45z"/></g></g><g><defs><path id="aW" d="M178 345.6l-3.4 3.8c-.3.3-.7.5-1.2.5-.3 0-.7-.1-.9-.3-.6-.5-.7-1.4-.2-1.9l3.3-3.7c.7.5 1.5 1.1 2.4 1.6"/></defs><clipPath id="aX"><use xlink:href="#aW" overflow="visible"/></clipPath><g clip-path="url(#aX)"><defs><path id="aY" d="M-626-175H614v3340H-626z"/></defs><clipPath id="aZ"><use xlink:href="#aY" overflow="visible"/></clipPath><path clip-path="url(#aZ)" fill="#fffffe" d="M167 339h16v16h-16z"/></g></g><g><defs><path id="ba" d="M181 347.7l-2.6 3.7c-.3.4-.6.6-1 .6-.3 0-.6-.1-.8-.3-.6-.5-.7-1.5-.2-2.1l2.5-3.6c.6.6 1.4 1.2 2.1 1.7"/></defs><clipPath id="bb"><use xlink:href="#ba" overflow="visible"/></clipPath><g clip-path="url(#bb)"><defs><path id="bc" d="M-626-175H614v3340H-626z"/></defs><clipPath id="bd"><use xlink:href="#bc" overflow="visible"/></clipPath><path clip-path="url(#bd)" fill="#fffffe" d="M171 341h15v16h-15z"/></g></g><g><defs><path id="be" d="M176 338h-20.5l-11.8-132.1L140 180h33.5z"/></defs><clipPath id="bf"><use xlink:href="#be" overflow="visible"/></clipPath><g clip-path="url(#bf)"><defs><path id="bg" d="M-626-175H614v3340H-626z"/></defs><clipPath id="bh"><use xlink:href="#bg" overflow="visible"/></clipPath><path clip-path="url(#bh)" fill="#4d4d4d" d="M135 175h46v168h-46z"/></g></g><g><defs><path id="bi" d="M138.2 341l1.8-12-14 .1.1 11.9 1.3 3.8 9.5 1.2 1.3-5"/></defs><clipPath id="bj"><use xlink:href="#bi" overflow="visible"/></clipPath><g clip-path="url(#bj)"><defs><path id="bk" d="M-626-175H614v3340H-626z"/></defs><clipPath id="bl"><use xlink:href="#bk" overflow="visible"/></clipPath><path clip-path="url(#bl)" fill="#e8ada8" d="M121 324h24v27h-24z"/></g></g><g><defs><path id="bm" d="M106.1 359l34.4-.2c0-.3.1-1.6.2-3.4.2-5 .6-13.7-.3-14.2-1.2-.6-2.5 0-2.5 0s-.6 4.4-5.5 3.8c-4.9-.6-5.6-5-6.2-5-.6 0 0 0-1.2 1.3-.5.5-1.3 1-2.1 1.7-.7.6-1.6 1.2-2.5 1.9-.3.2-.5.4-.8.6-.8.6-1.7 1.2-2.5 1.8-4.3 3.1-8.8 6.3-9.8 7.4l-.3.3c-1.5 1.7-.9 4-.9 4"/></defs><clipPath id="bn"><use xlink:href="#bm" overflow="visible"/></clipPath><g clip-path="url(#bn)"><defs><path id="bo" d="M-626-175H614v3340H-626z"/></defs><clipPath id="bp"><use xlink:href="#bo" overflow="visible"/></clipPath><path clip-path="url(#bp)" fill="#69a5ce" d="M101 335h45v29h-45z"/></g></g><g><defs><path id="bq" d="M104 358.5c0-.7.2-1.7 1.1-2.5l33.9.4c-.1 1.5-.2 3.4-.2 3.6h-34.7s-.1-.9-.1-1.5z"/></defs><clipPath id="br"><use xlink:href="#bq" overflow="visible"/></clipPath><g clip-path="url(#br)"><defs><path id="bs" d="M-626-175H614v3340H-626z"/></defs><clipPath id="bt"><use xlink:href="#bs" overflow="visible"/></clipPath><path clip-path="url(#bt)" fill="#5c7cb0" d="M99 351h45v14H99z"/></g></g><g><defs><path id="bu" d="M0 359h446v8H0z"/></defs><clipPath id="bv"><use xlink:href="#bu" overflow="visible"/></clipPath><g clip-path="url(#bv)"><defs><path id="bw" d="M-626-175H614v3340H-626z"/></defs><clipPath id="bx"><use xlink:href="#bw" overflow="visible"/></clipPath><path clip-path="url(#bx)" fill="#9c9b98" d="M-5 354h456v18H-5z"/></g></g><g><defs><path id="by" d="M121 344.6l3.4 3.8c.3.3.7.5 1.2.5.3 0 .7-.1.9-.3.6-.5.7-1.4.2-2l-3.3-3.7c-.7.6-1.5 1.2-2.4 1.7"/></defs><clipPath id="bz"><use xlink:href="#by" overflow="visible"/></clipPath><g clip-path="url(#bz)"><defs><path id="bA" d="M-626-175H614v3340H-626z"/></defs><clipPath id="bB"><use xlink:href="#bA" overflow="visible"/></clipPath><path clip-path="url(#bB)" fill="#fffffe" d="M116 338h16v16h-16z"/></g></g><g><defs><path id="bC" d="M117 346.7l2.6 3.7c.3.4.6.6 1 .6.3 0 .6-.1.8-.3.6-.5.7-1.5.2-2.1l-2.5-3.6c-.6.6-1.4 1.2-2.1 1.7"/></defs><clipPath id="bD"><use xlink:href="#bC" overflow="visible"/></clipPath><g clip-path="url(#bD)"><defs><path id="bE" d="M-626-175H614v3340H-626z"/></defs><clipPath id="bF"><use xlink:href="#bE" overflow="visible"/></clipPath><path clip-path="url(#bF)" fill="#fffffe" d="M112 340h15v16h-15z"/></g></g><g><defs><path id="bG" d="M122 338h20.5l11.8-133.1L158 179h-33.5z"/></defs><clipPath id="bH"><use xlink:href="#bG" overflow="visible"/></clipPath><g clip-path="url(#bH)"><defs><path id="bI" d="M-626-175H614v3340H-626z"/></defs><clipPath id="bJ"><use xlink:href="#bI" overflow="visible"/></clipPath><path clip-path="url(#bJ)" fill="#4d4d4d" d="M117 174h46v169h-46z"/></g></g><g><defs><path id="bK" d="M136.6 87.3s-4.3 21.8 10.5 23.6c14.8 1.8 17.9-22.4 17.9-22.4S147.7 82 147.1 82c-.6 0-10.5 5.3-10.5 5.3"/></defs><clipPath id="bL"><use xlink:href="#bK" overflow="visible"/></clipPath><g clip-path="url(#bL)"><defs><path id="bM" d="M-626-175H614v3340H-626z"/></defs><clipPath id="bN"><use xlink:href="#bM" overflow="visible"/></clipPath><path clip-path="url(#bN)" fill="#e8ada8" d="M131 77h39v39h-39z"/></g></g><g><defs><path id="bO" d="M140 97c0 2.2-1.8 4-4 4s-4-1.8-4-4 1.8-4 4-4 4 1.8 4 4"/></defs><clipPath id="bP"><use xlink:href="#bO" overflow="visible"/></clipPath><g clip-path="url(#bP)"><defs><path id="bQ" d="M-626-175H614v3340H-626z"/></defs><clipPath id="bR"><use xlink:href="#bQ" overflow="visible"/></clipPath><path clip-path="url(#bR)" fill="#e8ada8" d="M127 88h18v18h-18z"/></g></g><g><defs><path id="bS" d="M122.2 169.2c-6.5 2-13 1.9-16.8 1.6-2.1-.2-3.4-.4-3.4-.4l14.9-44.4 9.9 22.9.2.5c0 .1-5.4 16.7-4.8 19.8"/></defs><clipPath id="bT"><use xlink:href="#bS" overflow="visible"/></clipPath><g clip-path="url(#bT)"><defs><path id="bU" d="M-626-175H614v3340H-626z"/></defs><clipPath id="bV"><use xlink:href="#bU" overflow="visible"/></clipPath><path clip-path="url(#bV)" fill="#eda02d" d="M97 121h35v55H97z"/></g></g><g><defs><path id="bW" d="M109 171c-1.5 0-2.9-.1-4-.2 8.2-1.4 10.9-6.8 10.9-6.8l7.9-12c0 1.8.1 3.8.1 6-1.1 4.2-2.1 8.5-2.1 10.6v.6c-4.5 1.4-9.1 1.8-12.8 1.8"/></defs><clipPath id="bX"><use xlink:href="#bW" overflow="visible"/></clipPath><g clip-path="url(#bX)"><defs><path id="bY" d="M-626-175H614v3340H-626z"/></defs><clipPath id="bZ"><use xlink:href="#bY" overflow="visible"/></clipPath><path clip-path="url(#bZ)" fill="#e6752b" d="M100 147h29v29h-29z"/></g></g><g><defs><path id="ca" d="M167 98c0 2.2-1.8 4-4 4s-4-1.8-4-4 1.8-4 4-4 4 1.8 4 4"/></defs><clipPath id="cb"><use xlink:href="#ca" overflow="visible"/></clipPath><g clip-path="url(#cb)"><defs><path id="cc" d="M-626-175H614v3340H-626z"/></defs><clipPath id="cd"><use xlink:href="#cc" overflow="visible"/></clipPath><path clip-path="url(#cd)" fill="#e8ada8" d="M154 89h18v18h-18z"/></g></g><g><defs><path id="ce" d="M134 87.9s3.8 8.4 10.2 6.9c0 0-1.3-3.8 2.5-9.2 0 0-1.9 5.4 1.9 8.4 0 0 14.6 1.5 20.4-1.5 0-.8-6.9-12.4-21.6-11.5-12.1.8-13.4 6.9-13.4 6.9"/></defs><clipPath id="cf"><use xlink:href="#ce" overflow="visible"/></clipPath><g clip-path="url(#cf)"><defs><path id="cg" d="M-626-175H614v3340H-626z"/></defs><clipPath id="ch"><use xlink:href="#cg" overflow="visible"/></clipPath><path clip-path="url(#ch)" fill="#4d4d4d" d="M129 76h45v24h-45z"/></g></g><g><defs><path id="ci" d="M176 127.5s-.8 11.6-1.5 23c-.2 3.5-.4 7-.6 10.1-.3 4.7-.4 8.6-.4 10.5v2.2c0 .5 0 1 .1 1.4v.1c0 .3 0 .6.1.9v.8c.1 1 .1 1.8.2 2.5v.3c0 1.5-.2 2.5-1 3.3-1.9 1.8-45.2 2.4-47.6 2.4-2.5 0-1.2-7.9-1.2-11.5 0-3.4-.5-23.4-.6-25.8v-.2l-7.4-20.6 24.7-7.9 7.4 12.7 8-12.1 19.8 7.9"/></defs><clipPath id="cj"><use xlink:href="#ci" overflow="visible"/></clipPath><g clip-path="url(#cj)"><defs><path id="ck" d="M-626-175H614v3340H-626z"/></defs><clipPath id="cl"><use xlink:href="#ck" overflow="visible"/></clipPath><path clip-path="url(#cl)" fill="#eda02d" d="M111 114h70v76h-70z"/></g></g><g><defs><path id="cm" d="M176.3 127l17.7 23.5-6.1 14.5-15.9-6.6 4.3-31.4"/></defs><clipPath id="cn"><use xlink:href="#cm" overflow="visible"/></clipPath><g clip-path="url(#cn)"><defs><path id="co" d="M-626-175H614v3340H-626z"/></defs><clipPath id="cp"><use xlink:href="#co" overflow="visible"/></clipPath><path clip-path="url(#cp)" fill="#eda02d" d="M167 122h32v48h-32z"/></g></g><g><defs><path id="cq" d="M125.8 185c-1.2 0-1.5-2-1.5-4.4 0-2.5.3-5.4.3-7.2 0-1.9-.2-8.7-.3-14.9-.1-2-.1-4-.1-5.7-.1-2.7-.1-4.8-.1-5.5v-.2s2.8 24.1 31.8 27c.4 0 .7.1 1.1.1 5.7 0 13.7-3.7 15.5-8.8.6-1.8 1.2-4.8 1.4-5.7l.1.1v.7c-.3 4.8-.4 8.7-.4 10.6v2.2c0 .5 0 1 .1 1.4v.1c0 .3 0 .6.1.9v.8c.1 1 .1 1.8.2 2.5v.6c0 1.3-.2 2.2-1 3-1.9 1.8-44.7 2.4-47.2 2.4"/></defs><clipPath id="cr"><use xlink:href="#cq" overflow="visible"/></clipPath><g clip-path="url(#cr)"><defs><path id="cs" d="M-626-175H614v3340H-626z"/></defs><clipPath id="ct"><use xlink:href="#cs" overflow="visible"/></clipPath><path clip-path="url(#ct)" fill="#e6752b" d="M119 142h60v48h-60z"/></g></g><g><defs><path id="cu" d="M174.6 160.7l-.2-.1c0-.2.1-.3.1-.3.1 0 .1.1.1.4"/></defs><clipPath id="cv"><use xlink:href="#cu" overflow="visible"/></clipPath><g clip-path="url(#cv)"><defs><path id="cw" d="M-626-175H614v3340H-626z"/></defs><clipPath id="cx"><use xlink:href="#cw" overflow="visible"/></clipPath><path clip-path="url(#cx)" fill="#e6752b" d="M169.4 155.3h10.2v10.3h-10.2z"/></g></g><g><defs><path id="cy" d="M185 139.8l-10.3 42.1c-.2.7-.8 1.1-1.4 1.1h-30.7c-1 0-1.7-.9-1.4-1.8l10.9-42.1c.2-.6.8-1.1 1.4-1.1h30.1c.2 0 .5.1.7.1.4.2.7.6.8 1l-.1.7"/></defs><clipPath id="cz"><use xlink:href="#cy" overflow="visible"/></clipPath><g clip-path="url(#cz)"><defs><path id="cA" d="M-626-175H614v3340H-626z"/></defs><clipPath id="cB"><use xlink:href="#cA" overflow="visible"/></clipPath><path clip-path="url(#cB)" fill="#9bc7d5" d="M136 133h54v55h-54z"/></g></g><g><defs><path id="cC" d="M186 138.6l-10.3 43.2c-.2.7-.8 1.1-1.4 1.1H144v-.6l10.9-43.2c.2-.7.8-1.1 1.4-1.1H186v.6"/></defs><clipPath id="cD"><use xlink:href="#cC" overflow="visible"/></clipPath><g clip-path="url(#cD)"><defs><path id="cE" d="M-626-175H614v3340H-626z"/></defs><clipPath id="cF"><use xlink:href="#cE" overflow="visible"/></clipPath><path clip-path="url(#cF)" fill="#dbeff5" d="M139 133h52v55h-52z"/></g></g><g><defs><path id="cG" d="M103 169.3c-3.7 5.5 3.7 12.2 14.7 13.5 11 1.2 32.4-2.5 39.1-2.5 6.7 0 12.2 1.8 14.1-3.1 1.8-4.9 1.2-7.3.6-8-.6-.6-1.3.6-2.5.3s2.5-3.4-1.2-4.6c-1.8 0-2.4 3.1-10.4 5.5-7.9 2.5-33-1.2-36.7-1.8-3.7-.5-17.7.7-17.7.7"/></defs><clipPath id="cH"><use xlink:href="#cG" overflow="visible"/></clipPath><g clip-path="url(#cH)"><defs><path id="cI" d="M-626-175H614v3340H-626z"/></defs><clipPath id="cJ"><use xlink:href="#cI" overflow="visible"/></clipPath><path clip-path="url(#cJ)" fill="#e8ada8" d="M97 160h80v28H97z"/></g></g><g><defs><path id="cK" d="M44.5 222.5c-3.3 3.3-8.7 3.3-12 0-3.3-3.3-3.3-8.7 0-12 3.3-3.3 8.7-3.3 12 0 3.3 3.3 3.3 8.7 0 12"/></defs><clipPath id="cL"><use xlink:href="#cK" overflow="visible"/></clipPath><g clip-path="url(#cL)"><defs><path id="cM" d="M-626-175H614v3340H-626z"/></defs><clipPath id="cN"><use xlink:href="#cM" overflow="visible"/></clipPath><path clip-path="url(#cN)" fill="#00c2b4" d="M25 203h27v27H25z"/></g></g><g><defs><path id="cO" d="M60 196c-5.3 5.3-13.8 5.3-19.1 0-5.3-5.3-5.3-13.8 0-19.1 5.3-5.3 13.8-5.3 19.1 0 5.3 5.3 5.3 13.9 0 19.1"/></defs><clipPath id="cP"><use xlink:href="#cO" overflow="visible"/></clipPath><g clip-path="url(#cP)"><defs><path id="cQ" d="M-626-175H614v3340H-626z"/></defs><clipPath id="cR"><use xlink:href="#cQ" overflow="visible"/></clipPath><path clip-path="url(#cR)" fill="#9c9b98" d="M32 168h37v37H32z"/></g></g><g><defs><path id="cS" d="M503.1 175.1c-7.8 7.8-20.5 7.8-28.3 0-7.8-7.8-7.8-20.5 0-28.3 7.8-7.8 20.5-7.8 28.3 0 7.9 7.9 7.9 20.5 0 28.3"/></defs><clipPath id="cT"><use xlink:href="#cS" overflow="visible"/></clipPath><g clip-path="url(#cT)"><defs><path id="cU" d="M-626-175H614v3340H-626z"/></defs><clipPath id="cV"><use xlink:href="#cU" overflow="visible"/></clipPath><path clip-path="url(#cV)" fill="#228fc3" d="M464 136h50v50h-50z"/></g></g><g><defs><path id="cW" d="M506.2 218.2a9.476 9.476 0 11-13.4-13.402 9.476 9.476 0 0113.4 13.402"/></defs><clipPath id="cX"><use xlink:href="#cW" overflow="visible"/></clipPath><g clip-path="url(#cX)"><defs><path id="cY" d="M-626-175H614v3340H-626z"/></defs><clipPath id="cZ"><use xlink:href="#cY" overflow="visible"/></clipPath><path clip-path="url(#cZ)" fill="#eda02d" d="M485 197h29v29h-29z"/></g></g><g><defs><path id="da" d="M194.2 71.2c-2.3 2.3-6.1 2.3-8.5 0-2.3-2.3-2.3-6.1 0-8.5 2.3-2.3 6.1-2.3 8.5 0 2.4 2.4 2.4 6.2 0 8.5"/></defs><clipPath id="db"><use xlink:href="#da" overflow="visible"/></clipPath><g clip-path="url(#db)"><defs><path id="dc" d="M-626-175H614v3340H-626z"/></defs><clipPath id="dd"><use xlink:href="#dc" overflow="visible"/></clipPath><path clip-path="url(#dd)" fill="#00c2b4" d="M179 56h22v22h-22z"/></g></g><g><defs><path id="de" d="M208 48c0 4.4-3.6 8-8 8s-8-3.6-8-8 3.6-8 8-8 8 3.6 8 8"/></defs><clipPath id="df"><use xlink:href="#de" overflow="visible"/></clipPath><g clip-path="url(#df)"><defs><path id="dg" d="M-626-175H614v3340H-626z"/></defs><clipPath id="dh"><use xlink:href="#dg" overflow="visible"/></clipPath><path clip-path="url(#dh)" fill="#9c9b98" d="M187 35h26v26h-26z"/></g></g></svg>