<svg version="1.1" id="Layer_1" xmlns="http://www.w3.org/2000/svg" xmlns:xlink="http://www.w3.org/1999/xlink" x="0" y="0" viewBox="0 0 20 20" xml:space="preserve"><style>.st0{fill:none;stroke:#ff5100;stroke-width:2;stroke-miterlimit:10}</style><path class="st0" d="M3 17H0m20 0H7"/><defs><path id="SVGID_1_" d="M5 15v4c0 .6-.4 1-1 1H3c-.6 0-1-.4-1-1v-4c0-.6.4-1 1-1h1c.6 0 1 .4 1 1z"/></defs><clipPath id="SVGID_2_"><use xlink:href="#SVGID_1_" overflow="visible"/></clipPath><g clip-path="url(#SVGID_2_)"><defs><path id="SVGID_3_" d="M-510-877H730v3340H-510z"/></defs><clipPath id="SVGID_4_"><use xlink:href="#SVGID_3_" overflow="visible"/></clipPath><path clip-path="url(#SVGID_4_)" fill="#ff5100" d="M-3 9h13v16H-3z"/></g><path class="st0" d="M8 3H0m20 0h-8"/><defs><path id="SVGID_5_" d="M10 1v4c0 .6-.4 1-1 1H8c-.6 0-1-.4-1-1V1c0-.6.4-1 1-1h1c.6 0 1 .4 1 1z"/></defs><clipPath id="SVGID_6_"><use xlink:href="#SVGID_5_" overflow="visible"/></clipPath><g clip-path="url(#SVGID_6_)"><defs><path id="SVGID_7_" d="M-510-877H730v3340H-510z"/></defs><clipPath id="SVGID_8_"><use xlink:href="#SVGID_7_" overflow="visible"/></clipPath><path clip-path="url(#SVGID_8_)" fill="#ff5100" d="M2-5h13v16H2z"/></g><path class="st0" d="M13 10H0m20 0h-3"/><g><defs><path id="SVGID_9_" d="M15 8v4c0 .6-.4 1-1 1h-1c-.6 0-1-.4-1-1V8c0-.6.4-1 1-1h1c.6 0 1 .4 1 1z"/></defs><clipPath id="SVGID_10_"><use xlink:href="#SVGID_9_" overflow="visible"/></clipPath><g clip-path="url(#SVGID_10_)"><defs><path id="SVGID_11_" d="M-510-877H730v3340H-510z"/></defs><clipPath id="SVGID_12_"><use xlink:href="#SVGID_11_" overflow="visible"/></clipPath><path clip-path="url(#SVGID_12_)" fill="#ff5100" d="M7 2h13v16H7z"/></g></g></svg>