<svg xmlns="http://www.w3.org/2000/svg" xmlns:xlink="http://www.w3.org/1999/xlink" viewBox="0 0 20 17"><defs><path id="a" d="M18 16H2c-1.1 0-2-.9-2-2v-1h20v1c0 1.1-.9 2-2 2zM6 0c2.8 0 5 2.2 5 5v8H0V1c0-.6.4-1 1-1h5z"/></defs><clipPath id="b"><use xlink:href="#a" overflow="visible"/></clipPath><g clip-path="url(#b)"><defs><path id="c" d="M-330-1286H910v3340H-330z"/></defs><clipPath id="d"><use xlink:href="#c" overflow="visible"/></clipPath><path clip-path="url(#d)" fill="#ff8900" d="M-5-5h30v26H-5z"/></g><g><defs><path id="e" d="M15.5 5h-1c-.3 0-.5-.2-.5-.5v-1c0-.3.2-.5.5-.5h1c.3 0 .5.2.5.5v1c0 .3-.2.5-.5.5zm-.5 7c-.6 0-1-.4-1-1V8c0-.6.4-1 1-1s1 .4 1 1v3c0 .6-.4 1-1 1zM14 0c-2.8 0-5 2.2-5 5v8h11V1c0-.6-.4-1-1-1h-5zm-4 14c-.8 0-1.5.7-1.5 1.5S9.2 17 10 17s1.5-.7 1.5-1.5S10.8 14 10 14z"/></defs><clipPath id="f"><use xlink:href="#e" overflow="visible"/></clipPath><g clip-path="url(#f)"><defs><path id="g" d="M-330-1286H910v3340H-330z"/></defs><clipPath id="h"><use xlink:href="#g" overflow="visible"/></clipPath><path clip-path="url(#h)" fill="#ff8900" d="M3.5-5H25v27H3.5z"/></g></g></svg>