<svg xmlns="http://www.w3.org/2000/svg" xmlns:xlink="http://www.w3.org/1999/xlink" viewBox="0 0 18 18"><defs><path id="a" d="M16 18h-2c-1.1 0-2-.9-2-2V9c0-1.1.9-2 2-2h2c1.1 0 2 .9 2 2v7c0 1.1-.9 2-2 2zm-8 0H2c-1.1 0-2-.9-2-2V9c0-1.1.9-2 2-2h6c1.1 0 2 .9 2 2v7c0 1.1-.9 2-2 2zm8-13H2C.9 5 0 4.1 0 3V2C0 .9.9 0 2 0h14c1.1 0 2 .9 2 2v1c0 1.1-.9 2-2 2z"/></defs><clipPath id="b"><use xlink:href="#a" overflow="visible"/></clipPath><g clip-path="url(#b)"><defs><path id="c" d="M-151-1286h1240v3340H-151z"/></defs><clipPath id="d"><use xlink:href="#c" overflow="visible"/></clipPath><path clip-path="url(#d)" fill="#ff8900" d="M-5-5h28v28H-5z"/></g></svg>