<svg version="1.1" id="Layer_1" xmlns="http://www.w3.org/2000/svg" x="0" y="0" viewBox="0 0 20 20" xml:space="preserve"><style>.st1{fill:#ff8900}</style><path d="M14 19H6c-.6 0-1-.4-1-1V2c0-.6.4-1 1-1h8c.6 0 1 .4 1 1v16c0 .6-.4 1-1 1z" fill="none" stroke="#ff8900" stroke-width="2" stroke-miterlimit="10"/><path class="st1" d="M12.5 5h-5c-.3 0-.5-.2-.5-.5v-1c0-.3.2-.5.5-.5h5c.3 0 .5.2.5.5v1c0 .3-.2.5-.5.5zm0 4h-5c-.3 0-.5-.2-.5-.5v-1c0-.3.2-.5.5-.5h5c.3 0 .5.2.5.5v1c0 .3-.2.5-.5.5zm0 4h-5c-.3 0-.5-.2-.5-.5v-1c0-.3.2-.5.5-.5h5c.3 0 .5.2.5.5v1c0 .3-.2.5-.5.5zm0 4h-5c-.3 0-.5-.2-.5-.5v-1c0-.3.2-.5.5-.5h5c.3 0 .5.2.5.5v1c0 .3-.2.5-.5.5zM5 1v18h10V1H5zm0 16H2c-1.1 0-2-.9-2-2V6c0-1.1.9-2 2-2h3v2H2.5c-.3 0-.5.2-.5.5v8c0 .3.2.5.5.5H5v2zM18 4h-3v2h2.5c.3 0 .5.2.5.5v8c0 .3-.2.5-.5.5H15v2h3c1.1 0 2-.9 2-2V6c0-1.1-.9-2-2-2z"/></svg>