<svg xmlns="http://www.w3.org/2000/svg" xmlns:xlink="http://www.w3.org/1999/xlink" viewBox="0 0 20 18.3"><defs><path id="a" d="M18 5h-2v4c0 2.2-1.8 4-4 4H6v1c0 1.1.9 2 2 2h9l2.1 2.1c.3.3.9.1.9-.4V7c0-1.1-.9-2-2-2z"/></defs><clipPath id="b"><use xlink:href="#a" overflow="visible"/></clipPath><g clip-path="url(#b)"><defs><path id="c" d="M-690-878H550v3340H-690z"/></defs><clipPath id="d"><use xlink:href="#c" overflow="visible"/></clipPath><path clip-path="url(#d)" fill="#ff5100" d="M1 0h24v23.3H1z"/></g><g><defs><path id="e" d="M12 0H2C.9 0 0 .9 0 2v10.8c0 .4.5.7.9.4L3 11h9c1.1 0 2-.9 2-2V2c0-1.1-.9-2-2-2z"/></defs><clipPath id="f"><use xlink:href="#e" overflow="visible"/></clipPath><g clip-path="url(#f)"><defs><path id="g" d="M-690-878H550v3340H-690z"/></defs><clipPath id="h"><use xlink:href="#g" overflow="visible"/></clipPath><path clip-path="url(#h)" fill="#ff5100" d="M-5-5h24v23.3H-5z"/></g></g></svg>