<svg xmlns="http://www.w3.org/2000/svg" xmlns:xlink="http://www.w3.org/1999/xlink" viewBox="0 0 19 22"><defs><path id="a" d="M13 0H2C.9 0 0 .9 0 2v13c0 .6.4 1 1 1s1-.4 1-1V2h11c.6 0 1-.4 1-1s-.4-1-1-1z"/></defs><clipPath id="b"><use xlink:href="#a" overflow="visible"/></clipPath><g clip-path="url(#b)"><defs><path id="c" d="M-691-1283H549v3340H-691z"/></defs><clipPath id="d"><use xlink:href="#c" overflow="visible"/></clipPath><path clip-path="url(#d)" fill="#ff8900" d="M-5-5h24v26H-5z"/></g><g><defs><path id="e" d="M14 18H9c-.6 0-1-.4-1-1s.4-1 1-1h5c.6 0 1 .4 1 1s-.4 1-1 1zm0-4H9c-.6 0-1-.4-1-1s.4-1 1-1h5c.6 0 1 .4 1 1s-.4 1-1 1zm-.8-10H6c-1.1 0-2 .9-2 2v14c0 1.1.9 2 2 2h11c1.1 0 2-.9 2-2V9.8c0-.5-.2-1-.6-1.4l-3.8-3.8c-.4-.4-.9-.6-1.4-.6z"/></defs><clipPath id="f"><use xlink:href="#e" overflow="visible"/></clipPath><g clip-path="url(#f)"><defs><path id="g" d="M-691-1283H549v3340H-691z"/></defs><clipPath id="h"><use xlink:href="#g" overflow="visible"/></clipPath><path clip-path="url(#h)" fill="#ff8900" d="M-1-1h25v28H-1z"/></g></g></svg>