<svg version="1.1" id="Layer_1" xmlns="http://www.w3.org/2000/svg" xmlns:xlink="http://www.w3.org/1999/xlink" x="0" y="0" viewBox="0 0 48 43" xml:space="preserve"><style>.st2{fill:none;stroke:#e0ded8;stroke-width:2;stroke-linecap:round;stroke-linejoin:round;stroke-miterlimit:10}</style><defs><path id="SVGID_1_" d="M16 43H4c-2.2 0-4-1.8-4-4V19h16c2.2 0 4 1.8 4 4v16c0 2.2-1.8 4-4 4z"/></defs><clipPath id="SVGID_2_"><use xlink:href="#SVGID_1_" overflow="visible"/></clipPath><g clip-path="url(#SVGID_2_)"><defs><path id="SVGID_3_" d="M-90-1501h1240v3340H-90z"/></defs><clipPath id="SVGID_4_"><use xlink:href="#SVGID_3_" overflow="visible"/></clipPath><path clip-path="url(#SVGID_4_)" fill="#e0ded8" d="M-5 14h30v34H-5z"/></g><path class="st2" d="M2 19C2 7 10 1 10 1"/><defs><path id="SVGID_5_" d="M44 43H32c-2.2 0-4-1.8-4-4V19h16c2.2 0 4 1.8 4 4v16c0 2.2-1.8 4-4 4zM11.7 2.1C7.8 1.5 2 11.4 2 11.4V21h6S7 9.7 11.7 2.1z"/></defs><clipPath id="SVGID_6_"><use xlink:href="#SVGID_5_" overflow="visible"/></clipPath><g clip-path="url(#SVGID_6_)"><defs><path id="SVGID_7_" d="M-90-1501h1240v3340H-90z"/></defs><clipPath id="SVGID_8_"><use xlink:href="#SVGID_7_" overflow="visible"/></clipPath><path clip-path="url(#SVGID_8_)" fill="#e0ded8" d="M-3-2.9h56V48H-3z"/></g><path class="st2" d="M30 19c0-12 8-18 8-18"/><g><defs><path id="SVGID_9_" d="M39.7 2.1c-3.8-.6-9.7 9.3-9.7 9.3V21h6S35 9.7 39.7 2.1z"/></defs><clipPath id="SVGID_10_"><use xlink:href="#SVGID_9_" overflow="visible"/></clipPath><g clip-path="url(#SVGID_10_)"><defs><path id="SVGID_11_" d="M-90-1501h1240v3340H-90z"/></defs><clipPath id="SVGID_12_"><use xlink:href="#SVGID_11_" overflow="visible"/></clipPath><path clip-path="url(#SVGID_12_)" fill="#e0ded8" d="M25-2.9h19.7V26H25z"/></g></g></svg>