<svg xmlns="http://www.w3.org/2000/svg" viewBox="0 0 1288 346">
  <g fill="none" fill-rule="nonzero">
    <path fill="#00C2B4" d="M706.73 121.21a10.92 10.92 0 00-10.92 10.92v23.35C628.26 57.03 534.81 9.68 441.08 2.2c-67.85-5.41-191.41-.56-265.08 122l-.67 1-45.68 79.2a20.32 20.32 0 0035.2 20.31l42.3-73.32c67-112.24 179.42-117.74 233.46-113.56C533.38 45 625.1 90.29 682.74 173.17h-28a10.92 10.92 0 100 21.84h52c6.03 0 10.92-4.89 10.92-10.92v-52a10.92 10.92 0 00-10.93-10.88z"/>
    <path fill="#FF8900" d="M62.9 234.87a20.31 20.31 0 01-17.57-30.47l42.16-73a20.31 20.31 0 1135.18 20.31l-42.15 73a20.31 20.31 0 01-17.62 10.16z"/>
    <path fill="#F00057" d="M62.94 234.87a20.29 20.29 0 01-17.61-10.16l-42.16-73a20.32 20.32 0 0135.19-20.31l42.16 73a20.31 20.31 0 01-17.58 30.47z"/>
    <path fill="#8CC63F" d="M147.27 234.87a20.29 20.29 0 01-17.61-10.16l-42.16-73a20.32 20.32 0 1135.19-20.31l42.15 73a20.31 20.31 0 01-17.57 30.47z"/>
    <path fill="#FF5100" d="M80.52 204.4l-17.6-30.48-17.59 30.48a20.3 20.3 0 001.48 22.59l.09.1.71.86.18.2c.26.3.53.58.82.86v.05c.28.27.56.53.85.78l.38.32.52.42.47.35.47.34.84.55.57.34c.33.19.66.36 1 .53l.23.12c.24.12.48.22.72.32l.54.24.13.05a20.28 20.28 0 0015.06 0l.12-.05c.19-.07.37-.16.56-.25l.69-.31.26-.14 1-.51c.24-.13.47-.28.7-.42.23-.14.47-.3.69-.46l.51-.35.45-.34.53-.44.37-.31c.29-.25.58-.51.86-.79l.83-.88.17-.19c.25-.29.5-.58.72-.87l.08-.1a20.3 20.3 0 001.59-22.61z"/>
    <path fill="#3FC641" d="M164.84 204.4l-17.6-30.49-17.59 30.49a20.3 20.3 0 001.53 22.59l.08.1c.24.3.47.58.72.86l.18.2c.26.29.53.58.8.85l.06.06c.27.27.56.53.85.78l.38.33.52.41.47.35.47.34c.16.11.55.37.84.54.29.17.37.24.57.35.2.11.66.37 1 .54l.22.11c.24.12.48.22.73.33l.53.23.12.05a20.26 20.26 0 0015 0l.16-.06.52-.23.74-.33.22-.12c.34-.17.67-.34 1-.53l.62-.38.78-.51.48-.34.46-.35.52-.42.38-.32c.29-.25.58-.51.86-.79l.82-.86.17-.2a12.77 12.77 0 00.8-.97 20.28 20.28 0 001.59-22.61z"/>
    <path fill="#EBB800" d="M122.39 130.89c-.17-.27-.33-.53-.51-.79v-.05l-.55-.76a20.34 20.34 0 00-7.82-6.26l-.77-.33-.23-.09-.58-.21-.42-.14-.37-.12-.62-.18h-.18l-.79-.2c-.94-.2-1.9-.34-2.86-.41H103.83c-.97.07-1.93.2-2.88.41l-.8.2h-.18l-.61.18-.38.12-.42.14-.58.21-.22.09c-.26.1-.52.21-.77.33h-.06a20.27 20.27 0 00-7.82 6.25l-.54.76v.06a20.31 20.31 0 00-.76 21.54l17.59 30.47 17.58-30.47a20.31 20.31 0 00-.26-20.77l-.33.02z"/>
    <path fill="#FFF" d="M822.37 286.38h5.14v18.69a14 14 0 0112-6.32c9.57 0 16.14 7.42 16.14 17.84s-6.89 17.7-16.53 17.7a14 14 0 01-11.78-6.18v5.34h-5l.03-47.07zm16.41 43.29c6.5 0 11.58-5.14 11.58-13s-4.81-13.21-11.45-13.21c-6.38 0-11.59 4.82-11.59 13.21 0 7.08 4.43 13 11.46 13zM866.44 345.1l4.88-12-13.8-33.52h5.6l10.74 27.21 10.41-27.21h5.47l-18.16 45.5zM911.87 287.88h12.56c8.66 0 13.54 4.43 13.54 11.65a11 11 0 01-5.86 10 11 11 0 017.42 10.93c0 8.21-5.92 13-13.73 13h-13.93v-45.58zM925 307.6c4.55 0 7.55-3.06 7.55-7.68 0-4.62-2.67-7.35-7.55-7.35h-7.88v15l7.88.03zm-.13 21.22c5.4 0 9.17-2.6 9.17-8.46 0-5.86-4-8.33-9.24-8.33h-7.68v16.79h7.75zM960.75 298.75c10 0 16.08 7.16 16.08 17.32 0 .19 0 .91-.07 1.56h-27.14c.06 7.55 5.14 12.11 12.17 12.11a12.4 12.4 0 0010.55-5.28l3.38 2.48c-1.89 3.19-6.31 7.35-14 7.35-10.29 0-17.38-7.22-17.38-17.64.01-10.8 7.43-17.9 16.41-17.9zm10.8 15c-.32-7-5.2-10.61-10.8-10.61a11 11 0 00-10.87 10.61h21.67zM994.14 311.9c4.29 0 7.55 1.63 8.92 3.06v-4.17c0-4.75-3.19-7.48-8.21-7.48a19.38 19.38 0 00-9.95 2.93l-2.09-3.78a23.88 23.88 0 0112.5-3.71c9.24 0 12.89 5.14 12.89 12.37v22.33h-4.43l-.58-2.87c-1.76 2-4.63 3.71-9.18 3.71-7.42 0-12.89-4.68-12.89-11.26s5.4-11.13 13.02-11.13zm.71 18.1c5 0 8.4-2.93 8.4-7s-3.38-7-8.46-7c-5.08 0-8.46 3-8.46 7s3.32 7 8.52 7zM1016.92 292.5h5.14v7.1h7.42v4.4h-7.42v17.4c0 6.32 1.82 7.82 6.25 7.82.65 0 1.43-.07 1.43-.07v4.56c-1.04.13-2.08.2-3.12.19-6.77 0-9.7-4.42-9.7-12V304h-4v-4.4h4v-7.1zM1050.89 303.89c-7.74 0-10 6.12-10 13.35v16.21h-5.14V299.6h5.08v5.66c1.17-3.38 4.94-6.51 10.08-6.51l-.02 5.14zM1059.16 287.36a3.55 3.55 0 11.06 7.1 3.55 3.55 0 01-.06-7.1zm-2.54 12.24h5.14v33.85h-5.14V299.6zM1068.27 329.8l19.4-25.78h-18.81v-4.42h24.86v3.71l-19.33 25.78h19.66v4.36h-25.78zM1119.49 322.32c1.24 3.51 4 7.09 10 7.09 4.82 0 8.27-2.8 8.27-7.55 0-11.39-21.35-8.46-21.35-23.17 0-6.51 5-11.66 13-11.66a13.29 13.29 0 0112.89 8.73l-4.43 1.82a9.17 9.17 0 00-8.53-5.73c-5 0-7.68 3.06-7.68 6.84 0 10.41 21.42 8.26 21.42 22.84 0 7.17-5.27 12.76-13.8 12.76-8.85 0-12.82-5.66-14.26-10l4.47-1.97zM1161 311.9c4.29 0 7.55 1.63 8.91 3.06v-4.17c0-4.75-3.18-7.48-8.2-7.48-3.54.05-7 1.06-10 2.93l-2.08-3.78a23.88 23.88 0 0112.5-3.71c9.24 0 12.89 5.14 12.89 12.37v22.33h-4.43l-.58-2.87c-1.76 2-4.63 3.71-9.18 3.71-7.42 0-12.89-4.68-12.89-11.26s5.4-11.13 13.06-11.13zm.71 18.1c4.95 0 8.4-2.93 8.4-7s-3.38-7-8.46-7c-5.08 0-8.46 3-8.46 7s3.28 7 8.48 7h.04zM1185.88 287.36a3.55 3.55 0 11.08 7.1 3.55 3.55 0 01-.08-7.1zm-2.53 12.24h5.14v33.85h-5.14V299.6zM1208.14 311.9c4.3 0 7.56 1.63 8.92 3.06v-4.17c0-4.75-3.19-7.48-8.2-7.48-3.54.05-7 1.06-10 2.93l-2.08-3.78a23.88 23.88 0 0112.5-3.71c9.24 0 12.89 5.14 12.89 12.37v22.33h-4.43l-.59-2.87c-1.75 2-4.62 3.71-9.18 3.71-7.42 0-12.88-4.68-12.88-11.26s5.44-11.13 13.05-11.13zm.72 18.1c5 0 8.4-2.93 8.4-7s-3.39-7-8.46-7-8.47 3-8.47 7 3.32 7 8.53 7zM1257.61 312.29v21.16h-5.14V312.1c0-5.41-3.38-8.66-8-8.66-5.2 0-8.78 3.84-8.78 9.44v20.57h-5.15V299.6h5.08v4.88a11.49 11.49 0 0110.09-5.73c7.87 0 11.9 5.86 11.9 13.54zM1268.74 287.36a3.55 3.55 0 11.06 7.1 3.55 3.55 0 01-.06-7.1zm-2.54 12.24h5.14v33.85h-5.14V299.6zM260.21 129.41c31.69 0 49.69 21.12 49.69 54.57.03 1.96-.03 3.92-.2 5.87h-72c.59 13.69 11.54 23.47 26.6 23.47 9.83.17 19.12-4.5 24.84-12.51L307 214.3c-3.91 7.24-17.6 22.5-43 22.5-32.86 0-53.79-22.7-53.79-53.4-.07-30.91 20.86-53.99 50-53.99zm22.3 42.84c-.58-12.52-9.58-20.74-21.9-20.74-12.72 0-20.93 9-22.11 20.74h44.01zM389.1 241.68a67 67 0 0029.15 7.05c14.67 0 28.16-4.5 28.16-20.35v-4.69c-2.15 2.93-12.12 13.11-29.92 13.11-29.54 0-48.9-22.11-48.9-53.6 0-31.49 20.73-53.79 49.88-53.79 17.21 0 27.58 9.39 30.51 13.3V132h25.43v89.39c0 38.14-24.84 50.47-55 50.47-14.08 0-28.36-4.31-37.55-9.39l8.24-20.79zm31.69-88.41c-15.25 0-26 11.74-26 29.73 0 17.99 11 29.93 26.21 29.93 15.64 0 26.21-11.73 26.21-29.93-.01-17.4-10.58-29.73-26.42-29.73zM543 129.41c31.3 0 55.16 23.08 55.16 54S575.11 236.8 543 236.8c-31.88 0-55-22.5-55-53.4.07-31.1 23.93-53.99 55-53.99zm0 83.52c16.24 0 28.17-12.12 28.17-29.53 0-17.41-11.9-30.13-28.17-30.13-16.27 0-28 12.52-28 30.13.06 17.41 12 29.53 28 29.53zM739.31 132h25.43v10.76c2.74-3.52 12.91-13.3 30.32-13.3 29.34 0 50.07 22.3 50.07 53.59 0 31.69-19.17 53.8-48.51 53.8-17.6 0-27.77-9.78-30.32-13.11v47.14h-27l.01-138.88zm52.42 81c15.65 0 26.21-12.32 26.21-30.12 0-18.19-11-29.54-26.21-29.54-16.43 0-26.21 13.3-26.21 29.54 0 19.12 11.35 30.05 26.21 30.05v.07zm69-120.1h27v141.35h-27V92.9zm82.15 75.9c10.37 0 18.39 3.12 22.1 5.67v-6.65c0-9-6.65-15.06-18.58-15.06-10.17 0-19.56 3.32-27.19 7.23l-10.17-18.38c9.19-6.26 24.65-12.13 40.29-12.13 32.87 0 42.65 17.21 42.65 40.1v64.74h-23.87l-1.76-6.65c-5.28 5.67-13.1 9.2-24.84 9.2-20.73 0-38.34-12.72-38.34-34.23.04-20.22 15.89-33.91 39.75-33.91l-.04.07zm5.08 47.13c10.18 0 17.61-5.47 17.61-14.08 0-9-7.43-14.28-17.8-14.28-10.37 0-17.61 5.87-17.61 14.28s7.67 14.01 17.84 14.01l-.04.07zm137.51-12.12l7.23 22.1a51.58 51.58 0 01-31.88 11c-31.88 0-54.57-22.3-54.57-53.4 0-31.1 23.27-54 54.37-54a52 52 0 0132.28 11l-7.63 22.69c-4.5-4.1-12.32-9.78-23.86-9.78-17.41 0-28.17 13.5-28.17 29.93 0 17.41 12.13 29.73 29.14 29.73 10.41-.15 18.62-5.63 23.13-9.34l-.04.07zm66.89-74.33c31.68 0 49.68 21.12 49.68 54.57.03 1.96-.03 3.92-.2 5.87h-72c.59 13.69 11.54 23.47 26.6 23.47 9.83.17 19.12-4.5 24.84-12.51l17.8 13.49c-3.91 7.24-17.6 22.5-43 22.5-32.86 0-53.79-22.7-53.79-53.4.03-30.98 20.96-54.06 50.11-54.06l-.04.07zm22.29 42.84c-.58-12.52-9.58-20.74-21.9-20.74-12.72 0-20.93 9-22.11 20.74h44.01zm35.6 45.57l15.84-14.08c5.09 5.87 11.93 11.15 23.47 11.15 7.63 0 12.52-3.33 12.52-9.2 0-15.64-48.31-9.58-48.31-46 0-19 16.23-30.32 37.16-30.32 19.37 0 30.12 10.17 35 18.19l-17.8 13.3c-3.13-3.91-8.8-9.78-18.38-9.78-6.26 0-10.56 3.13-10.56 8.22 0 16.23 48.5 8.41 48.5 45 0 19.95-17.21 32.47-39.31 32.47-20.1-.04-32.62-10.22-38.09-19.02l-.04.07z"/>
  </g>
</svg>
