<svg xmlns="http://www.w3.org/2000/svg" xmlns:xlink="http://www.w3.org/1999/xlink" viewBox="0 0 468 325">
  <defs/>
  <defs>
    <path id="a" d="M93.315 3.447c22.149 5.817 30.622 11.245 27.487 37.66-3.136 26.41-11.915 41.446-24.458 40.95-35.812-1.416-44.883-2.23-63.689-.657l6.004 13.686-15.152-12.949c-18.831.7-21.687-7.92-22.87-14.717 0 0-4.065-42.184 20.8-55.357C46.296-1.115 71.17-2.37 93.314 3.447z"/>
    <path id="c" d="M114.636 26.941c-1.697 31.643-3.394 44.075-26.243 47.632-21.114 3.29-56.239 5.432-71.013 2.095C2.453 73.225-4.532 34.64 3.81 23.553 12.288 12.567 39.05 6.271 52.436 3.778c33.364-6.216 63.834-7.323 62.2 23.163z"/>
    <path id="e" d="M16.523 1.582c-7.506 8.094.848 24.583.848 24.583C1.251 19.385.403 7.518.403 7.518s20.622-10.791 16.12-5.936z"/>
    <path id="g" d="M134.63 55.133c-9.912 28.874-40.709 40.733-71.586 31.57C47.162 82.41 32.554 74.998 21.05 67.23 9.645 59.318 1.35 51.054.395 41.73c-.947-9.235 5.847-18.482 18.937-26.436C32.307 7.484 51.584.975 72.948.479c43.75-1.878 71.649 25.945 61.682 54.654z"/>
    <path id="i" d="M17.367 7.39S16.518 19.258.4 26.038c0 0 8.355-16.49.848-24.58C-3.254-3.4 17.367 7.39 17.367 7.39z"/>
  </defs>
  <g fill="none" fill-rule="evenodd">
    <path fill="#E0DED8" d="M425.572 199.244c-31.445 49.4 60.856 84.901-17.224 113.842-78.08 28.94-199.026-2.202-246.697-16.02-47.028-14.358-94.343-37.423-126.727-69.91-67.089-61.54-37.483-304.86 88.504-183.681 125.987 121.18 321.282-128.056 341.126-11.59 11.83 56.04-8.18 118.537-38.982 167.359z"/>
    <g transform="translate(279.224 23.352)">
      <mask id="b" fill="#fff">
        <use xlink:href="#a"/>
      </mask>
      <path fill="#2D75AE" d="M-1637.844 451.959H228.28V-694.978h-1866.124z" mask="url(#b)"/>
    </g>
    <g transform="translate(185.45 72.112)">
      <mask id="d" fill="#fff">
        <use xlink:href="#c"/>
      </mask>
      <path fill="#4D4D4D" d="M-1544.071 403.199H322.053V-743.738h-1866.124z" mask="url(#d)"/>
    </g>
    <g transform="translate(223.215 139.104)">
      <mask id="f" fill="#fff">
        <use xlink:href="#e"/>
      </mask>
      <path fill="#4D4D4D" d="M-1581.835 336.207H284.289V-810.73h-1866.124z" mask="url(#f)"/>
    </g>
    <g transform="translate(141.322 3)">
      <mask id="h" fill="#fff">
        <use xlink:href="#g"/>
      </mask>
      <path fill="#AE2D55" d="M-1499.943 472.311H366.181V-674.626h-1866.124z" mask="url(#h)"/>
    </g>
    <g transform="translate(199.029 78.472)">
      <mask id="j" fill="#fff">
        <use xlink:href="#i"/>
      </mask>
      <path fill="#AE2D55" d="M-1557.649 396.839H308.475V-750.098h-1866.124z" mask="url(#j)"/>
    </g>
    <path fill="#E2C59C" d="M101.08 156.022c1.002-.297 1.812-.051 2.75.368.878.39 1.553.043 1.553.043s.314.047-1.638-.801c-.547-.238-1.158-.467-1.748-.488-.547-.021-1.54.055-1.939.267-.895.48-.726 1.132 1.023.61"/>
    <path fill="#E9D6B8" d="M71.807 167.707c5.686.42 21.475-8.552 21.475-8.552s4.934-4.978-17.847 3.01c-6.835 2.396-5.028 5.436-3.628 5.542"/>
    <path fill="#E9D6B8" d="M102.197 156.128l-.238-.454-1.719-.433s-3.144.543-4.251 1.166c-1.116.632-5.957 1.332-6.51 1.573-.555.246-.746 3.058-.746 3.058s4.693-1.896 6.615-2.49c1.927-.593 4.965-.487 5.728-.695 1.303-.347 1.986-.453 1.986-.453s-.284-.67-2.359-.242c-.547.114-.382-.556-.382-.556l1.876-.474"/>
    <path fill="#E9D6B8" d="M99.969 156.675s-.017-1.086.407-1.162c1.027-.191 2.614-.467 3.123-.445.569.017 3.23.56 3.23.56s-.875.41-1.961.266c-1.485-.195-4.8.78-4.8.78"/>
    <path fill="#B0BFDE" d="M82.394 158.532l-9.454 2.344s-21.334-1.318-23.214.581c-2.228 2.256-4.277 6.797-4.277 6.797l25.879 1.17 11.032-1.098.034-9.794"/>
    <path fill="#F4A933" d="M129.807 103.217l10.149 23.549 37.344 11.855-30.44-70.651-17.053 35.247"/>
    <path fill="#DC982D" d="M136.269 89.852l-6.462 13.365 10.149 23.549 14.151 4.498-17.838-41.412"/>
    <path fill="#F4A933" d="M110.712 73.859l-70.698 30.413c-4.507 1.938-6.59 7.158-4.647 11.665l30.44 70.65c1.94 4.495 7.163 6.577 11.67 4.635l70.698-30.413c4.506-1.938 6.585-7.162 4.65-11.66l-30.44-70.652c-1.939-4.502-7.162-6.576-11.673-4.638"/>
    <path fill="#FFF" d="M94.512 148.47l-11.707-27.174 24.886 5.406-13.179 21.768"/>
    <path fill="#E9D6B8" d="M38.987 285.889l-3.806 14.034.331 1.03 8.991 2.324 4.782.14-9.276-4.63 4.49-13.768-5.512.87"/>
    <path fill="#161711" d="M35.367 303.277l1.884.14 1.019-1.302 7.209 2.027 6.127.292s-.013-.475-.255-.69c-.904-.794-5.401-2.134-5.401-2.134s.182 1.374-.4 1.523c-.58.144-6.122-1.523-7.429-2.031-2.244-.874-2.762-1.573-2.898-1.446-.365.322.144 3.62.144 3.62"/>
    <path fill="#E9D6B8" d="M73.343 282.255l2.61 14.161 8.987 2.32 4.786.144-9.28-4.634-2.104-12.063-4.999.072"/>
    <path fill="#161711" d="M75.809 298.736l1.884.144 1.014-1.306 7.972 2.357 5.075.399s-.382-.801-.691-1.056c-.921-.75-4.6-2.132-4.6-2.132s.072 1.157-.51 1.305c-.576.14-6.088-1.378-7.39-1.886-2.25-.874-2.763-1.573-2.903-1.45-.36.33.149 3.625.149 3.625"/>
    <path fill="#163F59" d="M70.36 197.79l11.283 46.72-2.376 40.768-6.93-.441c-3.207-40.577.272-33.865-1.29-40.038-.992-3.927-17.523-38.728-14.129-47.064 3.386-8.336 13.442.055 13.442.055"/>
    <path fill="#194866" d="M51.266 204.82l-2.376 37.956s-4.595 9.282-5.312 12.966c-1.625 8.302-6.552 33.187-6.552 33.187l7.37 1.462s13.473-42.879 14.763-46.699c1.285-3.816 12.674-35.735 9.521-44.27-3.152-8.53-17.414 5.398-17.414 5.398"/>
    <path fill="#282723" d="M52.174 155.89c.807 5.338-2.966 10.337-8.422 11.16-5.457.822-10.536-2.841-11.342-8.18-.806-5.342 2.966-10.336 8.423-11.159 5.456-.822 10.535 2.837 11.341 8.18"/>
    <path fill="#282723" d="M52.756 170.68c.84 5.575-3.098 10.79-8.8 11.655-5.699.857-11.003-2.968-11.843-8.544-.84-5.58 3.097-10.795 8.796-11.655 5.698-.861 11.002 2.963 11.847 8.543M58.794 147.516c.615 4.1-2.207 7.929-6.31 8.544l-2.393-3.248a7.51 7.51 0 01-8.554-6.305l-.42-2.781a7.516 7.516 0 016.314-8.548l1.854-.28c4.103-.62 7.934 2.205 8.554 6.305l.955 6.313"/>
    <path fill="#E9D6B8" d="M54.173 137.043c.093.687.144 1.391.14 2.12-.03 4.88-2.385 8.943-5.49 9.863.228 2.175.088 4.18-.183 5.914-.306 1.968-2.21 4.287-2.21 4.287-.035 3.409 12.045 6.589 11.693 6.093-.348-.496-3.734-3.994-5.193-7.458-1.019-2.413-.51-4.605.233-6.174 1.46-2.349 4.031-2.709 4.031-2.709a.884.884 0 00.59-.369 5.23 5.23 0 00-.004-1.586l-.925-6.126a5.31 5.31 0 00-2.682-3.855"/>
    <path fill="#FBD260" d="M66.635 203.645l5.27-3.82s-5.308-8.972-7.167-14.734c-1.858-5.766-2.045-7.717-1.998-9.587.046-1.878.581-4.155-.908-6.016-1.49-1.866-3.845-4.97-4.621-5.13-1.247-.25-2.618-.594-3.734-1.417-.611-.45 13.158 40.704 13.158 40.704"/>
    <path fill="#D1DBEA" d="M68.858 205.82s-4.722-13.792-6.95-20.78c-2.228-6.987-7.438-20.123-7.981-21.798-.548-1.674-1.897-3.816-1.897-3.816s-3.025-1.594-5.401-.797c-2.368.797-4.88 3.706-3.76 11.995.734 5.402 9.34 19.101 9.535 20.39.19 1.29-3.323 12.954-2.848 16.104l.54 3.583s11.83-8.082 18.762-4.88"/>
    <path fill="#B0BFDE" d="M46.675 156.496l2.275.984 3.28 1.586-.09 3.239-6.313-4.142.848-1.667"/>
    <path fill="#E9D6B8" d="M88.907 181.678c4.587.627 6.827-1.187 8.724-1.586 1.9-.403 3.857-1.145 3.844-1.128-1.252 1.645-2.745 1.497-3.56 1.968-.814.479-.585.212 1.031.547.921.19 2.75-1.073 4.031-1.735 1.108-.568 1.757-.542 1.757-.542s-1.383 1.34-3.06 2.34c-2.015 1.213-4.433 2.129-4.994 2.243-1.022.216-4.098-.106-6.25-.674-2.422-.636-4.824-1.887-1.523-1.433"/>
    <path fill="#E9D6B8" d="M61.246 177.76s.352-1.785 9.95-.2c9.598 1.59 23.333 6.085 23.333 6.085l-22.454-1.785s-8.559-1.06-10.829-4.1"/>
    <path fill="#B0BFDE" d="M68.854 175.114s-8.949-1.429-9.424 3.456c-.271 2.777 1.54 4.16 4.248 4.545 5.045.721 10.82 1.298 10.82 1.298l4.192-6.835-9.836-2.464"/>
    <path fill="#B0BFDE" d="M64.09 173.613l-15.645-11.757s-2.419-.776-3.709.615c-1.863 2-2.04 3.519-1.167 4.876 1.732 2.675.497 1.67 9.378 8.624 8.113 6.36 11.388 9.078 14.566 5.393 2.97-3.439-3.424-7.75-3.424-7.75"/>
    <path fill="#E2C59C" d="M98.178 183.175s3.582-.543 4.235-.916c.454-.259 2.38-1.84 2.38-1.84s-1.332.089-2.147.682c-.806.594-4.468 2.074-4.468 2.074"/>
    <path fill="#161711" d="M170.21 313.898c.36-.437.097-1.59.097-1.59s-6.318-.704-8.35-.225c-.53.127-1.422.577-2.262 1.065-.14.08-.39.563-.53.644-.255.153-.386-.102-.603.03-.564.356-.959.636-.967.67-.556 2.896.182 4.066.182 4.066s5.202 1.615 6.39.538c3.013-2.722 5.249-4.24 6.042-5.198M190.199 316.29l.904 4.702h4.803s.263-.666.666-.666c.344 0 .79.666 1.252.666h12.211s.217-.988-.046-1.332c-.136-.174-.942-.475-1.477-.627-2.478-.696-9.577-2.87-10.807-5.241-1.506-2.879-7.506 2.497-7.506 2.497"/>
    <path fill="#E9D6B8" d="M194.018 157.713l1.15-5.698s4.052.31 4.837-1.87c1.59-4.371.263-11.359-.696-13.318-2.737-5.575-3.891-15.336-16.667-7.577-4.859 2.956 2.643 17.27 3.203 20.373.556 3.096-1.103 6.666-1.103 6.666l2.992 2.238 6.284-.814"/>
    <path fill="#E2C59C" d="M171.296 211.667l-.42 17.978s-6.777-7.47-7.434-15.968c-.658-8.497 7.43-2.675 7.854-2.01"/>
    <path fill="#163F59" d="M178.912 248.708s1.871.814-3.636 26.95c-3.976 18.817-7.37 32.584-8.957 38.812-.616 2.421-1.303 1.985-1.303 1.985l-5.253.585-2.5-2.167 7.503-42.637 14.146-23.528"/>
    <path fill="#E9D6B8" d="M213.273 199.956l-10.748 20.603s20.516-14.828 19.226-22.985c-1.286-8.162-8.478 2.382-8.478 2.382"/>
    <path fill="#F8C44F" d="M171.181 163.272s-4.358 2.663-7.497 24.291c-3.136 21.624-1.138 20.801-1.138 20.801l.573 4.927 8.143.878 4.404-18.673-4.485-32.224"/>
    <path fill="#163F59" d="M191.196 219.444s-12.02 49.756-21.462 72.063c-5.533 13.059-5.58-12.017-5.58-12.017l8.593-72.253 25.098-1.217s-2.847.882-6.649 13.424"/>
    <path fill="#163F59" d="M182.442 206.164s9.09 64.414 10.04 67.323c3.233 9.836 8.214-3.057 9.356-6.335 1.141-3.282 3.042-27.547 2.66-45.25l-.377-17.706-21.679 1.968"/>
    <path fill="#163F59" d="M191.57 257.379s-1.371 7.678-2.517 17.494c-.84 7.208-.861 27.797.471 42.099.08.873 9.178-1.79 9.178-1.79s3.322-40.025 4.082-48.984c.76-8.963-5.508-15.226-11.215-8.82"/>
    <path fill="#F4DA80" d="M170.914 163.314l10.73-4.867 2.962-2.799 11.406-.27 1.998 3.285 8.843 3.829s2.181 3.43.28 16.154c-2.1 14.098-2.546 35.408-2.546 35.408l-33.436 1.612s2.899-45.508-.237-52.352"/>
    <path fill="#F4DA80" d="M204.006 162.522s1.99-2.218 6.836 3.803c8.265 10.265 12.266 22.993 13.12 25.461.856 2.463 1.955 5.949-1.426 10.045a380.627 380.627 0 00-3.42 4.189l-7.422-4.618 1.172-2.221.831-1.099s-3.997-8.764-8.274-16.701c-4.277-7.937-1.417-18.86-1.417-18.86"/>
    <path fill="#194866" d="M195.702 138.464s-1.447-.886-1.667.22c-.225 1.111.555 3.553 1.222 3.778.666.22.886 3.218.886 3.218l-1.777 3.329h-8.992s-2.779-1.221-3.004-3.219c-.22-2-2.44-16.095-2.44-16.095l6.327-3.328s3.335-1.67 5.669-2.332c3.577-1.026 4.328.886 4.217 1.887-.11.992 1.002 1.106 2.444 1.106 1.447 0 3.225 1.111 2.445 1.777-.323.276 1.115 1.153.547 2.213-.815 1.514-3.543 2.006-3.768 4.448-.098 1.107-.556 4.77-2.109 2.998"/>
    <path fill="#163F59" d="M350.215 293.856c-.284.377-.072 1.373-.072 1.373s4.973.624 6.569.217c.415-.106 1.116-.492 1.777-.908.11-.072.306-.487.416-.555.2-.132.302.089.475-.03.442-.305.752-.543.756-.572.428-2.498-.153-3.507-.153-3.507s-4.239-1.556-5.028-.483c-1.859 2.523-4.12 3.642-4.74 4.465M324.027 290.612l-.738 4.04h-1.94s-.216-.572-.547-.572c-.284 0-.645.573-1.027.573h-9.997s-.178-.848.039-1.145c.114-.149.772-.411 1.209-.539 2.028-.597 7.841-2.467 8.851-4.503 1.23-2.471 4.15 2.146 4.15 2.146"/>
    <path fill="#FFC4AD" d="M351.085 201.636l4.141-2.303.493-.513-.577-.924-.908.114.157-2.696-4.337-.772-2.228-1.039 2.054 7.314"/>
    <path fill="#D1DBEA" d="M331.877 135.865s4.642 5.109-9.654 18.605c-14.299 13.496-16.904 9.544-16.904 9.544l-4.32-2.87-3.203-15.019 6.9-1.598.75.886s1.485.144 2.228-.911c.747-1.056 5.482-4.61 12.31-13.378 3.148-4.04 11.006 3.748 11.893 4.74"/>
    <path fill="#FFC4AD" d="M298.937 146.986s-14.422-.263-15.568-15.264c-.343-4.46-1.49-.144-2.274 4.113-.785 4.257 1.85 16.26 9.555 21.081 7.702 4.825 10.994 6.008 13.969 4.041 2.978-1.963-5.682-13.97-5.682-13.97"/>
    <path fill="#163F59" d="M320.204 290.629s2.24 3.243 3.886.212c3.798-6.992 9.437-24.261 9.628-32.122.272-11.27-1.642-19.11-1.642-19.11l-12.017-3.918.145 54.938"/>
    <path fill="#163F59" d="M320.607 184.035l-.548 51.656 10.927 6.03s6.555-12.326 7.374-28.057c.348-6.678.522-21.658-3.216-26.75-5.066-6.907-14.537-2.879-14.537-2.879"/>
    <path fill="#194866" d="M324.591 184.035l1.787 17.885 4.854 19.39 5.168 18.125 18.462 50.312 5.367.437s-.675-37.766-7.23-48.782c-3.471-5.825-3.467-18.757-5.07-32.69-.29-2.506 1.136-8.17.903-10.46-.904-9.027-5.554-15.79-5.554-15.79l-18.687 1.573"/>
    <path fill="#D1DBEA" d="M320.429 184.824l23.668-.526 10.111-33.822s6.556-20.45-6.012-20.713c-12.564-.263-27.046-.263-27.046-.263s-10.379 19.076-.721 55.324"/>
    <path fill="#FFC4AD" d="M362.902 174.945l-14.99 18.232s.538 2.654 1.743 1.246c.145-.174-.581-.708.331-1.204 3.683-2.01 12.335-5.1 15.534-8.192 4.214-4.066 7.21-8.848 7.21-8.848l-9.828-1.234"/>
    <path fill="#843EB3" d="M333.29 134.253s-11.016 18.979-7.888 39.98c.246 1.653 2.219 2.836 2.219 2.836l2.711-2.362s-.22-23.773 2.958-40.454"/>
    <path fill="#B0BFDE" d="M333.68 133.749l.602 4.193 7.197-6.813v-1.048l-7.799 3.668M331.414 131.044l-1.26 5.452 3.195-2.747-1.935-2.705M310.071 149.551l-1.88-3.392-.827-1.314c-.785.678-1.918.568-1.918.568l1.867 2.264 1.719 3.07.967 4.681.072-5.877"/>
    <path fill="#D1DBEA" d="M353.067 149.878l8.231 23.693 1.782.712-.992 1.573 10.153 1.764 4.464-7.742-11.86-32.16s-4.586-6.755-14.795-7.878c-7.404-.814 2.423 18.066 3.017 20.038"/>
    <path fill="#B0BFDE" d="M372.86 172.125s-6.92 1.298-10.556 1.845l.776.313-.992 1.573 3.517.581 5.117.115.802-1.896-1.498-.373 2.835-2.158"/>
    <path fill="#FFC4AD" d="M342.37 125.014c-.276 1.298-.751 3.312-1.277 4.486-.82 1.836-7.922 4.198-9.017 4.46-1.09.26.276-5.507.276-6.817 0-1 .649-.691-.132-2.129h10.15"/>
    <path fill="#FFC4AD" d="M330.23 122.093a2.065 2.065 0 001.71 2.362l9.161 1.467a2.053 2.053 0 002.36-1.709l2.176-13.56a2.052 2.052 0 00-1.706-2.357l-9.16-1.471a2.066 2.066 0 00-2.364 1.709l-2.177 13.56"/>
    <path fill="#163F59" d="M331.944 111.328s-1.018-1.51-1.115-2.353c-.047-.424.594-1.904 1.71-2.332 1.111-.433 1.782.805 1.782.805s-1.77.645-1.91.971c-.14.327-.467 2.909-.467 2.909"/>
    <path fill="#194866" d="M345.59 116.908s2.224-4.99 2.215-6.56c-.012-1.564-.012-2.654-1.846-3.12-2.753-.7-2.885-.115-4.103-1.179-1.222-1.064-3.335-3.498-4.14-3.837-1.346-.564-3.612-.45-4.117 2.166-.377 1.93-1.676 2.21-1.655 2.286.073.254.548.56 1.363 1.145 2.342 1.679 3.827 2.179 5.86 1.98 2.032-.195 5.842-.713 6.033.797.195 1.505-.683 5.885-.569 6.254.115.364.582.267.96.068"/>
    <path fill="#FFC4AD" d="M342.056 120.512a.692.692 0 00.568.788l1.982.318a.686.686 0 00.785-.572l.581-3.617a.685.685 0 00-.568-.784l-1.982-.318a.686.686 0 00-.785.568l-.581 3.617M330.251 118.62a.685.685 0 00.57.785l1.98.318a.686.686 0 00.786-.568l.58-3.617a.692.692 0 00-.568-.789l-1.981-.313a.683.683 0 00-.785.568l-.582 3.617"/>
    <path fill="#194866" d="M344.525 117.955s-.857 5.338-1.145 7.115c-.255 1.61-1.464 5.041-10.561 3.582-5.39-.865-4.553-4.787-4.345-6.088.157-.988 1.752-3.77 2.414-4.249l-.356 2.205s1.468-1.967 4.026-1.556c4.129.661 4.68 3.227 6.51 3.477 1.404.19 2.82-1.925 3.457-4.486"/>
    <path fill="#FFC4AD" d="M335.695 122.738l-2.826-.454a.687.687 0 01-.572-.789l.063-.394 4.184.674-.064.394a.686.686 0 01-.785.569M283.586 134.245s1.362-4.609.657-5.762c-.704-1.15-3.547-5.173-3.547-5.173l-.815-.958s-1.472.381.463 3.065c1.939 2.684.327 1.93.327 1.93l-2.614-1.713-3.356-1.832-1.392-1.018s-.751-.636-1.052-.627c-.866.034-.518.733-.518.733l5.1 4.444-5.745-2.722s-.79-.22-1.035.157c-.23.351 0 .483 0 .483l5.825 4.723-3.11-1.047s-.776-.19-1.035.161c-.284.386-.37.483-.37.483l11.466 5.814.75-1.141"/>
    <path fill="#FFC4AD" d="M276.033 128.258l-4.146-1.662s-.89-.483-1.434-.432c-.62.063-.59.644-.59.644l6.021 3.167.149-1.717"/>
    <path fill="#FFF" d="M198.159 43.852a4.976 4.976 0 01-4.973 4.974 4.98 4.98 0 01-4.977-4.974 4.976 4.976 0 019.95 0M216.4 43.852a4.976 4.976 0 01-4.973 4.974 4.98 4.98 0 01-4.977-4.974 4.976 4.976 0 019.95 0M234.641 43.852a4.976 4.976 0 01-9.95 0 4.974 4.974 0 014.977-4.969 4.973 4.973 0 014.973 4.97M313.809 57.149h23.087v-3.286h-23.087zM340.592 57.149h22.162v-3.286h-22.162z"/>
    <path fill="#FFF" d="M354.212 57.149h19.391v-3.286h-19.391zM313.809 67.24h9.929v-3.286h-9.929zM327.892 67.24h33.937v-3.286h-33.937zM365.525 67.24h11.541v-3.286h-11.541zM313.809 77.331h23.087v-3.286h-23.087zM340.592 77.331h15.466v-3.286h-15.466zM246.62 122.924c-.272.674-.544 1.285-.815 1.963h-3.123c1.358-3.998 1.765-6.3 2.172-10.57h-2.915v-7.458h6.713v4.54c0 3.931-.679 7.794-2.032 11.525zm-10.854 1.963h-3.187c1.15-3.32 2.236-7.047 2.236-10.57h-2.983v-7.458h6.713v4.134c0 4.812-.81 9.489-2.78 13.894z"/>
  </g>
</svg>
